<mxfile host="app.diagrams.net" modified="2021-07-28T08:54:59.872Z" agent="5.0 (Windows NT 10.0; Win64; x64) AppleWebKit/537.36 (KHTML, like Gecko) Chrome/92.0.4515.107 Safari/537.36 Edg/92.0.902.55" etag="_AoshaUsU90RXRKAmX0o" version="14.9.2" type="github">
  <diagram id="R2lEEEUBdFMjLlhIrx00" name="Page-1">
    <mxGraphModel dx="5240" dy="3902" grid="1" gridSize="10" guides="1" tooltips="1" connect="1" arrows="1" fold="1" page="1" pageScale="1" pageWidth="850" pageHeight="1100" math="0" shadow="0" extFonts="Permanent Marker^https://fonts.googleapis.com/css?family=Permanent+Marker">
      <root>
        <mxCell id="0" />
        <mxCell id="1" parent="0" />
        <mxCell id="8DQ1GMw1Qk0WIiFYgqin-1805" value="dbfiles" style="shape=table;startSize=30;container=1;collapsible=1;childLayout=tableLayout;fixedRows=1;rowLines=0;fontStyle=1;align=center;resizeLast=1;fontFamily=Fira Code;fillColor=#fff2cc;strokeColor=#000000;" parent="1" vertex="1">
          <mxGeometry x="-2715.14" y="-2550" width="340" height="250" as="geometry" />
        </mxCell>
        <mxCell id="8DQ1GMw1Qk0WIiFYgqin-1806" value="" style="shape=partialRectangle;collapsible=0;dropTarget=0;pointerEvents=0;fillColor=none;points=[[0,0.5],[1,0.5]];portConstraint=eastwest;top=0;left=0;right=0;bottom=0;fontFamily=Fira Code;strokeColor=#000000;" parent="8DQ1GMw1Qk0WIiFYgqin-1805" vertex="1">
          <mxGeometry y="30" width="340" height="30" as="geometry" />
        </mxCell>
        <mxCell id="8DQ1GMw1Qk0WIiFYgqin-1807" value="" style="shape=partialRectangle;overflow=hidden;connectable=0;fillColor=none;top=0;left=0;bottom=0;right=0;fontFamily=Fira Code;strokeColor=#000000;" parent="8DQ1GMw1Qk0WIiFYgqin-1806" vertex="1">
          <mxGeometry width="30" height="30" as="geometry" />
        </mxCell>
        <mxCell id="8DQ1GMw1Qk0WIiFYgqin-1808" value="id bigint " style="shape=partialRectangle;overflow=hidden;connectable=0;fillColor=none;top=0;left=0;bottom=0;right=0;align=left;spacingLeft=6;fontFamily=Fira Code;strokeColor=#000000;" parent="8DQ1GMw1Qk0WIiFYgqin-1806" vertex="1">
          <mxGeometry x="30" width="310" height="30" as="geometry" />
        </mxCell>
        <mxCell id="8DQ1GMw1Qk0WIiFYgqin-1824" value="" style="shape=partialRectangle;collapsible=0;dropTarget=0;pointerEvents=0;fillColor=none;points=[[0,0.5],[1,0.5]];portConstraint=eastwest;top=0;left=0;right=0;bottom=0;fontFamily=Fira Code;strokeColor=#000000;" parent="8DQ1GMw1Qk0WIiFYgqin-1805" vertex="1">
          <mxGeometry y="60" width="340" height="30" as="geometry" />
        </mxCell>
        <mxCell id="8DQ1GMw1Qk0WIiFYgqin-1825" value="" style="shape=partialRectangle;overflow=hidden;connectable=0;fillColor=none;top=0;left=0;bottom=0;right=0;fontFamily=Fira Code;strokeColor=#000000;" parent="8DQ1GMw1Qk0WIiFYgqin-1824" vertex="1">
          <mxGeometry width="30" height="30" as="geometry" />
        </mxCell>
        <mxCell id="8DQ1GMw1Qk0WIiFYgqin-1826" value="container_id bigint" style="shape=partialRectangle;overflow=hidden;connectable=0;fillColor=none;top=0;left=0;bottom=0;right=0;align=left;spacingLeft=6;fontFamily=Fira Code;strokeColor=#000000;" parent="8DQ1GMw1Qk0WIiFYgqin-1824" vertex="1">
          <mxGeometry x="30" width="310" height="30" as="geometry" />
        </mxCell>
        <mxCell id="8DQ1GMw1Qk0WIiFYgqin-1809" value="" style="shape=partialRectangle;collapsible=0;dropTarget=0;pointerEvents=0;fillColor=none;points=[[0,0.5],[1,0.5]];portConstraint=eastwest;top=0;left=0;right=0;bottom=0;fontFamily=Fira Code;strokeColor=#000000;" parent="8DQ1GMw1Qk0WIiFYgqin-1805" vertex="1">
          <mxGeometry y="90" width="340" height="30" as="geometry" />
        </mxCell>
        <mxCell id="8DQ1GMw1Qk0WIiFYgqin-1810" value="" style="shape=partialRectangle;overflow=hidden;connectable=0;fillColor=none;top=0;left=0;bottom=0;right=0;fontFamily=Fira Code;strokeColor=#000000;" parent="8DQ1GMw1Qk0WIiFYgqin-1809" vertex="1">
          <mxGeometry width="30" height="30" as="geometry" />
        </mxCell>
        <mxCell id="8DQ1GMw1Qk0WIiFYgqin-1811" value="file_name character varying(255) " style="shape=partialRectangle;overflow=hidden;connectable=0;fillColor=none;top=0;left=0;bottom=0;right=0;align=left;spacingLeft=6;fontFamily=Fira Code;strokeColor=#000000;" parent="8DQ1GMw1Qk0WIiFYgqin-1809" vertex="1">
          <mxGeometry x="30" width="310" height="30" as="geometry" />
        </mxCell>
        <mxCell id="8DQ1GMw1Qk0WIiFYgqin-1812" value="" style="shape=partialRectangle;collapsible=0;dropTarget=0;pointerEvents=0;fillColor=none;points=[[0,0.5],[1,0.5]];portConstraint=eastwest;top=0;left=0;right=0;bottom=0;fontFamily=Fira Code;strokeColor=#000000;" parent="8DQ1GMw1Qk0WIiFYgqin-1805" vertex="1">
          <mxGeometry y="120" width="340" height="30" as="geometry" />
        </mxCell>
        <mxCell id="8DQ1GMw1Qk0WIiFYgqin-1813" value="" style="shape=partialRectangle;overflow=hidden;connectable=0;fillColor=none;top=0;left=0;bottom=0;right=0;fontFamily=Fira Code;strokeColor=#000000;" parent="8DQ1GMw1Qk0WIiFYgqin-1812" vertex="1">
          <mxGeometry width="30" height="30" as="geometry" />
        </mxCell>
        <mxCell id="8DQ1GMw1Qk0WIiFYgqin-1814" value="file_path character varying(255) " style="shape=partialRectangle;overflow=hidden;connectable=0;fillColor=none;top=0;left=0;bottom=0;right=0;align=left;spacingLeft=6;fontFamily=Fira Code;strokeColor=#000000;" parent="8DQ1GMw1Qk0WIiFYgqin-1812" vertex="1">
          <mxGeometry x="30" width="310" height="30" as="geometry" />
        </mxCell>
        <mxCell id="8DQ1GMw1Qk0WIiFYgqin-1815" value="" style="shape=partialRectangle;collapsible=0;dropTarget=0;pointerEvents=0;fillColor=none;points=[[0,0.5],[1,0.5]];portConstraint=eastwest;top=0;left=0;right=0;bottom=0;fontFamily=Fira Code;strokeColor=#000000;" parent="8DQ1GMw1Qk0WIiFYgqin-1805" vertex="1">
          <mxGeometry y="150" width="340" height="30" as="geometry" />
        </mxCell>
        <mxCell id="8DQ1GMw1Qk0WIiFYgqin-1816" value="" style="shape=partialRectangle;overflow=hidden;connectable=0;fillColor=none;top=0;left=0;bottom=0;right=0;fontFamily=Fira Code;strokeColor=#000000;" parent="8DQ1GMw1Qk0WIiFYgqin-1815" vertex="1">
          <mxGeometry width="30" height="30" as="geometry" />
        </mxCell>
        <mxCell id="8DQ1GMw1Qk0WIiFYgqin-1817" value="md5 character varying(255)" style="shape=partialRectangle;overflow=hidden;connectable=0;fillColor=none;top=0;left=0;bottom=0;right=0;align=left;spacingLeft=6;fontFamily=Fira Code;strokeColor=#000000;" parent="8DQ1GMw1Qk0WIiFYgqin-1815" vertex="1">
          <mxGeometry x="30" width="310" height="30" as="geometry" />
        </mxCell>
        <mxCell id="8DQ1GMw1Qk0WIiFYgqin-1818" value="" style="shape=partialRectangle;collapsible=0;dropTarget=0;pointerEvents=0;fillColor=none;points=[[0,0.5],[1,0.5]];portConstraint=eastwest;top=0;left=0;right=0;bottom=0;fontFamily=Fira Code;strokeColor=#000000;" parent="8DQ1GMw1Qk0WIiFYgqin-1805" vertex="1">
          <mxGeometry y="180" width="340" height="30" as="geometry" />
        </mxCell>
        <mxCell id="8DQ1GMw1Qk0WIiFYgqin-1819" value="" style="shape=partialRectangle;overflow=hidden;connectable=0;fillColor=none;top=0;left=0;bottom=0;right=0;fontFamily=Fira Code;strokeColor=#000000;" parent="8DQ1GMw1Qk0WIiFYgqin-1818" vertex="1">
          <mxGeometry width="30" height="30" as="geometry" />
        </mxCell>
        <mxCell id="8DQ1GMw1Qk0WIiFYgqin-1820" value="machine_id bigint " style="shape=partialRectangle;overflow=hidden;connectable=0;fillColor=none;top=0;left=0;bottom=0;right=0;align=left;spacingLeft=6;fontFamily=Fira Code;strokeColor=#000000;" parent="8DQ1GMw1Qk0WIiFYgqin-1818" vertex="1">
          <mxGeometry x="30" width="310" height="30" as="geometry" />
        </mxCell>
        <mxCell id="8DQ1GMw1Qk0WIiFYgqin-1821" value="" style="shape=partialRectangle;collapsible=0;dropTarget=0;pointerEvents=0;fillColor=none;points=[[0,0.5],[1,0.5]];portConstraint=eastwest;top=0;left=0;right=0;bottom=0;fontFamily=Fira Code;strokeColor=#000000;" parent="8DQ1GMw1Qk0WIiFYgqin-1805" vertex="1">
          <mxGeometry y="210" width="340" height="30" as="geometry" />
        </mxCell>
        <mxCell id="8DQ1GMw1Qk0WIiFYgqin-1822" value="" style="shape=partialRectangle;overflow=hidden;connectable=0;fillColor=none;top=0;left=0;bottom=0;right=0;fontFamily=Fira Code;strokeColor=#000000;" parent="8DQ1GMw1Qk0WIiFYgqin-1821" vertex="1">
          <mxGeometry width="30" height="30" as="geometry" />
        </mxCell>
        <mxCell id="8DQ1GMw1Qk0WIiFYgqin-1823" value="container_type character varying(255)" style="shape=partialRectangle;overflow=hidden;connectable=0;fillColor=none;top=0;left=0;bottom=0;right=0;align=left;spacingLeft=6;fontFamily=Fira Code;strokeColor=#000000;" parent="8DQ1GMw1Qk0WIiFYgqin-1821" vertex="1">
          <mxGeometry x="30" width="310" height="30" as="geometry" />
        </mxCell>
        <mxCell id="8DQ1GMw1Qk0WIiFYgqin-1840" value="experiments" style="shape=table;startSize=30;container=1;collapsible=1;childLayout=tableLayout;fixedRows=1;rowLines=0;fontStyle=1;align=center;resizeLast=1;fontFamily=Fira Code;fillColor=#D5E8D4;strokeColor=#000000;" parent="1" vertex="1">
          <mxGeometry x="-2375.14" y="-2070" width="200" height="220" as="geometry" />
        </mxCell>
        <mxCell id="8DQ1GMw1Qk0WIiFYgqin-1841" value="" style="shape=partialRectangle;collapsible=0;dropTarget=0;pointerEvents=0;fillColor=none;points=[[0,0.5],[1,0.5]];portConstraint=eastwest;top=0;left=0;right=0;bottom=0;fontFamily=Fira Code;strokeColor=#000000;" parent="8DQ1GMw1Qk0WIiFYgqin-1840" vertex="1">
          <mxGeometry y="30" width="200" height="30" as="geometry" />
        </mxCell>
        <mxCell id="8DQ1GMw1Qk0WIiFYgqin-1842" value="" style="shape=partialRectangle;overflow=hidden;connectable=0;fillColor=none;top=0;left=0;bottom=0;right=0;fontFamily=Fira Code;strokeColor=#000000;" parent="8DQ1GMw1Qk0WIiFYgqin-1841" vertex="1">
          <mxGeometry width="30" height="30" as="geometry" />
        </mxCell>
        <mxCell id="8DQ1GMw1Qk0WIiFYgqin-1843" value="id bigint " style="shape=partialRectangle;overflow=hidden;connectable=0;fillColor=none;top=0;left=0;bottom=0;right=0;align=left;spacingLeft=6;fontFamily=Fira Code;strokeColor=#000000;" parent="8DQ1GMw1Qk0WIiFYgqin-1841" vertex="1">
          <mxGeometry x="30" width="170" height="30" as="geometry" />
        </mxCell>
        <mxCell id="8DQ1GMw1Qk0WIiFYgqin-1844" value="" style="shape=partialRectangle;collapsible=0;dropTarget=0;pointerEvents=0;fillColor=none;points=[[0,0.5],[1,0.5]];portConstraint=eastwest;top=0;left=0;right=0;bottom=0;fontFamily=Fira Code;strokeColor=#000000;" parent="8DQ1GMw1Qk0WIiFYgqin-1840" vertex="1">
          <mxGeometry y="60" width="200" height="30" as="geometry" />
        </mxCell>
        <mxCell id="8DQ1GMw1Qk0WIiFYgqin-1845" value="" style="shape=partialRectangle;overflow=hidden;connectable=0;fillColor=none;top=0;left=0;bottom=0;right=0;fontFamily=Fira Code;strokeColor=#000000;" parent="8DQ1GMw1Qk0WIiFYgqin-1844" vertex="1">
          <mxGeometry width="30" height="30" as="geometry" />
        </mxCell>
        <mxCell id="8DQ1GMw1Qk0WIiFYgqin-1846" value="name character varying(255) " style="shape=partialRectangle;overflow=hidden;connectable=0;fillColor=none;top=0;left=0;bottom=0;right=0;align=left;spacingLeft=6;fontFamily=Fira Code;strokeColor=#000000;" parent="8DQ1GMw1Qk0WIiFYgqin-1844" vertex="1">
          <mxGeometry x="30" width="170" height="30" as="geometry" />
        </mxCell>
        <mxCell id="8DQ1GMw1Qk0WIiFYgqin-1847" value="" style="shape=partialRectangle;collapsible=0;dropTarget=0;pointerEvents=0;fillColor=none;points=[[0,0.5],[1,0.5]];portConstraint=eastwest;top=0;left=0;right=0;bottom=0;fontFamily=Fira Code;strokeColor=#000000;" parent="8DQ1GMw1Qk0WIiFYgqin-1840" vertex="1">
          <mxGeometry y="90" width="200" height="30" as="geometry" />
        </mxCell>
        <mxCell id="8DQ1GMw1Qk0WIiFYgqin-1848" value="" style="shape=partialRectangle;overflow=hidden;connectable=0;fillColor=none;top=0;left=0;bottom=0;right=0;fontFamily=Fira Code;strokeColor=#000000;" parent="8DQ1GMw1Qk0WIiFYgqin-1847" vertex="1">
          <mxGeometry width="30" height="30" as="geometry" />
        </mxCell>
        <mxCell id="8DQ1GMw1Qk0WIiFYgqin-1849" value="start_date date" style="shape=partialRectangle;overflow=hidden;connectable=0;fillColor=none;top=0;left=0;bottom=0;right=0;align=left;spacingLeft=6;fontFamily=Fira Code;strokeColor=#000000;" parent="8DQ1GMw1Qk0WIiFYgqin-1847" vertex="1">
          <mxGeometry x="30" width="170" height="30" as="geometry" />
        </mxCell>
        <mxCell id="8DQ1GMw1Qk0WIiFYgqin-1850" value="" style="shape=partialRectangle;collapsible=0;dropTarget=0;pointerEvents=0;fillColor=none;points=[[0,0.5],[1,0.5]];portConstraint=eastwest;top=0;left=0;right=0;bottom=0;fontFamily=Fira Code;strokeColor=#000000;" parent="8DQ1GMw1Qk0WIiFYgqin-1840" vertex="1">
          <mxGeometry y="120" width="200" height="30" as="geometry" />
        </mxCell>
        <mxCell id="8DQ1GMw1Qk0WIiFYgqin-1851" value="" style="shape=partialRectangle;overflow=hidden;connectable=0;fillColor=none;top=0;left=0;bottom=0;right=0;fontFamily=Fira Code;strokeColor=#000000;" parent="8DQ1GMw1Qk0WIiFYgqin-1850" vertex="1">
          <mxGeometry width="30" height="30" as="geometry" />
        </mxCell>
        <mxCell id="8DQ1GMw1Qk0WIiFYgqin-1852" value="end_date date" style="shape=partialRectangle;overflow=hidden;connectable=0;fillColor=none;top=0;left=0;bottom=0;right=0;align=left;spacingLeft=6;fontFamily=Fira Code;strokeColor=#000000;" parent="8DQ1GMw1Qk0WIiFYgqin-1850" vertex="1">
          <mxGeometry x="30" width="170" height="30" as="geometry" />
        </mxCell>
        <mxCell id="8DQ1GMw1Qk0WIiFYgqin-1853" value="" style="shape=partialRectangle;collapsible=0;dropTarget=0;pointerEvents=0;fillColor=none;points=[[0,0.5],[1,0.5]];portConstraint=eastwest;top=0;left=0;right=0;bottom=0;fontFamily=Fira Code;strokeColor=#000000;" parent="8DQ1GMw1Qk0WIiFYgqin-1840" vertex="1">
          <mxGeometry y="150" width="200" height="30" as="geometry" />
        </mxCell>
        <mxCell id="8DQ1GMw1Qk0WIiFYgqin-1854" value="" style="shape=partialRectangle;overflow=hidden;connectable=0;fillColor=none;top=0;left=0;bottom=0;right=0;fontFamily=Fira Code;strokeColor=#000000;" parent="8DQ1GMw1Qk0WIiFYgqin-1853" vertex="1">
          <mxGeometry width="30" height="30" as="geometry" />
        </mxCell>
        <mxCell id="8DQ1GMw1Qk0WIiFYgqin-1855" value="description text " style="shape=partialRectangle;overflow=hidden;connectable=0;fillColor=none;top=0;left=0;bottom=0;right=0;align=left;spacingLeft=6;fontFamily=Fira Code;strokeColor=#000000;" parent="8DQ1GMw1Qk0WIiFYgqin-1853" vertex="1">
          <mxGeometry x="30" width="170" height="30" as="geometry" />
        </mxCell>
        <mxCell id="8DQ1GMw1Qk0WIiFYgqin-1856" value="" style="shape=partialRectangle;collapsible=0;dropTarget=0;pointerEvents=0;fillColor=none;points=[[0,0.5],[1,0.5]];portConstraint=eastwest;top=0;left=0;right=0;bottom=0;fontFamily=Fira Code;strokeColor=#000000;" parent="8DQ1GMw1Qk0WIiFYgqin-1840" vertex="1">
          <mxGeometry y="180" width="200" height="30" as="geometry" />
        </mxCell>
        <mxCell id="8DQ1GMw1Qk0WIiFYgqin-1857" value="" style="shape=partialRectangle;overflow=hidden;connectable=0;fillColor=none;top=0;left=0;bottom=0;right=0;fontFamily=Fira Code;strokeColor=#000000;" parent="8DQ1GMw1Qk0WIiFYgqin-1856" vertex="1">
          <mxGeometry width="30" height="30" as="geometry" />
        </mxCell>
        <mxCell id="8DQ1GMw1Qk0WIiFYgqin-1858" value="design text " style="shape=partialRectangle;overflow=hidden;connectable=0;fillColor=none;top=0;left=0;bottom=0;right=0;align=left;spacingLeft=6;fontFamily=Fira Code;strokeColor=#000000;" parent="8DQ1GMw1Qk0WIiFYgqin-1856" vertex="1">
          <mxGeometry x="30" width="170" height="30" as="geometry" />
        </mxCell>
        <mxCell id="8DQ1GMw1Qk0WIiFYgqin-1879" value="formats" style="shape=table;startSize=30;container=1;collapsible=1;childLayout=tableLayout;fixedRows=1;rowLines=0;fontStyle=1;align=center;resizeLast=1;fontFamily=Fira Code;fillColor=#ffe6cc;strokeColor=#000000;" parent="1" vertex="1">
          <mxGeometry x="-3435.14" y="-2550" width="280" height="220" as="geometry" />
        </mxCell>
        <mxCell id="8DQ1GMw1Qk0WIiFYgqin-1880" value="" style="shape=partialRectangle;collapsible=0;dropTarget=0;pointerEvents=0;fillColor=none;points=[[0,0.5],[1,0.5]];portConstraint=eastwest;top=0;left=0;right=0;bottom=0;fontFamily=Fira Code;strokeColor=#000000;" parent="8DQ1GMw1Qk0WIiFYgqin-1879" vertex="1">
          <mxGeometry y="30" width="280" height="30" as="geometry" />
        </mxCell>
        <mxCell id="8DQ1GMw1Qk0WIiFYgqin-1881" value="" style="shape=partialRectangle;overflow=hidden;connectable=0;fillColor=none;top=0;left=0;bottom=0;right=0;fontFamily=Fira Code;strokeColor=#000000;" parent="8DQ1GMw1Qk0WIiFYgqin-1880" vertex="1">
          <mxGeometry width="30" height="30" as="geometry" />
        </mxCell>
        <mxCell id="8DQ1GMw1Qk0WIiFYgqin-1882" value="id bigint " style="shape=partialRectangle;overflow=hidden;connectable=0;fillColor=none;top=0;left=0;bottom=0;right=0;align=left;spacingLeft=6;fontFamily=Fira Code;strokeColor=#000000;" parent="8DQ1GMw1Qk0WIiFYgqin-1880" vertex="1">
          <mxGeometry x="30" width="250" height="30" as="geometry" />
        </mxCell>
        <mxCell id="8DQ1GMw1Qk0WIiFYgqin-1883" value="" style="shape=partialRectangle;collapsible=0;dropTarget=0;pointerEvents=0;fillColor=none;points=[[0,0.5],[1,0.5]];portConstraint=eastwest;top=0;left=0;right=0;bottom=0;fontFamily=Fira Code;strokeColor=#000000;" parent="8DQ1GMw1Qk0WIiFYgqin-1879" vertex="1">
          <mxGeometry y="60" width="280" height="30" as="geometry" />
        </mxCell>
        <mxCell id="8DQ1GMw1Qk0WIiFYgqin-1884" value="" style="shape=partialRectangle;overflow=hidden;connectable=0;fillColor=none;top=0;left=0;bottom=0;right=0;fontFamily=Fira Code;strokeColor=#000000;" parent="8DQ1GMw1Qk0WIiFYgqin-1883" vertex="1">
          <mxGeometry width="30" height="30" as="geometry" />
        </mxCell>
        <mxCell id="8DQ1GMw1Qk0WIiFYgqin-1885" value="notes text " style="shape=partialRectangle;overflow=hidden;connectable=0;fillColor=none;top=0;left=0;bottom=0;right=0;align=left;spacingLeft=6;fontFamily=Fira Code;strokeColor=#000000;" parent="8DQ1GMw1Qk0WIiFYgqin-1883" vertex="1">
          <mxGeometry x="30" width="250" height="30" as="geometry" />
        </mxCell>
        <mxCell id="8DQ1GMw1Qk0WIiFYgqin-1886" value="" style="shape=partialRectangle;collapsible=0;dropTarget=0;pointerEvents=0;fillColor=none;points=[[0,0.5],[1,0.5]];portConstraint=eastwest;top=0;left=0;right=0;bottom=0;fontFamily=Fira Code;strokeColor=#000000;" parent="8DQ1GMw1Qk0WIiFYgqin-1879" vertex="1">
          <mxGeometry y="90" width="280" height="30" as="geometry" />
        </mxCell>
        <mxCell id="8DQ1GMw1Qk0WIiFYgqin-1887" value="" style="shape=partialRectangle;overflow=hidden;connectable=0;fillColor=none;top=0;left=0;bottom=0;right=0;fontFamily=Fira Code;strokeColor=#000000;" parent="8DQ1GMw1Qk0WIiFYgqin-1886" vertex="1">
          <mxGeometry width="30" height="30" as="geometry" />
        </mxCell>
        <mxCell id="8DQ1GMw1Qk0WIiFYgqin-1888" value="name character varying(255) " style="shape=partialRectangle;overflow=hidden;connectable=0;fillColor=none;top=0;left=0;bottom=0;right=0;align=left;spacingLeft=6;fontFamily=Fira Code;strokeColor=#000000;" parent="8DQ1GMw1Qk0WIiFYgqin-1886" vertex="1">
          <mxGeometry x="30" width="250" height="30" as="geometry" />
        </mxCell>
        <mxCell id="8DQ1GMw1Qk0WIiFYgqin-1889" value="" style="shape=partialRectangle;collapsible=0;dropTarget=0;pointerEvents=0;fillColor=none;points=[[0,0.5],[1,0.5]];portConstraint=eastwest;top=0;left=0;right=0;bottom=0;fontFamily=Fira Code;strokeColor=#000000;" parent="8DQ1GMw1Qk0WIiFYgqin-1879" vertex="1">
          <mxGeometry y="120" width="280" height="30" as="geometry" />
        </mxCell>
        <mxCell id="8DQ1GMw1Qk0WIiFYgqin-1890" value="" style="shape=partialRectangle;overflow=hidden;connectable=0;fillColor=none;top=0;left=0;bottom=0;right=0;fontFamily=Fira Code;strokeColor=#000000;" parent="8DQ1GMw1Qk0WIiFYgqin-1889" vertex="1">
          <mxGeometry width="30" height="30" as="geometry" />
        </mxCell>
        <mxCell id="8DQ1GMw1Qk0WIiFYgqin-1891" value="header character varying(255) " style="shape=partialRectangle;overflow=hidden;connectable=0;fillColor=none;top=0;left=0;bottom=0;right=0;align=left;spacingLeft=6;fontFamily=Fira Code;strokeColor=#000000;" parent="8DQ1GMw1Qk0WIiFYgqin-1889" vertex="1">
          <mxGeometry x="30" width="250" height="30" as="geometry" />
        </mxCell>
        <mxCell id="8DQ1GMw1Qk0WIiFYgqin-1892" value="" style="shape=partialRectangle;collapsible=0;dropTarget=0;pointerEvents=0;fillColor=none;points=[[0,0.5],[1,0.5]];portConstraint=eastwest;top=0;left=0;right=0;bottom=0;fontFamily=Fira Code;strokeColor=#000000;" parent="8DQ1GMw1Qk0WIiFYgqin-1879" vertex="1">
          <mxGeometry y="150" width="280" height="30" as="geometry" />
        </mxCell>
        <mxCell id="8DQ1GMw1Qk0WIiFYgqin-1893" value="" style="shape=partialRectangle;overflow=hidden;connectable=0;fillColor=none;top=0;left=0;bottom=0;right=0;fontFamily=Fira Code;strokeColor=#000000;" parent="8DQ1GMw1Qk0WIiFYgqin-1892" vertex="1">
          <mxGeometry width="30" height="30" as="geometry" />
        </mxCell>
        <mxCell id="8DQ1GMw1Qk0WIiFYgqin-1894" value="skip character varying(255) " style="shape=partialRectangle;overflow=hidden;connectable=0;fillColor=none;top=0;left=0;bottom=0;right=0;align=left;spacingLeft=6;fontFamily=Fira Code;strokeColor=#000000;" parent="8DQ1GMw1Qk0WIiFYgqin-1892" vertex="1">
          <mxGeometry x="30" width="250" height="30" as="geometry" />
        </mxCell>
        <mxCell id="8DQ1GMw1Qk0WIiFYgqin-1895" value="" style="shape=partialRectangle;collapsible=0;dropTarget=0;pointerEvents=0;fillColor=none;points=[[0,0.5],[1,0.5]];portConstraint=eastwest;top=0;left=0;right=0;bottom=0;fontFamily=Fira Code;strokeColor=#000000;" parent="8DQ1GMw1Qk0WIiFYgqin-1879" vertex="1">
          <mxGeometry y="180" width="280" height="30" as="geometry" />
        </mxCell>
        <mxCell id="8DQ1GMw1Qk0WIiFYgqin-1896" value="" style="shape=partialRectangle;overflow=hidden;connectable=0;fillColor=none;top=0;left=0;bottom=0;right=0;fontFamily=Fira Code;strokeColor=#000000;" parent="8DQ1GMw1Qk0WIiFYgqin-1895" vertex="1">
          <mxGeometry width="30" height="30" as="geometry" />
        </mxCell>
        <mxCell id="8DQ1GMw1Qk0WIiFYgqin-1897" value="mimetype_id bigint" style="shape=partialRectangle;overflow=hidden;connectable=0;fillColor=none;top=0;left=0;bottom=0;right=0;align=left;spacingLeft=6;fontFamily=Fira Code;strokeColor=#000000;" parent="8DQ1GMw1Qk0WIiFYgqin-1895" vertex="1">
          <mxGeometry x="30" width="250" height="30" as="geometry" />
        </mxCell>
        <mxCell id="8DQ1GMw1Qk0WIiFYgqin-1898" value="formats_variables" style="shape=table;startSize=30;container=1;collapsible=1;childLayout=tableLayout;fixedRows=1;rowLines=0;fontStyle=1;align=center;resizeLast=1;fontFamily=Fira Code;fillColor=#ffe6cc;strokeColor=#000000;" parent="1" vertex="1">
          <mxGeometry x="-3775.14" y="-2550" width="305.1399999999999" height="250" as="geometry" />
        </mxCell>
        <mxCell id="8DQ1GMw1Qk0WIiFYgqin-1899" value="" style="shape=partialRectangle;collapsible=0;dropTarget=0;pointerEvents=0;fillColor=none;points=[[0,0.5],[1,0.5]];portConstraint=eastwest;top=0;left=0;right=0;bottom=0;fontFamily=Fira Code;strokeColor=#000000;" parent="8DQ1GMw1Qk0WIiFYgqin-1898" vertex="1">
          <mxGeometry y="30" width="305.1399999999999" height="30" as="geometry" />
        </mxCell>
        <mxCell id="8DQ1GMw1Qk0WIiFYgqin-1900" value="" style="shape=partialRectangle;overflow=hidden;connectable=0;fillColor=none;top=0;left=0;bottom=0;right=0;fontFamily=Fira Code;strokeColor=#000000;" parent="8DQ1GMw1Qk0WIiFYgqin-1899" vertex="1">
          <mxGeometry width="30" height="30" as="geometry" />
        </mxCell>
        <mxCell id="8DQ1GMw1Qk0WIiFYgqin-1901" value="id bigint " style="shape=partialRectangle;overflow=hidden;connectable=0;fillColor=none;top=0;left=0;bottom=0;right=0;align=left;spacingLeft=6;fontFamily=Fira Code;strokeColor=#000000;" parent="8DQ1GMw1Qk0WIiFYgqin-1899" vertex="1">
          <mxGeometry x="30" width="275.1399999999999" height="30" as="geometry" />
        </mxCell>
        <mxCell id="8DQ1GMw1Qk0WIiFYgqin-1902" value="" style="shape=partialRectangle;collapsible=0;dropTarget=0;pointerEvents=0;fillColor=none;points=[[0,0.5],[1,0.5]];portConstraint=eastwest;top=0;left=0;right=0;bottom=0;fontFamily=Fira Code;strokeColor=#000000;" parent="8DQ1GMw1Qk0WIiFYgqin-1898" vertex="1">
          <mxGeometry y="60" width="305.1399999999999" height="30" as="geometry" />
        </mxCell>
        <mxCell id="8DQ1GMw1Qk0WIiFYgqin-1903" value="" style="shape=partialRectangle;overflow=hidden;connectable=0;fillColor=none;top=0;left=0;bottom=0;right=0;fontFamily=Fira Code;strokeColor=#000000;" parent="8DQ1GMw1Qk0WIiFYgqin-1902" vertex="1">
          <mxGeometry width="30" height="30" as="geometry" />
        </mxCell>
        <mxCell id="8DQ1GMw1Qk0WIiFYgqin-1904" value="format_id bigint " style="shape=partialRectangle;overflow=hidden;connectable=0;fillColor=none;top=0;left=0;bottom=0;right=0;align=left;spacingLeft=6;fontFamily=Fira Code;strokeColor=#000000;" parent="8DQ1GMw1Qk0WIiFYgqin-1902" vertex="1">
          <mxGeometry x="30" width="275.1399999999999" height="30" as="geometry" />
        </mxCell>
        <mxCell id="8DQ1GMw1Qk0WIiFYgqin-1905" value="" style="shape=partialRectangle;collapsible=0;dropTarget=0;pointerEvents=0;fillColor=none;points=[[0,0.5],[1,0.5]];portConstraint=eastwest;top=0;left=0;right=0;bottom=0;fontFamily=Fira Code;strokeColor=#000000;" parent="8DQ1GMw1Qk0WIiFYgqin-1898" vertex="1">
          <mxGeometry y="90" width="305.1399999999999" height="30" as="geometry" />
        </mxCell>
        <mxCell id="8DQ1GMw1Qk0WIiFYgqin-1906" value="" style="shape=partialRectangle;overflow=hidden;connectable=0;fillColor=none;top=0;left=0;bottom=0;right=0;fontFamily=Fira Code;strokeColor=#000000;" parent="8DQ1GMw1Qk0WIiFYgqin-1905" vertex="1">
          <mxGeometry width="30" height="30" as="geometry" />
        </mxCell>
        <mxCell id="8DQ1GMw1Qk0WIiFYgqin-1907" value="variable_id bigint " style="shape=partialRectangle;overflow=hidden;connectable=0;fillColor=none;top=0;left=0;bottom=0;right=0;align=left;spacingLeft=6;fontFamily=Fira Code;strokeColor=#000000;" parent="8DQ1GMw1Qk0WIiFYgqin-1905" vertex="1">
          <mxGeometry x="30" width="275.1399999999999" height="30" as="geometry" />
        </mxCell>
        <mxCell id="8DQ1GMw1Qk0WIiFYgqin-1908" value="" style="shape=partialRectangle;collapsible=0;dropTarget=0;pointerEvents=0;fillColor=none;points=[[0,0.5],[1,0.5]];portConstraint=eastwest;top=0;left=0;right=0;bottom=0;fontFamily=Fira Code;strokeColor=#000000;" parent="8DQ1GMw1Qk0WIiFYgqin-1898" vertex="1">
          <mxGeometry y="120" width="305.1399999999999" height="30" as="geometry" />
        </mxCell>
        <mxCell id="8DQ1GMw1Qk0WIiFYgqin-1909" value="" style="shape=partialRectangle;overflow=hidden;connectable=0;fillColor=none;top=0;left=0;bottom=0;right=0;fontFamily=Fira Code;strokeColor=#000000;" parent="8DQ1GMw1Qk0WIiFYgqin-1908" vertex="1">
          <mxGeometry width="30" height="30" as="geometry" />
        </mxCell>
        <mxCell id="8DQ1GMw1Qk0WIiFYgqin-1910" value="name character varying(255) " style="shape=partialRectangle;overflow=hidden;connectable=0;fillColor=none;top=0;left=0;bottom=0;right=0;align=left;spacingLeft=6;fontFamily=Fira Code;strokeColor=#000000;" parent="8DQ1GMw1Qk0WIiFYgqin-1908" vertex="1">
          <mxGeometry x="30" width="275.1399999999999" height="30" as="geometry" />
        </mxCell>
        <mxCell id="8DQ1GMw1Qk0WIiFYgqin-1911" value="" style="shape=partialRectangle;collapsible=0;dropTarget=0;pointerEvents=0;fillColor=none;points=[[0,0.5],[1,0.5]];portConstraint=eastwest;top=0;left=0;right=0;bottom=0;fontFamily=Fira Code;strokeColor=#000000;" parent="8DQ1GMw1Qk0WIiFYgqin-1898" vertex="1">
          <mxGeometry y="150" width="305.1399999999999" height="30" as="geometry" />
        </mxCell>
        <mxCell id="8DQ1GMw1Qk0WIiFYgqin-1912" value="" style="shape=partialRectangle;overflow=hidden;connectable=0;fillColor=none;top=0;left=0;bottom=0;right=0;fontFamily=Fira Code;strokeColor=#000000;" parent="8DQ1GMw1Qk0WIiFYgqin-1911" vertex="1">
          <mxGeometry width="30" height="30" as="geometry" />
        </mxCell>
        <mxCell id="8DQ1GMw1Qk0WIiFYgqin-1913" value="unit character varying(255) " style="shape=partialRectangle;overflow=hidden;connectable=0;fillColor=none;top=0;left=0;bottom=0;right=0;align=left;spacingLeft=6;fontFamily=Fira Code;strokeColor=#000000;" parent="8DQ1GMw1Qk0WIiFYgqin-1911" vertex="1">
          <mxGeometry x="30" width="275.1399999999999" height="30" as="geometry" />
        </mxCell>
        <mxCell id="8DQ1GMw1Qk0WIiFYgqin-1914" value="" style="shape=partialRectangle;collapsible=0;dropTarget=0;pointerEvents=0;fillColor=none;points=[[0,0.5],[1,0.5]];portConstraint=eastwest;top=0;left=0;right=0;bottom=0;fontFamily=Fira Code;strokeColor=#000000;" parent="8DQ1GMw1Qk0WIiFYgqin-1898" vertex="1">
          <mxGeometry y="180" width="305.1399999999999" height="30" as="geometry" />
        </mxCell>
        <mxCell id="8DQ1GMw1Qk0WIiFYgqin-1915" value="" style="shape=partialRectangle;overflow=hidden;connectable=0;fillColor=none;top=0;left=0;bottom=0;right=0;fontFamily=Fira Code;strokeColor=#000000;" parent="8DQ1GMw1Qk0WIiFYgqin-1914" vertex="1">
          <mxGeometry width="30" height="30" as="geometry" />
        </mxCell>
        <mxCell id="8DQ1GMw1Qk0WIiFYgqin-1916" value="storage_type character varying(255) " style="shape=partialRectangle;overflow=hidden;connectable=0;fillColor=none;top=0;left=0;bottom=0;right=0;align=left;spacingLeft=6;fontFamily=Fira Code;strokeColor=#000000;" parent="8DQ1GMw1Qk0WIiFYgqin-1914" vertex="1">
          <mxGeometry x="30" width="275.1399999999999" height="30" as="geometry" />
        </mxCell>
        <mxCell id="8DQ1GMw1Qk0WIiFYgqin-1917" value="" style="shape=partialRectangle;collapsible=0;dropTarget=0;pointerEvents=0;fillColor=none;points=[[0,0.5],[1,0.5]];portConstraint=eastwest;top=0;left=0;right=0;bottom=0;fontFamily=Fira Code;strokeColor=#000000;" parent="8DQ1GMw1Qk0WIiFYgqin-1898" vertex="1">
          <mxGeometry y="210" width="305.1399999999999" height="30" as="geometry" />
        </mxCell>
        <mxCell id="8DQ1GMw1Qk0WIiFYgqin-1918" value="" style="shape=partialRectangle;overflow=hidden;connectable=0;fillColor=none;top=0;left=0;bottom=0;right=0;fontFamily=Fira Code;strokeColor=#000000;" parent="8DQ1GMw1Qk0WIiFYgqin-1917" vertex="1">
          <mxGeometry width="30" height="30" as="geometry" />
        </mxCell>
        <mxCell id="8DQ1GMw1Qk0WIiFYgqin-1919" value="column_number integer" style="shape=partialRectangle;overflow=hidden;connectable=0;fillColor=none;top=0;left=0;bottom=0;right=0;align=left;spacingLeft=6;fontFamily=Fira Code;strokeColor=#000000;" parent="8DQ1GMw1Qk0WIiFYgqin-1917" vertex="1">
          <mxGeometry x="30" width="275.1399999999999" height="30" as="geometry" />
        </mxCell>
        <mxCell id="8DQ1GMw1Qk0WIiFYgqin-1920" value="inputs" style="shape=table;startSize=30;container=1;collapsible=1;childLayout=tableLayout;fixedRows=1;rowLines=0;fontStyle=1;align=center;resizeLast=1;fontFamily=Fira Code;fillColor=#fff2cc;strokeColor=#000000;" parent="1" vertex="1">
          <mxGeometry x="-3075.14" y="-2550" width="270" height="280" as="geometry" />
        </mxCell>
        <mxCell id="8DQ1GMw1Qk0WIiFYgqin-1921" value="" style="shape=partialRectangle;collapsible=0;dropTarget=0;pointerEvents=0;fillColor=none;points=[[0,0.5],[1,0.5]];portConstraint=eastwest;top=0;left=0;right=0;bottom=0;fontFamily=Fira Code;strokeColor=#000000;" parent="8DQ1GMw1Qk0WIiFYgqin-1920" vertex="1">
          <mxGeometry y="30" width="270" height="30" as="geometry" />
        </mxCell>
        <mxCell id="8DQ1GMw1Qk0WIiFYgqin-1922" value="" style="shape=partialRectangle;overflow=hidden;connectable=0;fillColor=none;top=0;left=0;bottom=0;right=0;fontFamily=Fira Code;strokeColor=#000000;" parent="8DQ1GMw1Qk0WIiFYgqin-1921" vertex="1">
          <mxGeometry width="30" height="30" as="geometry" />
        </mxCell>
        <mxCell id="8DQ1GMw1Qk0WIiFYgqin-1923" value="id bigint " style="shape=partialRectangle;overflow=hidden;connectable=0;fillColor=none;top=0;left=0;bottom=0;right=0;align=left;spacingLeft=6;fontFamily=Fira Code;strokeColor=#000000;" parent="8DQ1GMw1Qk0WIiFYgqin-1921" vertex="1">
          <mxGeometry x="30" width="240" height="30" as="geometry" />
        </mxCell>
        <mxCell id="8DQ1GMw1Qk0WIiFYgqin-1948" value="" style="shape=partialRectangle;collapsible=0;dropTarget=0;pointerEvents=0;fillColor=none;points=[[0,0.5],[1,0.5]];portConstraint=eastwest;top=0;left=0;right=0;bottom=0;fontFamily=Fira Code;strokeColor=#000000;" parent="8DQ1GMw1Qk0WIiFYgqin-1920" vertex="1">
          <mxGeometry y="60" width="270" height="30" as="geometry" />
        </mxCell>
        <mxCell id="8DQ1GMw1Qk0WIiFYgqin-1949" value="" style="shape=partialRectangle;overflow=hidden;connectable=0;fillColor=none;top=0;left=0;bottom=0;right=0;fontFamily=Fira Code;strokeColor=#000000;" parent="8DQ1GMw1Qk0WIiFYgqin-1948" vertex="1">
          <mxGeometry width="30" height="30" as="geometry" />
        </mxCell>
        <mxCell id="8DQ1GMw1Qk0WIiFYgqin-1950" value="format_id bigint" style="shape=partialRectangle;overflow=hidden;connectable=0;fillColor=none;top=0;left=0;bottom=0;right=0;align=left;spacingLeft=6;fontFamily=Fira Code;strokeColor=#000000;" parent="8DQ1GMw1Qk0WIiFYgqin-1948" vertex="1">
          <mxGeometry x="30" width="240" height="30" as="geometry" />
        </mxCell>
        <mxCell id="8DQ1GMw1Qk0WIiFYgqin-1930" value="" style="shape=partialRectangle;collapsible=0;dropTarget=0;pointerEvents=0;fillColor=none;points=[[0,0.5],[1,0.5]];portConstraint=eastwest;top=0;left=0;right=0;bottom=0;fontFamily=Fira Code;strokeColor=#000000;" parent="8DQ1GMw1Qk0WIiFYgqin-1920" vertex="1">
          <mxGeometry y="90" width="270" height="30" as="geometry" />
        </mxCell>
        <mxCell id="8DQ1GMw1Qk0WIiFYgqin-1931" value="" style="shape=partialRectangle;overflow=hidden;connectable=0;fillColor=none;top=0;left=0;bottom=0;right=0;fontFamily=Fira Code;strokeColor=#000000;" parent="8DQ1GMw1Qk0WIiFYgqin-1930" vertex="1">
          <mxGeometry width="30" height="30" as="geometry" />
        </mxCell>
        <mxCell id="8DQ1GMw1Qk0WIiFYgqin-1932" value="start_date timestamp(6) without time zone" style="shape=partialRectangle;overflow=hidden;connectable=0;fillColor=none;top=0;left=0;bottom=0;right=0;align=left;spacingLeft=6;fontFamily=Fira Code;strokeColor=#000000;" parent="8DQ1GMw1Qk0WIiFYgqin-1930" vertex="1">
          <mxGeometry x="30" width="240" height="30" as="geometry" />
        </mxCell>
        <mxCell id="8DQ1GMw1Qk0WIiFYgqin-1933" value="" style="shape=partialRectangle;collapsible=0;dropTarget=0;pointerEvents=0;fillColor=none;points=[[0,0.5],[1,0.5]];portConstraint=eastwest;top=0;left=0;right=0;bottom=0;fontFamily=Fira Code;strokeColor=#000000;" parent="8DQ1GMw1Qk0WIiFYgqin-1920" vertex="1">
          <mxGeometry y="120" width="270" height="30" as="geometry" />
        </mxCell>
        <mxCell id="8DQ1GMw1Qk0WIiFYgqin-1934" value="" style="shape=partialRectangle;overflow=hidden;connectable=0;fillColor=none;top=0;left=0;bottom=0;right=0;fontFamily=Fira Code;strokeColor=#000000;" parent="8DQ1GMw1Qk0WIiFYgqin-1933" vertex="1">
          <mxGeometry width="30" height="30" as="geometry" />
        </mxCell>
        <mxCell id="8DQ1GMw1Qk0WIiFYgqin-1935" value="end_date timestamp(6) without time zone" style="shape=partialRectangle;overflow=hidden;connectable=0;fillColor=none;top=0;left=0;bottom=0;right=0;align=left;spacingLeft=6;fontFamily=Fira Code;strokeColor=#000000;" parent="8DQ1GMw1Qk0WIiFYgqin-1933" vertex="1">
          <mxGeometry x="30" width="240" height="30" as="geometry" />
        </mxCell>
        <mxCell id="8DQ1GMw1Qk0WIiFYgqin-1936" value="" style="shape=partialRectangle;collapsible=0;dropTarget=0;pointerEvents=0;fillColor=none;points=[[0,0.5],[1,0.5]];portConstraint=eastwest;top=0;left=0;right=0;bottom=0;fontFamily=Fira Code;strokeColor=#000000;" parent="8DQ1GMw1Qk0WIiFYgqin-1920" vertex="1">
          <mxGeometry y="150" width="270" height="30" as="geometry" />
        </mxCell>
        <mxCell id="8DQ1GMw1Qk0WIiFYgqin-1937" value="" style="shape=partialRectangle;overflow=hidden;connectable=0;fillColor=none;top=0;left=0;bottom=0;right=0;fontFamily=Fira Code;strokeColor=#000000;" parent="8DQ1GMw1Qk0WIiFYgqin-1936" vertex="1">
          <mxGeometry width="30" height="30" as="geometry" />
        </mxCell>
        <mxCell id="8DQ1GMw1Qk0WIiFYgqin-1938" value="name character varying(255) " style="shape=partialRectangle;overflow=hidden;connectable=0;fillColor=none;top=0;left=0;bottom=0;right=0;align=left;spacingLeft=6;fontFamily=Fira Code;strokeColor=#000000;" parent="8DQ1GMw1Qk0WIiFYgqin-1936" vertex="1">
          <mxGeometry x="30" width="240" height="30" as="geometry" />
        </mxCell>
        <mxCell id="8DQ1GMw1Qk0WIiFYgqin-1939" value="" style="shape=partialRectangle;collapsible=0;dropTarget=0;pointerEvents=0;fillColor=none;points=[[0,0.5],[1,0.5]];portConstraint=eastwest;top=0;left=0;right=0;bottom=0;fontFamily=Fira Code;strokeColor=#000000;" parent="8DQ1GMw1Qk0WIiFYgqin-1920" vertex="1">
          <mxGeometry y="180" width="270" height="30" as="geometry" />
        </mxCell>
        <mxCell id="8DQ1GMw1Qk0WIiFYgqin-1940" value="" style="shape=partialRectangle;overflow=hidden;connectable=0;fillColor=none;top=0;left=0;bottom=0;right=0;fontFamily=Fira Code;strokeColor=#000000;" parent="8DQ1GMw1Qk0WIiFYgqin-1939" vertex="1">
          <mxGeometry width="30" height="30" as="geometry" />
        </mxCell>
        <mxCell id="8DQ1GMw1Qk0WIiFYgqin-1941" value="parent_id bigint" style="shape=partialRectangle;overflow=hidden;connectable=0;fillColor=none;top=0;left=0;bottom=0;right=0;align=left;spacingLeft=6;fontFamily=Fira Code;strokeColor=#000000;" parent="8DQ1GMw1Qk0WIiFYgqin-1939" vertex="1">
          <mxGeometry x="30" width="240" height="30" as="geometry" />
        </mxCell>
        <mxCell id="8DQ1GMw1Qk0WIiFYgqin-1945" value="" style="shape=partialRectangle;collapsible=0;dropTarget=0;pointerEvents=0;fillColor=none;points=[[0,0.5],[1,0.5]];portConstraint=eastwest;top=0;left=0;right=0;bottom=0;fontFamily=Fira Code;strokeColor=#000000;" parent="8DQ1GMw1Qk0WIiFYgqin-1920" vertex="1">
          <mxGeometry y="210" width="270" height="30" as="geometry" />
        </mxCell>
        <mxCell id="8DQ1GMw1Qk0WIiFYgqin-1946" value="" style="shape=partialRectangle;overflow=hidden;connectable=0;fillColor=none;top=0;left=0;bottom=0;right=0;fontFamily=Fira Code;strokeColor=#000000;" parent="8DQ1GMw1Qk0WIiFYgqin-1945" vertex="1">
          <mxGeometry width="30" height="30" as="geometry" />
        </mxCell>
        <mxCell id="8DQ1GMw1Qk0WIiFYgqin-1947" value="&quot;raw&quot; boolean" style="shape=partialRectangle;overflow=hidden;connectable=0;fillColor=none;top=0;left=0;bottom=0;right=0;align=left;spacingLeft=6;fontFamily=Fira Code;strokeColor=#000000;" parent="8DQ1GMw1Qk0WIiFYgqin-1945" vertex="1">
          <mxGeometry x="30" width="240" height="30" as="geometry" />
        </mxCell>
        <mxCell id="8DQ1GMw1Qk0WIiFYgqin-1924" value="" style="shape=partialRectangle;collapsible=0;dropTarget=0;pointerEvents=0;fillColor=none;points=[[0,0.5],[1,0.5]];portConstraint=eastwest;top=0;left=0;right=0;bottom=0;fontFamily=Fira Code;strokeColor=#000000;" parent="8DQ1GMw1Qk0WIiFYgqin-1920" vertex="1">
          <mxGeometry y="240" width="270" height="30" as="geometry" />
        </mxCell>
        <mxCell id="8DQ1GMw1Qk0WIiFYgqin-1925" value="" style="shape=partialRectangle;overflow=hidden;connectable=0;fillColor=none;top=0;left=0;bottom=0;right=0;fontFamily=Fira Code;strokeColor=#000000;" parent="8DQ1GMw1Qk0WIiFYgqin-1924" vertex="1">
          <mxGeometry width="30" height="30" as="geometry" />
        </mxCell>
        <mxCell id="8DQ1GMw1Qk0WIiFYgqin-1926" value="site_id bigint" style="shape=partialRectangle;overflow=hidden;connectable=0;fillColor=none;top=0;left=0;bottom=0;right=0;align=left;spacingLeft=6;fontFamily=Fira Code;strokeColor=#000000;" parent="8DQ1GMw1Qk0WIiFYgqin-1924" vertex="1">
          <mxGeometry x="30" width="240" height="30" as="geometry" />
        </mxCell>
        <mxCell id="8DQ1GMw1Qk0WIiFYgqin-1961" value="managements" style="shape=table;startSize=30;container=1;collapsible=1;childLayout=tableLayout;fixedRows=1;rowLines=0;fontStyle=1;align=center;resizeLast=1;fontFamily=Fira Code;fillColor=#D5E8D4;strokeColor=#000000;" parent="1" vertex="1">
          <mxGeometry x="-2375.14" y="-1390" width="325.1399999999994" height="280" as="geometry" />
        </mxCell>
        <mxCell id="8DQ1GMw1Qk0WIiFYgqin-1962" value="" style="shape=partialRectangle;collapsible=0;dropTarget=0;pointerEvents=0;fillColor=none;points=[[0,0.5],[1,0.5]];portConstraint=eastwest;top=0;left=0;right=0;bottom=0;fontFamily=Fira Code;strokeColor=#000000;" parent="8DQ1GMw1Qk0WIiFYgqin-1961" vertex="1">
          <mxGeometry y="30" width="325.1399999999994" height="30" as="geometry" />
        </mxCell>
        <mxCell id="8DQ1GMw1Qk0WIiFYgqin-1963" value="" style="shape=partialRectangle;overflow=hidden;connectable=0;fillColor=none;top=0;left=0;bottom=0;right=0;fontFamily=Fira Code;strokeColor=#000000;" parent="8DQ1GMw1Qk0WIiFYgqin-1962" vertex="1">
          <mxGeometry width="30" height="30" as="geometry" />
        </mxCell>
        <mxCell id="8DQ1GMw1Qk0WIiFYgqin-1964" value="id bigint " style="shape=partialRectangle;overflow=hidden;connectable=0;fillColor=none;top=0;left=0;bottom=0;right=0;align=left;spacingLeft=6;fontFamily=Fira Code;strokeColor=#000000;" parent="8DQ1GMw1Qk0WIiFYgqin-1962" vertex="1">
          <mxGeometry x="30" width="295.1399999999994" height="30" as="geometry" />
        </mxCell>
        <mxCell id="8DQ1GMw1Qk0WIiFYgqin-1965" value="" style="shape=partialRectangle;collapsible=0;dropTarget=0;pointerEvents=0;fillColor=none;points=[[0,0.5],[1,0.5]];portConstraint=eastwest;top=0;left=0;right=0;bottom=0;fontFamily=Fira Code;strokeColor=#000000;" parent="8DQ1GMw1Qk0WIiFYgqin-1961" vertex="1">
          <mxGeometry y="60" width="325.1399999999994" height="30" as="geometry" />
        </mxCell>
        <mxCell id="8DQ1GMw1Qk0WIiFYgqin-1966" value="" style="shape=partialRectangle;overflow=hidden;connectable=0;fillColor=none;top=0;left=0;bottom=0;right=0;fontFamily=Fira Code;strokeColor=#000000;" parent="8DQ1GMw1Qk0WIiFYgqin-1965" vertex="1">
          <mxGeometry width="30" height="30" as="geometry" />
        </mxCell>
        <mxCell id="8DQ1GMw1Qk0WIiFYgqin-1967" value="citation_id bigint" style="shape=partialRectangle;overflow=hidden;connectable=0;fillColor=none;top=0;left=0;bottom=0;right=0;align=left;spacingLeft=6;fontFamily=Fira Code;strokeColor=#000000;" parent="8DQ1GMw1Qk0WIiFYgqin-1965" vertex="1">
          <mxGeometry x="30" width="295.1399999999994" height="30" as="geometry" />
        </mxCell>
        <mxCell id="8DQ1GMw1Qk0WIiFYgqin-1968" value="" style="shape=partialRectangle;collapsible=0;dropTarget=0;pointerEvents=0;fillColor=none;points=[[0,0.5],[1,0.5]];portConstraint=eastwest;top=0;left=0;right=0;bottom=0;fontFamily=Fira Code;strokeColor=#000000;" parent="8DQ1GMw1Qk0WIiFYgqin-1961" vertex="1">
          <mxGeometry y="90" width="325.1399999999994" height="30" as="geometry" />
        </mxCell>
        <mxCell id="8DQ1GMw1Qk0WIiFYgqin-1969" value="" style="shape=partialRectangle;overflow=hidden;connectable=0;fillColor=none;top=0;left=0;bottom=0;right=0;fontFamily=Fira Code;strokeColor=#000000;" parent="8DQ1GMw1Qk0WIiFYgqin-1968" vertex="1">
          <mxGeometry width="30" height="30" as="geometry" />
        </mxCell>
        <mxCell id="8DQ1GMw1Qk0WIiFYgqin-1970" value="date date" style="shape=partialRectangle;overflow=hidden;connectable=0;fillColor=none;top=0;left=0;bottom=0;right=0;align=left;spacingLeft=6;fontFamily=Fira Code;strokeColor=#000000;" parent="8DQ1GMw1Qk0WIiFYgqin-1968" vertex="1">
          <mxGeometry x="30" width="295.1399999999994" height="30" as="geometry" />
        </mxCell>
        <mxCell id="8DQ1GMw1Qk0WIiFYgqin-1971" value="" style="shape=partialRectangle;collapsible=0;dropTarget=0;pointerEvents=0;fillColor=none;points=[[0,0.5],[1,0.5]];portConstraint=eastwest;top=0;left=0;right=0;bottom=0;fontFamily=Fira Code;strokeColor=#000000;" parent="8DQ1GMw1Qk0WIiFYgqin-1961" vertex="1">
          <mxGeometry y="120" width="325.1399999999994" height="30" as="geometry" />
        </mxCell>
        <mxCell id="8DQ1GMw1Qk0WIiFYgqin-1972" value="" style="shape=partialRectangle;overflow=hidden;connectable=0;fillColor=none;top=0;left=0;bottom=0;right=0;fontFamily=Fira Code;strokeColor=#000000;" parent="8DQ1GMw1Qk0WIiFYgqin-1971" vertex="1">
          <mxGeometry width="30" height="30" as="geometry" />
        </mxCell>
        <mxCell id="8DQ1GMw1Qk0WIiFYgqin-1973" value="dateloc numeric(4, 2)" style="shape=partialRectangle;overflow=hidden;connectable=0;fillColor=none;top=0;left=0;bottom=0;right=0;align=left;spacingLeft=6;fontFamily=Fira Code;strokeColor=#000000;" parent="8DQ1GMw1Qk0WIiFYgqin-1971" vertex="1">
          <mxGeometry x="30" width="295.1399999999994" height="30" as="geometry" />
        </mxCell>
        <mxCell id="8DQ1GMw1Qk0WIiFYgqin-1974" value="" style="shape=partialRectangle;collapsible=0;dropTarget=0;pointerEvents=0;fillColor=none;points=[[0,0.5],[1,0.5]];portConstraint=eastwest;top=0;left=0;right=0;bottom=0;fontFamily=Fira Code;strokeColor=#000000;" parent="8DQ1GMw1Qk0WIiFYgqin-1961" vertex="1">
          <mxGeometry y="150" width="325.1399999999994" height="30" as="geometry" />
        </mxCell>
        <mxCell id="8DQ1GMw1Qk0WIiFYgqin-1975" value="" style="shape=partialRectangle;overflow=hidden;connectable=0;fillColor=none;top=0;left=0;bottom=0;right=0;fontFamily=Fira Code;strokeColor=#000000;" parent="8DQ1GMw1Qk0WIiFYgqin-1974" vertex="1">
          <mxGeometry width="30" height="30" as="geometry" />
        </mxCell>
        <mxCell id="8DQ1GMw1Qk0WIiFYgqin-1976" value="mgmttype character varying(255) " style="shape=partialRectangle;overflow=hidden;connectable=0;fillColor=none;top=0;left=0;bottom=0;right=0;align=left;spacingLeft=6;fontFamily=Fira Code;strokeColor=#000000;" parent="8DQ1GMw1Qk0WIiFYgqin-1974" vertex="1">
          <mxGeometry x="30" width="295.1399999999994" height="30" as="geometry" />
        </mxCell>
        <mxCell id="8DQ1GMw1Qk0WIiFYgqin-1977" value="" style="shape=partialRectangle;collapsible=0;dropTarget=0;pointerEvents=0;fillColor=none;points=[[0,0.5],[1,0.5]];portConstraint=eastwest;top=0;left=0;right=0;bottom=0;fontFamily=Fira Code;strokeColor=#000000;" parent="8DQ1GMw1Qk0WIiFYgqin-1961" vertex="1">
          <mxGeometry y="180" width="325.1399999999994" height="30" as="geometry" />
        </mxCell>
        <mxCell id="8DQ1GMw1Qk0WIiFYgqin-1978" value="" style="shape=partialRectangle;overflow=hidden;connectable=0;fillColor=none;top=0;left=0;bottom=0;right=0;fontFamily=Fira Code;strokeColor=#000000;" parent="8DQ1GMw1Qk0WIiFYgqin-1977" vertex="1">
          <mxGeometry width="30" height="30" as="geometry" />
        </mxCell>
        <mxCell id="8DQ1GMw1Qk0WIiFYgqin-1979" value="level double precision" style="shape=partialRectangle;overflow=hidden;connectable=0;fillColor=none;top=0;left=0;bottom=0;right=0;align=left;spacingLeft=6;fontFamily=Fira Code;strokeColor=#000000;" parent="8DQ1GMw1Qk0WIiFYgqin-1977" vertex="1">
          <mxGeometry x="30" width="295.1399999999994" height="30" as="geometry" />
        </mxCell>
        <mxCell id="8DQ1GMw1Qk0WIiFYgqin-1980" value="" style="shape=partialRectangle;collapsible=0;dropTarget=0;pointerEvents=0;fillColor=none;points=[[0,0.5],[1,0.5]];portConstraint=eastwest;top=0;left=0;right=0;bottom=0;fontFamily=Fira Code;strokeColor=#000000;" parent="8DQ1GMw1Qk0WIiFYgqin-1961" vertex="1">
          <mxGeometry y="210" width="325.1399999999994" height="30" as="geometry" />
        </mxCell>
        <mxCell id="8DQ1GMw1Qk0WIiFYgqin-1981" value="" style="shape=partialRectangle;overflow=hidden;connectable=0;fillColor=none;top=0;left=0;bottom=0;right=0;fontFamily=Fira Code;strokeColor=#000000;" parent="8DQ1GMw1Qk0WIiFYgqin-1980" vertex="1">
          <mxGeometry width="30" height="30" as="geometry" />
        </mxCell>
        <mxCell id="8DQ1GMw1Qk0WIiFYgqin-1982" value="units character varying(255)" style="shape=partialRectangle;overflow=hidden;connectable=0;fillColor=none;top=0;left=0;bottom=0;right=0;align=left;spacingLeft=6;fontFamily=Fira Code;strokeColor=#000000;" parent="8DQ1GMw1Qk0WIiFYgqin-1980" vertex="1">
          <mxGeometry x="30" width="295.1399999999994" height="30" as="geometry" />
        </mxCell>
        <mxCell id="8DQ1GMw1Qk0WIiFYgqin-1983" value="" style="shape=partialRectangle;collapsible=0;dropTarget=0;pointerEvents=0;fillColor=none;points=[[0,0.5],[1,0.5]];portConstraint=eastwest;top=0;left=0;right=0;bottom=0;fontFamily=Fira Code;strokeColor=#000000;" parent="8DQ1GMw1Qk0WIiFYgqin-1961" vertex="1">
          <mxGeometry y="240" width="325.1399999999994" height="30" as="geometry" />
        </mxCell>
        <mxCell id="8DQ1GMw1Qk0WIiFYgqin-1984" value="" style="shape=partialRectangle;overflow=hidden;connectable=0;fillColor=none;top=0;left=0;bottom=0;right=0;fontFamily=Fira Code;strokeColor=#000000;" parent="8DQ1GMw1Qk0WIiFYgqin-1983" vertex="1">
          <mxGeometry width="30" height="30" as="geometry" />
        </mxCell>
        <mxCell id="8DQ1GMw1Qk0WIiFYgqin-1985" value="notes text " style="shape=partialRectangle;overflow=hidden;connectable=0;fillColor=none;top=0;left=0;bottom=0;right=0;align=left;spacingLeft=6;fontFamily=Fira Code;strokeColor=#000000;" parent="8DQ1GMw1Qk0WIiFYgqin-1983" vertex="1">
          <mxGeometry x="30" width="295.1399999999994" height="30" as="geometry" />
        </mxCell>
        <mxCell id="8DQ1GMw1Qk0WIiFYgqin-2029" value="models" style="shape=table;startSize=30;container=1;collapsible=1;childLayout=tableLayout;fixedRows=1;rowLines=0;fontStyle=1;align=center;resizeLast=1;fontFamily=Fira Code;fillColor=#e1d5e7;strokeColor=#000000;" parent="1" vertex="1">
          <mxGeometry x="-3075.14" y="-2770" width="290" height="190" as="geometry" />
        </mxCell>
        <mxCell id="8DQ1GMw1Qk0WIiFYgqin-2030" value="" style="shape=partialRectangle;collapsible=0;dropTarget=0;pointerEvents=0;fillColor=none;points=[[0,0.5],[1,0.5]];portConstraint=eastwest;top=0;left=0;right=0;bottom=0;fontFamily=Fira Code;strokeColor=#000000;" parent="8DQ1GMw1Qk0WIiFYgqin-2029" vertex="1">
          <mxGeometry y="30" width="290" height="30" as="geometry" />
        </mxCell>
        <mxCell id="8DQ1GMw1Qk0WIiFYgqin-2031" value="" style="shape=partialRectangle;overflow=hidden;connectable=0;fillColor=none;top=0;left=0;bottom=0;right=0;fontFamily=Fira Code;strokeColor=#000000;" parent="8DQ1GMw1Qk0WIiFYgqin-2030" vertex="1">
          <mxGeometry width="30" height="30" as="geometry" />
        </mxCell>
        <mxCell id="8DQ1GMw1Qk0WIiFYgqin-2032" value="id bigint " style="shape=partialRectangle;overflow=hidden;connectable=0;fillColor=none;top=0;left=0;bottom=0;right=0;align=left;spacingLeft=6;fontFamily=Fira Code;strokeColor=#000000;" parent="8DQ1GMw1Qk0WIiFYgqin-2030" vertex="1">
          <mxGeometry x="30" width="260" height="30" as="geometry" />
        </mxCell>
        <mxCell id="8DQ1GMw1Qk0WIiFYgqin-2042" value="" style="shape=partialRectangle;collapsible=0;dropTarget=0;pointerEvents=0;fillColor=none;points=[[0,0.5],[1,0.5]];portConstraint=eastwest;top=0;left=0;right=0;bottom=0;fontFamily=Fira Code;strokeColor=#000000;" parent="8DQ1GMw1Qk0WIiFYgqin-2029" vertex="1">
          <mxGeometry y="60" width="290" height="30" as="geometry" />
        </mxCell>
        <mxCell id="8DQ1GMw1Qk0WIiFYgqin-2043" value="" style="shape=partialRectangle;overflow=hidden;connectable=0;fillColor=none;top=0;left=0;bottom=0;right=0;fontFamily=Fira Code;strokeColor=#000000;" parent="8DQ1GMw1Qk0WIiFYgqin-2042" vertex="1">
          <mxGeometry width="30" height="30" as="geometry" />
        </mxCell>
        <mxCell id="8DQ1GMw1Qk0WIiFYgqin-2044" value="modeltype_id bigint " style="shape=partialRectangle;overflow=hidden;connectable=0;fillColor=none;top=0;left=0;bottom=0;right=0;align=left;spacingLeft=6;fontFamily=Fira Code;strokeColor=#000000;" parent="8DQ1GMw1Qk0WIiFYgqin-2042" vertex="1">
          <mxGeometry x="30" width="260" height="30" as="geometry" />
        </mxCell>
        <mxCell id="8DQ1GMw1Qk0WIiFYgqin-2033" value="" style="shape=partialRectangle;collapsible=0;dropTarget=0;pointerEvents=0;fillColor=none;points=[[0,0.5],[1,0.5]];portConstraint=eastwest;top=0;left=0;right=0;bottom=0;fontFamily=Fira Code;strokeColor=#000000;" parent="8DQ1GMw1Qk0WIiFYgqin-2029" vertex="1">
          <mxGeometry y="90" width="290" height="30" as="geometry" />
        </mxCell>
        <mxCell id="8DQ1GMw1Qk0WIiFYgqin-2034" value="" style="shape=partialRectangle;overflow=hidden;connectable=0;fillColor=none;top=0;left=0;bottom=0;right=0;fontFamily=Fira Code;strokeColor=#000000;" parent="8DQ1GMw1Qk0WIiFYgqin-2033" vertex="1">
          <mxGeometry width="30" height="30" as="geometry" />
        </mxCell>
        <mxCell id="8DQ1GMw1Qk0WIiFYgqin-2035" value="model_name character varying(255) " style="shape=partialRectangle;overflow=hidden;connectable=0;fillColor=none;top=0;left=0;bottom=0;right=0;align=left;spacingLeft=6;fontFamily=Fira Code;strokeColor=#000000;" parent="8DQ1GMw1Qk0WIiFYgqin-2033" vertex="1">
          <mxGeometry x="30" width="260" height="30" as="geometry" />
        </mxCell>
        <mxCell id="8DQ1GMw1Qk0WIiFYgqin-2036" value="" style="shape=partialRectangle;collapsible=0;dropTarget=0;pointerEvents=0;fillColor=none;points=[[0,0.5],[1,0.5]];portConstraint=eastwest;top=0;left=0;right=0;bottom=0;fontFamily=Fira Code;strokeColor=#000000;" parent="8DQ1GMw1Qk0WIiFYgqin-2029" vertex="1">
          <mxGeometry y="120" width="290" height="30" as="geometry" />
        </mxCell>
        <mxCell id="8DQ1GMw1Qk0WIiFYgqin-2037" value="" style="shape=partialRectangle;overflow=hidden;connectable=0;fillColor=none;top=0;left=0;bottom=0;right=0;fontFamily=Fira Code;strokeColor=#000000;" parent="8DQ1GMw1Qk0WIiFYgqin-2036" vertex="1">
          <mxGeometry width="30" height="30" as="geometry" />
        </mxCell>
        <mxCell id="8DQ1GMw1Qk0WIiFYgqin-2038" value="revision character varying(255) " style="shape=partialRectangle;overflow=hidden;connectable=0;fillColor=none;top=0;left=0;bottom=0;right=0;align=left;spacingLeft=6;fontFamily=Fira Code;strokeColor=#000000;" parent="8DQ1GMw1Qk0WIiFYgqin-2036" vertex="1">
          <mxGeometry x="30" width="260" height="30" as="geometry" />
        </mxCell>
        <mxCell id="8DQ1GMw1Qk0WIiFYgqin-2039" value="" style="shape=partialRectangle;collapsible=0;dropTarget=0;pointerEvents=0;fillColor=none;points=[[0,0.5],[1,0.5]];portConstraint=eastwest;top=0;left=0;right=0;bottom=0;fontFamily=Fira Code;strokeColor=#000000;" parent="8DQ1GMw1Qk0WIiFYgqin-2029" vertex="1">
          <mxGeometry y="150" width="290" height="30" as="geometry" />
        </mxCell>
        <mxCell id="8DQ1GMw1Qk0WIiFYgqin-2040" value="" style="shape=partialRectangle;overflow=hidden;connectable=0;fillColor=none;top=0;left=0;bottom=0;right=0;fontFamily=Fira Code;strokeColor=#000000;" parent="8DQ1GMw1Qk0WIiFYgqin-2039" vertex="1">
          <mxGeometry width="30" height="30" as="geometry" />
        </mxCell>
        <mxCell id="8DQ1GMw1Qk0WIiFYgqin-2041" value="parent_id bigint" style="shape=partialRectangle;overflow=hidden;connectable=0;fillColor=none;top=0;left=0;bottom=0;right=0;align=left;spacingLeft=6;fontFamily=Fira Code;strokeColor=#000000;" parent="8DQ1GMw1Qk0WIiFYgqin-2039" vertex="1">
          <mxGeometry x="30" width="260" height="30" as="geometry" />
        </mxCell>
        <mxCell id="8DQ1GMw1Qk0WIiFYgqin-2045" value="pfts" style="shape=table;startSize=30;container=1;collapsible=1;childLayout=tableLayout;fixedRows=1;rowLines=0;fontStyle=1;align=center;resizeLast=1;fontFamily=Fira Code;fillColor=#e1d5e7;strokeColor=#000000;" parent="1" vertex="1">
          <mxGeometry x="-2465.14" y="-3080" width="300" height="220" as="geometry" />
        </mxCell>
        <mxCell id="8DQ1GMw1Qk0WIiFYgqin-2046" value="" style="shape=partialRectangle;collapsible=0;dropTarget=0;pointerEvents=0;fillColor=none;points=[[0,0.5],[1,0.5]];portConstraint=eastwest;top=0;left=0;right=0;bottom=0;fontFamily=Fira Code;strokeColor=#000000;" parent="8DQ1GMw1Qk0WIiFYgqin-2045" vertex="1">
          <mxGeometry y="30" width="300" height="30" as="geometry" />
        </mxCell>
        <mxCell id="8DQ1GMw1Qk0WIiFYgqin-2047" value="" style="shape=partialRectangle;overflow=hidden;connectable=0;fillColor=none;top=0;left=0;bottom=0;right=0;fontFamily=Fira Code;strokeColor=#000000;" parent="8DQ1GMw1Qk0WIiFYgqin-2046" vertex="1">
          <mxGeometry width="30" height="30" as="geometry" />
        </mxCell>
        <mxCell id="8DQ1GMw1Qk0WIiFYgqin-2048" value="id bigint " style="shape=partialRectangle;overflow=hidden;connectable=0;fillColor=none;top=0;left=0;bottom=0;right=0;align=left;spacingLeft=6;fontFamily=Fira Code;strokeColor=#000000;" parent="8DQ1GMw1Qk0WIiFYgqin-2046" vertex="1">
          <mxGeometry x="30" width="270" height="30" as="geometry" />
        </mxCell>
        <mxCell id="8DQ1GMw1Qk0WIiFYgqin-2049" value="" style="shape=partialRectangle;collapsible=0;dropTarget=0;pointerEvents=0;fillColor=none;points=[[0,0.5],[1,0.5]];portConstraint=eastwest;top=0;left=0;right=0;bottom=0;fontFamily=Fira Code;strokeColor=#000000;" parent="8DQ1GMw1Qk0WIiFYgqin-2045" vertex="1">
          <mxGeometry y="60" width="300" height="30" as="geometry" />
        </mxCell>
        <mxCell id="8DQ1GMw1Qk0WIiFYgqin-2050" value="" style="shape=partialRectangle;overflow=hidden;connectable=0;fillColor=none;top=0;left=0;bottom=0;right=0;fontFamily=Fira Code;strokeColor=#000000;" parent="8DQ1GMw1Qk0WIiFYgqin-2049" vertex="1">
          <mxGeometry width="30" height="30" as="geometry" />
        </mxCell>
        <mxCell id="8DQ1GMw1Qk0WIiFYgqin-2051" value="definition text " style="shape=partialRectangle;overflow=hidden;connectable=0;fillColor=none;top=0;left=0;bottom=0;right=0;align=left;spacingLeft=6;fontFamily=Fira Code;strokeColor=#000000;" parent="8DQ1GMw1Qk0WIiFYgqin-2049" vertex="1">
          <mxGeometry x="30" width="270" height="30" as="geometry" />
        </mxCell>
        <mxCell id="8DQ1GMw1Qk0WIiFYgqin-2052" value="" style="shape=partialRectangle;collapsible=0;dropTarget=0;pointerEvents=0;fillColor=none;points=[[0,0.5],[1,0.5]];portConstraint=eastwest;top=0;left=0;right=0;bottom=0;fontFamily=Fira Code;strokeColor=#000000;" parent="8DQ1GMw1Qk0WIiFYgqin-2045" vertex="1">
          <mxGeometry y="90" width="300" height="30" as="geometry" />
        </mxCell>
        <mxCell id="8DQ1GMw1Qk0WIiFYgqin-2053" value="" style="shape=partialRectangle;overflow=hidden;connectable=0;fillColor=none;top=0;left=0;bottom=0;right=0;fontFamily=Fira Code;strokeColor=#000000;" parent="8DQ1GMw1Qk0WIiFYgqin-2052" vertex="1">
          <mxGeometry width="30" height="30" as="geometry" />
        </mxCell>
        <mxCell id="8DQ1GMw1Qk0WIiFYgqin-2054" value="name character varying(255) " style="shape=partialRectangle;overflow=hidden;connectable=0;fillColor=none;top=0;left=0;bottom=0;right=0;align=left;spacingLeft=6;fontFamily=Fira Code;strokeColor=#000000;" parent="8DQ1GMw1Qk0WIiFYgqin-2052" vertex="1">
          <mxGeometry x="30" width="270" height="30" as="geometry" />
        </mxCell>
        <mxCell id="8DQ1GMw1Qk0WIiFYgqin-2055" value="" style="shape=partialRectangle;collapsible=0;dropTarget=0;pointerEvents=0;fillColor=none;points=[[0,0.5],[1,0.5]];portConstraint=eastwest;top=0;left=0;right=0;bottom=0;fontFamily=Fira Code;strokeColor=#000000;" parent="8DQ1GMw1Qk0WIiFYgqin-2045" vertex="1">
          <mxGeometry y="120" width="300" height="30" as="geometry" />
        </mxCell>
        <mxCell id="8DQ1GMw1Qk0WIiFYgqin-2056" value="" style="shape=partialRectangle;overflow=hidden;connectable=0;fillColor=none;top=0;left=0;bottom=0;right=0;fontFamily=Fira Code;strokeColor=#000000;" parent="8DQ1GMw1Qk0WIiFYgqin-2055" vertex="1">
          <mxGeometry width="30" height="30" as="geometry" />
        </mxCell>
        <mxCell id="8DQ1GMw1Qk0WIiFYgqin-2057" value="parent_id bigint" style="shape=partialRectangle;overflow=hidden;connectable=0;fillColor=none;top=0;left=0;bottom=0;right=0;align=left;spacingLeft=6;fontFamily=Fira Code;strokeColor=#000000;" parent="8DQ1GMw1Qk0WIiFYgqin-2055" vertex="1">
          <mxGeometry x="30" width="270" height="30" as="geometry" />
        </mxCell>
        <mxCell id="8DQ1GMw1Qk0WIiFYgqin-2058" value="" style="shape=partialRectangle;collapsible=0;dropTarget=0;pointerEvents=0;fillColor=none;points=[[0,0.5],[1,0.5]];portConstraint=eastwest;top=0;left=0;right=0;bottom=0;fontFamily=Fira Code;strokeColor=#000000;" parent="8DQ1GMw1Qk0WIiFYgqin-2045" vertex="1">
          <mxGeometry y="150" width="300" height="30" as="geometry" />
        </mxCell>
        <mxCell id="8DQ1GMw1Qk0WIiFYgqin-2059" value="" style="shape=partialRectangle;overflow=hidden;connectable=0;fillColor=none;top=0;left=0;bottom=0;right=0;fontFamily=Fira Code;strokeColor=#000000;" parent="8DQ1GMw1Qk0WIiFYgqin-2058" vertex="1">
          <mxGeometry width="30" height="30" as="geometry" />
        </mxCell>
        <mxCell id="8DQ1GMw1Qk0WIiFYgqin-2060" value="pft_type character varying(255) " style="shape=partialRectangle;overflow=hidden;connectable=0;fillColor=none;top=0;left=0;bottom=0;right=0;align=left;spacingLeft=6;fontFamily=Fira Code;strokeColor=#000000;" parent="8DQ1GMw1Qk0WIiFYgqin-2058" vertex="1">
          <mxGeometry x="30" width="270" height="30" as="geometry" />
        </mxCell>
        <mxCell id="8DQ1GMw1Qk0WIiFYgqin-2061" value="" style="shape=partialRectangle;collapsible=0;dropTarget=0;pointerEvents=0;fillColor=none;points=[[0,0.5],[1,0.5]];portConstraint=eastwest;top=0;left=0;right=0;bottom=0;fontFamily=Fira Code;strokeColor=#000000;" parent="8DQ1GMw1Qk0WIiFYgqin-2045" vertex="1">
          <mxGeometry y="180" width="300" height="30" as="geometry" />
        </mxCell>
        <mxCell id="8DQ1GMw1Qk0WIiFYgqin-2062" value="" style="shape=partialRectangle;overflow=hidden;connectable=0;fillColor=none;top=0;left=0;bottom=0;right=0;fontFamily=Fira Code;strokeColor=#000000;" parent="8DQ1GMw1Qk0WIiFYgqin-2061" vertex="1">
          <mxGeometry width="30" height="30" as="geometry" />
        </mxCell>
        <mxCell id="8DQ1GMw1Qk0WIiFYgqin-2063" value="modeltype_id bigint " style="shape=partialRectangle;overflow=hidden;connectable=0;fillColor=none;top=0;left=0;bottom=0;right=0;align=left;spacingLeft=6;fontFamily=Fira Code;strokeColor=#000000;" parent="8DQ1GMw1Qk0WIiFYgqin-2061" vertex="1">
          <mxGeometry x="30" width="270" height="30" as="geometry" />
        </mxCell>
        <mxCell id="8DQ1GMw1Qk0WIiFYgqin-2127" value="sitegroups" style="shape=table;startSize=30;container=1;collapsible=1;childLayout=tableLayout;fixedRows=1;rowLines=0;fontStyle=1;align=center;resizeLast=1;fontFamily=Fira Code;fillColor=#d5e8d4;strokeColor=#000000;" parent="1" vertex="1">
          <mxGeometry x="-3315.14" y="-2070" width="200" height="160" as="geometry" />
        </mxCell>
        <mxCell id="8DQ1GMw1Qk0WIiFYgqin-2128" value="" style="shape=partialRectangle;collapsible=0;dropTarget=0;pointerEvents=0;fillColor=none;points=[[0,0.5],[1,0.5]];portConstraint=eastwest;top=0;left=0;right=0;bottom=0;fontFamily=Fira Code;strokeColor=#000000;" parent="8DQ1GMw1Qk0WIiFYgqin-2127" vertex="1">
          <mxGeometry y="30" width="200" height="30" as="geometry" />
        </mxCell>
        <mxCell id="8DQ1GMw1Qk0WIiFYgqin-2129" value="" style="shape=partialRectangle;overflow=hidden;connectable=0;fillColor=none;top=0;left=0;bottom=0;right=0;fontFamily=Fira Code;strokeColor=#000000;" parent="8DQ1GMw1Qk0WIiFYgqin-2128" vertex="1">
          <mxGeometry width="30" height="30" as="geometry" />
        </mxCell>
        <mxCell id="8DQ1GMw1Qk0WIiFYgqin-2130" value="id bigint " style="shape=partialRectangle;overflow=hidden;connectable=0;fillColor=none;top=0;left=0;bottom=0;right=0;align=left;spacingLeft=6;fontFamily=Fira Code;strokeColor=#000000;" parent="8DQ1GMw1Qk0WIiFYgqin-2128" vertex="1">
          <mxGeometry x="30" width="170" height="30" as="geometry" />
        </mxCell>
        <mxCell id="8DQ1GMw1Qk0WIiFYgqin-2131" value="" style="shape=partialRectangle;collapsible=0;dropTarget=0;pointerEvents=0;fillColor=none;points=[[0,0.5],[1,0.5]];portConstraint=eastwest;top=0;left=0;right=0;bottom=0;fontFamily=Fira Code;strokeColor=#000000;" parent="8DQ1GMw1Qk0WIiFYgqin-2127" vertex="1">
          <mxGeometry y="60" width="200" height="30" as="geometry" />
        </mxCell>
        <mxCell id="8DQ1GMw1Qk0WIiFYgqin-2132" value="" style="shape=partialRectangle;overflow=hidden;connectable=0;fillColor=none;top=0;left=0;bottom=0;right=0;fontFamily=Fira Code;strokeColor=#000000;" parent="8DQ1GMw1Qk0WIiFYgqin-2131" vertex="1">
          <mxGeometry width="30" height="30" as="geometry" />
        </mxCell>
        <mxCell id="8DQ1GMw1Qk0WIiFYgqin-2133" value="name character varying(255) " style="shape=partialRectangle;overflow=hidden;connectable=0;fillColor=none;top=0;left=0;bottom=0;right=0;align=left;spacingLeft=6;fontFamily=Fira Code;strokeColor=#000000;" parent="8DQ1GMw1Qk0WIiFYgqin-2131" vertex="1">
          <mxGeometry x="30" width="170" height="30" as="geometry" />
        </mxCell>
        <mxCell id="8DQ1GMw1Qk0WIiFYgqin-2134" value="" style="shape=partialRectangle;collapsible=0;dropTarget=0;pointerEvents=0;fillColor=none;points=[[0,0.5],[1,0.5]];portConstraint=eastwest;top=0;left=0;right=0;bottom=0;fontFamily=Fira Code;strokeColor=#000000;" parent="8DQ1GMw1Qk0WIiFYgqin-2127" vertex="1">
          <mxGeometry y="90" width="200" height="30" as="geometry" />
        </mxCell>
        <mxCell id="8DQ1GMw1Qk0WIiFYgqin-2135" value="" style="shape=partialRectangle;overflow=hidden;connectable=0;fillColor=none;top=0;left=0;bottom=0;right=0;fontFamily=Fira Code;strokeColor=#000000;" parent="8DQ1GMw1Qk0WIiFYgqin-2134" vertex="1">
          <mxGeometry width="30" height="30" as="geometry" />
        </mxCell>
        <mxCell id="8DQ1GMw1Qk0WIiFYgqin-2136" value="public_access boolean " style="shape=partialRectangle;overflow=hidden;connectable=0;fillColor=none;top=0;left=0;bottom=0;right=0;align=left;spacingLeft=6;fontFamily=Fira Code;strokeColor=#000000;" parent="8DQ1GMw1Qk0WIiFYgqin-2134" vertex="1">
          <mxGeometry x="30" width="170" height="30" as="geometry" />
        </mxCell>
        <mxCell id="8DQ1GMw1Qk0WIiFYgqin-2137" value="" style="shape=partialRectangle;collapsible=0;dropTarget=0;pointerEvents=0;fillColor=none;points=[[0,0.5],[1,0.5]];portConstraint=eastwest;top=0;left=0;right=0;bottom=0;fontFamily=Fira Code;strokeColor=#000000;" parent="8DQ1GMw1Qk0WIiFYgqin-2127" vertex="1">
          <mxGeometry y="120" width="200" height="30" as="geometry" />
        </mxCell>
        <mxCell id="8DQ1GMw1Qk0WIiFYgqin-2138" value="" style="shape=partialRectangle;overflow=hidden;connectable=0;fillColor=none;top=0;left=0;bottom=0;right=0;fontFamily=Fira Code;strokeColor=#000000;" parent="8DQ1GMw1Qk0WIiFYgqin-2137" vertex="1">
          <mxGeometry width="30" height="30" as="geometry" />
        </mxCell>
        <mxCell id="8DQ1GMw1Qk0WIiFYgqin-2139" value="user_id bigint" style="shape=partialRectangle;overflow=hidden;connectable=0;fillColor=none;top=0;left=0;bottom=0;right=0;align=left;spacingLeft=6;fontFamily=Fira Code;strokeColor=#000000;" parent="8DQ1GMw1Qk0WIiFYgqin-2137" vertex="1">
          <mxGeometry x="30" width="170" height="30" as="geometry" />
        </mxCell>
        <mxCell id="8DQ1GMw1Qk0WIiFYgqin-2140" value="sites" style="shape=table;startSize=30;container=1;collapsible=1;childLayout=tableLayout;fixedRows=1;rowLines=0;fontStyle=1;align=center;resizeLast=1;fontFamily=Fira Code;fillColor=#d5e8d4;strokeColor=#000000;" parent="1" vertex="1">
          <mxGeometry x="-3075.14" y="-2150" width="280" height="520" as="geometry" />
        </mxCell>
        <mxCell id="8DQ1GMw1Qk0WIiFYgqin-2141" value="" style="shape=partialRectangle;collapsible=0;dropTarget=0;pointerEvents=0;fillColor=none;points=[[0,0.5],[1,0.5]];portConstraint=eastwest;top=0;left=0;right=0;bottom=0;fontFamily=Fira Code;strokeColor=#000000;" parent="8DQ1GMw1Qk0WIiFYgqin-2140" vertex="1">
          <mxGeometry y="30" width="280" height="30" as="geometry" />
        </mxCell>
        <mxCell id="8DQ1GMw1Qk0WIiFYgqin-2142" value="" style="shape=partialRectangle;overflow=hidden;connectable=0;fillColor=none;top=0;left=0;bottom=0;right=0;fontFamily=Fira Code;strokeColor=#000000;" parent="8DQ1GMw1Qk0WIiFYgqin-2141" vertex="1">
          <mxGeometry width="30" height="30" as="geometry" />
        </mxCell>
        <mxCell id="8DQ1GMw1Qk0WIiFYgqin-2143" value="id bigint " style="shape=partialRectangle;overflow=hidden;connectable=0;fillColor=none;top=0;left=0;bottom=0;right=0;align=left;spacingLeft=6;fontFamily=Fira Code;strokeColor=#000000;" parent="8DQ1GMw1Qk0WIiFYgqin-2141" vertex="1">
          <mxGeometry x="30" width="250" height="30" as="geometry" />
        </mxCell>
        <mxCell id="8DQ1GMw1Qk0WIiFYgqin-2144" value="" style="shape=partialRectangle;collapsible=0;dropTarget=0;pointerEvents=0;fillColor=none;points=[[0,0.5],[1,0.5]];portConstraint=eastwest;top=0;left=0;right=0;bottom=0;fontFamily=Fira Code;strokeColor=#000000;" parent="8DQ1GMw1Qk0WIiFYgqin-2140" vertex="1">
          <mxGeometry y="60" width="280" height="30" as="geometry" />
        </mxCell>
        <mxCell id="8DQ1GMw1Qk0WIiFYgqin-2145" value="" style="shape=partialRectangle;overflow=hidden;connectable=0;fillColor=none;top=0;left=0;bottom=0;right=0;fontFamily=Fira Code;strokeColor=#000000;" parent="8DQ1GMw1Qk0WIiFYgqin-2144" vertex="1">
          <mxGeometry width="30" height="30" as="geometry" />
        </mxCell>
        <mxCell id="8DQ1GMw1Qk0WIiFYgqin-2146" value="city character varying(255) " style="shape=partialRectangle;overflow=hidden;connectable=0;fillColor=none;top=0;left=0;bottom=0;right=0;align=left;spacingLeft=6;fontFamily=Fira Code;strokeColor=#000000;" parent="8DQ1GMw1Qk0WIiFYgqin-2144" vertex="1">
          <mxGeometry x="30" width="250" height="30" as="geometry" />
        </mxCell>
        <mxCell id="8DQ1GMw1Qk0WIiFYgqin-2147" value="" style="shape=partialRectangle;collapsible=0;dropTarget=0;pointerEvents=0;fillColor=none;points=[[0,0.5],[1,0.5]];portConstraint=eastwest;top=0;left=0;right=0;bottom=0;fontFamily=Fira Code;strokeColor=#000000;" parent="8DQ1GMw1Qk0WIiFYgqin-2140" vertex="1">
          <mxGeometry y="90" width="280" height="30" as="geometry" />
        </mxCell>
        <mxCell id="8DQ1GMw1Qk0WIiFYgqin-2148" value="" style="shape=partialRectangle;overflow=hidden;connectable=0;fillColor=none;top=0;left=0;bottom=0;right=0;fontFamily=Fira Code;strokeColor=#000000;" parent="8DQ1GMw1Qk0WIiFYgqin-2147" vertex="1">
          <mxGeometry width="30" height="30" as="geometry" />
        </mxCell>
        <mxCell id="8DQ1GMw1Qk0WIiFYgqin-2149" value="state character varying(255) " style="shape=partialRectangle;overflow=hidden;connectable=0;fillColor=none;top=0;left=0;bottom=0;right=0;align=left;spacingLeft=6;fontFamily=Fira Code;strokeColor=#000000;" parent="8DQ1GMw1Qk0WIiFYgqin-2147" vertex="1">
          <mxGeometry x="30" width="250" height="30" as="geometry" />
        </mxCell>
        <mxCell id="8DQ1GMw1Qk0WIiFYgqin-2150" value="" style="shape=partialRectangle;collapsible=0;dropTarget=0;pointerEvents=0;fillColor=none;points=[[0,0.5],[1,0.5]];portConstraint=eastwest;top=0;left=0;right=0;bottom=0;fontFamily=Fira Code;strokeColor=#000000;" parent="8DQ1GMw1Qk0WIiFYgqin-2140" vertex="1">
          <mxGeometry y="120" width="280" height="30" as="geometry" />
        </mxCell>
        <mxCell id="8DQ1GMw1Qk0WIiFYgqin-2151" value="" style="shape=partialRectangle;overflow=hidden;connectable=0;fillColor=none;top=0;left=0;bottom=0;right=0;fontFamily=Fira Code;strokeColor=#000000;" parent="8DQ1GMw1Qk0WIiFYgqin-2150" vertex="1">
          <mxGeometry width="30" height="30" as="geometry" />
        </mxCell>
        <mxCell id="8DQ1GMw1Qk0WIiFYgqin-2152" value="country character varying(255) " style="shape=partialRectangle;overflow=hidden;connectable=0;fillColor=none;top=0;left=0;bottom=0;right=0;align=left;spacingLeft=6;fontFamily=Fira Code;strokeColor=#000000;" parent="8DQ1GMw1Qk0WIiFYgqin-2150" vertex="1">
          <mxGeometry x="30" width="250" height="30" as="geometry" />
        </mxCell>
        <mxCell id="8DQ1GMw1Qk0WIiFYgqin-2153" value="" style="shape=partialRectangle;collapsible=0;dropTarget=0;pointerEvents=0;fillColor=none;points=[[0,0.5],[1,0.5]];portConstraint=eastwest;top=0;left=0;right=0;bottom=0;fontFamily=Fira Code;strokeColor=#000000;" parent="8DQ1GMw1Qk0WIiFYgqin-2140" vertex="1">
          <mxGeometry y="150" width="280" height="30" as="geometry" />
        </mxCell>
        <mxCell id="8DQ1GMw1Qk0WIiFYgqin-2154" value="" style="shape=partialRectangle;overflow=hidden;connectable=0;fillColor=none;top=0;left=0;bottom=0;right=0;fontFamily=Fira Code;strokeColor=#000000;" parent="8DQ1GMw1Qk0WIiFYgqin-2153" vertex="1">
          <mxGeometry width="30" height="30" as="geometry" />
        </mxCell>
        <mxCell id="8DQ1GMw1Qk0WIiFYgqin-2155" value="mat numeric(4, 2)" style="shape=partialRectangle;overflow=hidden;connectable=0;fillColor=none;top=0;left=0;bottom=0;right=0;align=left;spacingLeft=6;fontFamily=Fira Code;strokeColor=#000000;" parent="8DQ1GMw1Qk0WIiFYgqin-2153" vertex="1">
          <mxGeometry x="30" width="250" height="30" as="geometry" />
        </mxCell>
        <mxCell id="8DQ1GMw1Qk0WIiFYgqin-2156" value="" style="shape=partialRectangle;collapsible=0;dropTarget=0;pointerEvents=0;fillColor=none;points=[[0,0.5],[1,0.5]];portConstraint=eastwest;top=0;left=0;right=0;bottom=0;fontFamily=Fira Code;strokeColor=#000000;" parent="8DQ1GMw1Qk0WIiFYgqin-2140" vertex="1">
          <mxGeometry y="180" width="280" height="30" as="geometry" />
        </mxCell>
        <mxCell id="8DQ1GMw1Qk0WIiFYgqin-2157" value="" style="shape=partialRectangle;overflow=hidden;connectable=0;fillColor=none;top=0;left=0;bottom=0;right=0;fontFamily=Fira Code;strokeColor=#000000;" parent="8DQ1GMw1Qk0WIiFYgqin-2156" vertex="1">
          <mxGeometry width="30" height="30" as="geometry" />
        </mxCell>
        <mxCell id="8DQ1GMw1Qk0WIiFYgqin-2158" value="map integer" style="shape=partialRectangle;overflow=hidden;connectable=0;fillColor=none;top=0;left=0;bottom=0;right=0;align=left;spacingLeft=6;fontFamily=Fira Code;strokeColor=#000000;" parent="8DQ1GMw1Qk0WIiFYgqin-2156" vertex="1">
          <mxGeometry x="30" width="250" height="30" as="geometry" />
        </mxCell>
        <mxCell id="8DQ1GMw1Qk0WIiFYgqin-2159" value="" style="shape=partialRectangle;collapsible=0;dropTarget=0;pointerEvents=0;fillColor=none;points=[[0,0.5],[1,0.5]];portConstraint=eastwest;top=0;left=0;right=0;bottom=0;fontFamily=Fira Code;strokeColor=#000000;" parent="8DQ1GMw1Qk0WIiFYgqin-2140" vertex="1">
          <mxGeometry y="210" width="280" height="30" as="geometry" />
        </mxCell>
        <mxCell id="8DQ1GMw1Qk0WIiFYgqin-2160" value="" style="shape=partialRectangle;overflow=hidden;connectable=0;fillColor=none;top=0;left=0;bottom=0;right=0;fontFamily=Fira Code;strokeColor=#000000;" parent="8DQ1GMw1Qk0WIiFYgqin-2159" vertex="1">
          <mxGeometry width="30" height="30" as="geometry" />
        </mxCell>
        <mxCell id="8DQ1GMw1Qk0WIiFYgqin-2161" value="soil character varying(255) " style="shape=partialRectangle;overflow=hidden;connectable=0;fillColor=none;top=0;left=0;bottom=0;right=0;align=left;spacingLeft=6;fontFamily=Fira Code;strokeColor=#000000;" parent="8DQ1GMw1Qk0WIiFYgqin-2159" vertex="1">
          <mxGeometry x="30" width="250" height="30" as="geometry" />
        </mxCell>
        <mxCell id="8DQ1GMw1Qk0WIiFYgqin-2162" value="" style="shape=partialRectangle;collapsible=0;dropTarget=0;pointerEvents=0;fillColor=none;points=[[0,0.5],[1,0.5]];portConstraint=eastwest;top=0;left=0;right=0;bottom=0;fontFamily=Fira Code;strokeColor=#000000;" parent="8DQ1GMw1Qk0WIiFYgqin-2140" vertex="1">
          <mxGeometry y="240" width="280" height="30" as="geometry" />
        </mxCell>
        <mxCell id="8DQ1GMw1Qk0WIiFYgqin-2163" value="" style="shape=partialRectangle;overflow=hidden;connectable=0;fillColor=none;top=0;left=0;bottom=0;right=0;fontFamily=Fira Code;strokeColor=#000000;" parent="8DQ1GMw1Qk0WIiFYgqin-2162" vertex="1">
          <mxGeometry width="30" height="30" as="geometry" />
        </mxCell>
        <mxCell id="8DQ1GMw1Qk0WIiFYgqin-2164" value="som numeric(4, 2)" style="shape=partialRectangle;overflow=hidden;connectable=0;fillColor=none;top=0;left=0;bottom=0;right=0;align=left;spacingLeft=6;fontFamily=Fira Code;strokeColor=#000000;" parent="8DQ1GMw1Qk0WIiFYgqin-2162" vertex="1">
          <mxGeometry x="30" width="250" height="30" as="geometry" />
        </mxCell>
        <mxCell id="8DQ1GMw1Qk0WIiFYgqin-2165" value="" style="shape=partialRectangle;collapsible=0;dropTarget=0;pointerEvents=0;fillColor=none;points=[[0,0.5],[1,0.5]];portConstraint=eastwest;top=0;left=0;right=0;bottom=0;fontFamily=Fira Code;strokeColor=#000000;" parent="8DQ1GMw1Qk0WIiFYgqin-2140" vertex="1">
          <mxGeometry y="270" width="280" height="30" as="geometry" />
        </mxCell>
        <mxCell id="8DQ1GMw1Qk0WIiFYgqin-2166" value="" style="shape=partialRectangle;overflow=hidden;connectable=0;fillColor=none;top=0;left=0;bottom=0;right=0;fontFamily=Fira Code;strokeColor=#000000;" parent="8DQ1GMw1Qk0WIiFYgqin-2165" vertex="1">
          <mxGeometry width="30" height="30" as="geometry" />
        </mxCell>
        <mxCell id="8DQ1GMw1Qk0WIiFYgqin-2167" value="notes text " style="shape=partialRectangle;overflow=hidden;connectable=0;fillColor=none;top=0;left=0;bottom=0;right=0;align=left;spacingLeft=6;fontFamily=Fira Code;strokeColor=#000000;" parent="8DQ1GMw1Qk0WIiFYgqin-2165" vertex="1">
          <mxGeometry x="30" width="250" height="30" as="geometry" />
        </mxCell>
        <mxCell id="8DQ1GMw1Qk0WIiFYgqin-2168" value="" style="shape=partialRectangle;collapsible=0;dropTarget=0;pointerEvents=0;fillColor=none;points=[[0,0.5],[1,0.5]];portConstraint=eastwest;top=0;left=0;right=0;bottom=0;fontFamily=Fira Code;strokeColor=#000000;" parent="8DQ1GMw1Qk0WIiFYgqin-2140" vertex="1">
          <mxGeometry y="300" width="280" height="30" as="geometry" />
        </mxCell>
        <mxCell id="8DQ1GMw1Qk0WIiFYgqin-2169" value="" style="shape=partialRectangle;overflow=hidden;connectable=0;fillColor=none;top=0;left=0;bottom=0;right=0;fontFamily=Fira Code;strokeColor=#000000;" parent="8DQ1GMw1Qk0WIiFYgqin-2168" vertex="1">
          <mxGeometry width="30" height="30" as="geometry" />
        </mxCell>
        <mxCell id="8DQ1GMw1Qk0WIiFYgqin-2170" value="soilnotes text " style="shape=partialRectangle;overflow=hidden;connectable=0;fillColor=none;top=0;left=0;bottom=0;right=0;align=left;spacingLeft=6;fontFamily=Fira Code;strokeColor=#000000;" parent="8DQ1GMw1Qk0WIiFYgqin-2168" vertex="1">
          <mxGeometry x="30" width="250" height="30" as="geometry" />
        </mxCell>
        <mxCell id="8DQ1GMw1Qk0WIiFYgqin-2171" value="" style="shape=partialRectangle;collapsible=0;dropTarget=0;pointerEvents=0;fillColor=none;points=[[0,0.5],[1,0.5]];portConstraint=eastwest;top=0;left=0;right=0;bottom=0;fontFamily=Fira Code;strokeColor=#000000;" parent="8DQ1GMw1Qk0WIiFYgqin-2140" vertex="1">
          <mxGeometry y="330" width="280" height="30" as="geometry" />
        </mxCell>
        <mxCell id="8DQ1GMw1Qk0WIiFYgqin-2172" value="" style="shape=partialRectangle;overflow=hidden;connectable=0;fillColor=none;top=0;left=0;bottom=0;right=0;fontFamily=Fira Code;strokeColor=#000000;" parent="8DQ1GMw1Qk0WIiFYgqin-2171" vertex="1">
          <mxGeometry width="30" height="30" as="geometry" />
        </mxCell>
        <mxCell id="8DQ1GMw1Qk0WIiFYgqin-2173" value="sitename character varying(255) " style="shape=partialRectangle;overflow=hidden;connectable=0;fillColor=none;top=0;left=0;bottom=0;right=0;align=left;spacingLeft=6;fontFamily=Fira Code;strokeColor=#000000;" parent="8DQ1GMw1Qk0WIiFYgqin-2171" vertex="1">
          <mxGeometry x="30" width="250" height="30" as="geometry" />
        </mxCell>
        <mxCell id="8DQ1GMw1Qk0WIiFYgqin-2174" value="" style="shape=partialRectangle;collapsible=0;dropTarget=0;pointerEvents=0;fillColor=none;points=[[0,0.5],[1,0.5]];portConstraint=eastwest;top=0;left=0;right=0;bottom=0;fontFamily=Fira Code;strokeColor=#000000;" parent="8DQ1GMw1Qk0WIiFYgqin-2140" vertex="1">
          <mxGeometry y="360" width="280" height="30" as="geometry" />
        </mxCell>
        <mxCell id="8DQ1GMw1Qk0WIiFYgqin-2175" value="" style="shape=partialRectangle;overflow=hidden;connectable=0;fillColor=none;top=0;left=0;bottom=0;right=0;fontFamily=Fira Code;strokeColor=#000000;" parent="8DQ1GMw1Qk0WIiFYgqin-2174" vertex="1">
          <mxGeometry width="30" height="30" as="geometry" />
        </mxCell>
        <mxCell id="8DQ1GMw1Qk0WIiFYgqin-2176" value="greenhouse boolean" style="shape=partialRectangle;overflow=hidden;connectable=0;fillColor=none;top=0;left=0;bottom=0;right=0;align=left;spacingLeft=6;fontFamily=Fira Code;strokeColor=#000000;" parent="8DQ1GMw1Qk0WIiFYgqin-2174" vertex="1">
          <mxGeometry x="30" width="250" height="30" as="geometry" />
        </mxCell>
        <mxCell id="8DQ1GMw1Qk0WIiFYgqin-2177" value="" style="shape=partialRectangle;collapsible=0;dropTarget=0;pointerEvents=0;fillColor=none;points=[[0,0.5],[1,0.5]];portConstraint=eastwest;top=0;left=0;right=0;bottom=0;fontFamily=Fira Code;strokeColor=#000000;" parent="8DQ1GMw1Qk0WIiFYgqin-2140" vertex="1">
          <mxGeometry y="390" width="280" height="30" as="geometry" />
        </mxCell>
        <mxCell id="8DQ1GMw1Qk0WIiFYgqin-2178" value="" style="shape=partialRectangle;overflow=hidden;connectable=0;fillColor=none;top=0;left=0;bottom=0;right=0;fontFamily=Fira Code;strokeColor=#000000;" parent="8DQ1GMw1Qk0WIiFYgqin-2177" vertex="1">
          <mxGeometry width="30" height="30" as="geometry" />
        </mxCell>
        <mxCell id="8DQ1GMw1Qk0WIiFYgqin-2179" value="sand_pct numeric(9, 5)" style="shape=partialRectangle;overflow=hidden;connectable=0;fillColor=none;top=0;left=0;bottom=0;right=0;align=left;spacingLeft=6;fontFamily=Fira Code;strokeColor=#000000;" parent="8DQ1GMw1Qk0WIiFYgqin-2177" vertex="1">
          <mxGeometry x="30" width="250" height="30" as="geometry" />
        </mxCell>
        <mxCell id="8DQ1GMw1Qk0WIiFYgqin-2180" value="" style="shape=partialRectangle;collapsible=0;dropTarget=0;pointerEvents=0;fillColor=none;points=[[0,0.5],[1,0.5]];portConstraint=eastwest;top=0;left=0;right=0;bottom=0;fontFamily=Fira Code;strokeColor=#000000;" parent="8DQ1GMw1Qk0WIiFYgqin-2140" vertex="1">
          <mxGeometry y="420" width="280" height="30" as="geometry" />
        </mxCell>
        <mxCell id="8DQ1GMw1Qk0WIiFYgqin-2181" value="" style="shape=partialRectangle;overflow=hidden;connectable=0;fillColor=none;top=0;left=0;bottom=0;right=0;fontFamily=Fira Code;strokeColor=#000000;" parent="8DQ1GMw1Qk0WIiFYgqin-2180" vertex="1">
          <mxGeometry width="30" height="30" as="geometry" />
        </mxCell>
        <mxCell id="8DQ1GMw1Qk0WIiFYgqin-2182" value="clay_pct numeric(9, 5)" style="shape=partialRectangle;overflow=hidden;connectable=0;fillColor=none;top=0;left=0;bottom=0;right=0;align=left;spacingLeft=6;fontFamily=Fira Code;strokeColor=#000000;" parent="8DQ1GMw1Qk0WIiFYgqin-2180" vertex="1">
          <mxGeometry x="30" width="250" height="30" as="geometry" />
        </mxCell>
        <mxCell id="8DQ1GMw1Qk0WIiFYgqin-2183" value="" style="shape=partialRectangle;collapsible=0;dropTarget=0;pointerEvents=0;fillColor=none;points=[[0,0.5],[1,0.5]];portConstraint=eastwest;top=0;left=0;right=0;bottom=0;fontFamily=Fira Code;strokeColor=#000000;" parent="8DQ1GMw1Qk0WIiFYgqin-2140" vertex="1">
          <mxGeometry y="450" width="280" height="30" as="geometry" />
        </mxCell>
        <mxCell id="8DQ1GMw1Qk0WIiFYgqin-2184" value="" style="shape=partialRectangle;overflow=hidden;connectable=0;fillColor=none;top=0;left=0;bottom=0;right=0;fontFamily=Fira Code;strokeColor=#000000;" parent="8DQ1GMw1Qk0WIiFYgqin-2183" vertex="1">
          <mxGeometry width="30" height="30" as="geometry" />
        </mxCell>
        <mxCell id="8DQ1GMw1Qk0WIiFYgqin-2185" value="geometry geometry" style="shape=partialRectangle;overflow=hidden;connectable=0;fillColor=none;top=0;left=0;bottom=0;right=0;align=left;spacingLeft=6;fontFamily=Fira Code;strokeColor=#000000;" parent="8DQ1GMw1Qk0WIiFYgqin-2183" vertex="1">
          <mxGeometry x="30" width="250" height="30" as="geometry" />
        </mxCell>
        <mxCell id="8DQ1GMw1Qk0WIiFYgqin-2186" value="" style="shape=partialRectangle;collapsible=0;dropTarget=0;pointerEvents=0;fillColor=none;points=[[0,0.5],[1,0.5]];portConstraint=eastwest;top=0;left=0;right=0;bottom=0;fontFamily=Fira Code;strokeColor=#000000;" parent="8DQ1GMw1Qk0WIiFYgqin-2140" vertex="1">
          <mxGeometry y="480" width="280" height="30" as="geometry" />
        </mxCell>
        <mxCell id="8DQ1GMw1Qk0WIiFYgqin-2187" value="" style="shape=partialRectangle;overflow=hidden;connectable=0;fillColor=none;top=0;left=0;bottom=0;right=0;fontFamily=Fira Code;strokeColor=#000000;" parent="8DQ1GMw1Qk0WIiFYgqin-2186" vertex="1">
          <mxGeometry width="30" height="30" as="geometry" />
        </mxCell>
        <mxCell id="8DQ1GMw1Qk0WIiFYgqin-2188" value="time_zone text" style="shape=partialRectangle;overflow=hidden;connectable=0;fillColor=none;top=0;left=0;bottom=0;right=0;align=left;spacingLeft=6;fontFamily=Fira Code;strokeColor=#000000;" parent="8DQ1GMw1Qk0WIiFYgqin-2186" vertex="1">
          <mxGeometry x="30" width="250" height="30" as="geometry" />
        </mxCell>
        <mxCell id="8DQ1GMw1Qk0WIiFYgqin-2461" value="traits" style="shape=table;startSize=30;container=1;collapsible=1;childLayout=tableLayout;fixedRows=1;rowLines=0;fontStyle=1;align=center;resizeLast=1;fontFamily=Fira Code;fillColor=#FFCCCC;strokeColor=#000000;" parent="1" vertex="1">
          <mxGeometry x="-4160.14" y="-1950" width="300.14" height="780" as="geometry" />
        </mxCell>
        <mxCell id="8DQ1GMw1Qk0WIiFYgqin-2462" value="" style="shape=partialRectangle;collapsible=0;dropTarget=0;pointerEvents=0;fillColor=none;points=[[0,0.5],[1,0.5]];portConstraint=eastwest;top=0;left=0;right=0;bottom=0;fontFamily=Fira Code;strokeColor=#000000;" parent="8DQ1GMw1Qk0WIiFYgqin-2461" vertex="1">
          <mxGeometry y="30" width="300.14" height="30" as="geometry" />
        </mxCell>
        <mxCell id="8DQ1GMw1Qk0WIiFYgqin-2463" value="" style="shape=partialRectangle;overflow=hidden;connectable=0;fillColor=none;top=0;left=0;bottom=0;right=0;fontFamily=Fira Code;strokeColor=#000000;" parent="8DQ1GMw1Qk0WIiFYgqin-2462" vertex="1">
          <mxGeometry width="30" height="30" as="geometry" />
        </mxCell>
        <mxCell id="8DQ1GMw1Qk0WIiFYgqin-2464" value="id bigint " style="shape=partialRectangle;overflow=hidden;connectable=0;fillColor=none;top=0;left=0;bottom=0;right=0;align=left;spacingLeft=6;fontFamily=Fira Code;strokeColor=#000000;" parent="8DQ1GMw1Qk0WIiFYgqin-2462" vertex="1">
          <mxGeometry x="30" width="270.14" height="30" as="geometry" />
        </mxCell>
        <mxCell id="8DQ1GMw1Qk0WIiFYgqin-2468" value="" style="shape=partialRectangle;collapsible=0;dropTarget=0;pointerEvents=0;fillColor=none;points=[[0,0.5],[1,0.5]];portConstraint=eastwest;top=0;left=0;right=0;bottom=0;fontFamily=Fira Code;strokeColor=#000000;" parent="8DQ1GMw1Qk0WIiFYgqin-2461" vertex="1">
          <mxGeometry y="60" width="300.14" height="30" as="geometry" />
        </mxCell>
        <mxCell id="8DQ1GMw1Qk0WIiFYgqin-2469" value="" style="shape=partialRectangle;overflow=hidden;connectable=0;fillColor=none;top=0;left=0;bottom=0;right=0;fontFamily=Fira Code;strokeColor=#000000;" parent="8DQ1GMw1Qk0WIiFYgqin-2468" vertex="1">
          <mxGeometry width="30" height="30" as="geometry" />
        </mxCell>
        <mxCell id="8DQ1GMw1Qk0WIiFYgqin-2470" value="specie_id bigint" style="shape=partialRectangle;overflow=hidden;connectable=0;fillColor=none;top=0;left=0;bottom=0;right=0;align=left;spacingLeft=6;fontFamily=Fira Code;strokeColor=#000000;" parent="8DQ1GMw1Qk0WIiFYgqin-2468" vertex="1">
          <mxGeometry x="30" width="270.14" height="30" as="geometry" />
        </mxCell>
        <mxCell id="8DQ1GMw1Qk0WIiFYgqin-2465" value="" style="shape=partialRectangle;collapsible=0;dropTarget=0;pointerEvents=0;fillColor=none;points=[[0,0.5],[1,0.5]];portConstraint=eastwest;top=0;left=0;right=0;bottom=0;fontFamily=Fira Code;strokeColor=#000000;" parent="8DQ1GMw1Qk0WIiFYgqin-2461" vertex="1">
          <mxGeometry y="90" width="300.14" height="30" as="geometry" />
        </mxCell>
        <mxCell id="8DQ1GMw1Qk0WIiFYgqin-2466" value="" style="shape=partialRectangle;overflow=hidden;connectable=0;fillColor=none;top=0;left=0;bottom=0;right=0;fontFamily=Fira Code;strokeColor=#000000;" parent="8DQ1GMw1Qk0WIiFYgqin-2465" vertex="1">
          <mxGeometry width="30" height="30" as="geometry" />
        </mxCell>
        <mxCell id="8DQ1GMw1Qk0WIiFYgqin-2467" value="site_id bigint" style="shape=partialRectangle;overflow=hidden;connectable=0;fillColor=none;top=0;left=0;bottom=0;right=0;align=left;spacingLeft=6;fontFamily=Fira Code;strokeColor=#000000;" parent="8DQ1GMw1Qk0WIiFYgqin-2465" vertex="1">
          <mxGeometry x="30" width="270.14" height="30" as="geometry" />
        </mxCell>
        <mxCell id="8DQ1GMw1Qk0WIiFYgqin-2471" value="" style="shape=partialRectangle;collapsible=0;dropTarget=0;pointerEvents=0;fillColor=none;points=[[0,0.5],[1,0.5]];portConstraint=eastwest;top=0;left=0;right=0;bottom=0;fontFamily=Fira Code;strokeColor=#000000;" parent="8DQ1GMw1Qk0WIiFYgqin-2461" vertex="1">
          <mxGeometry y="120" width="300.14" height="30" as="geometry" />
        </mxCell>
        <mxCell id="8DQ1GMw1Qk0WIiFYgqin-2472" value="" style="shape=partialRectangle;overflow=hidden;connectable=0;fillColor=none;top=0;left=0;bottom=0;right=0;fontFamily=Fira Code;strokeColor=#000000;" parent="8DQ1GMw1Qk0WIiFYgqin-2471" vertex="1">
          <mxGeometry width="30" height="30" as="geometry" />
        </mxCell>
        <mxCell id="8DQ1GMw1Qk0WIiFYgqin-2473" value="citation_id bigint" style="shape=partialRectangle;overflow=hidden;connectable=0;fillColor=none;top=0;left=0;bottom=0;right=0;align=left;spacingLeft=6;fontFamily=Fira Code;strokeColor=#000000;" parent="8DQ1GMw1Qk0WIiFYgqin-2471" vertex="1">
          <mxGeometry x="30" width="270.14" height="30" as="geometry" />
        </mxCell>
        <mxCell id="8DQ1GMw1Qk0WIiFYgqin-2474" value="" style="shape=partialRectangle;collapsible=0;dropTarget=0;pointerEvents=0;fillColor=none;points=[[0,0.5],[1,0.5]];portConstraint=eastwest;top=0;left=0;right=0;bottom=0;fontFamily=Fira Code;strokeColor=#000000;" parent="8DQ1GMw1Qk0WIiFYgqin-2461" vertex="1">
          <mxGeometry y="150" width="300.14" height="30" as="geometry" />
        </mxCell>
        <mxCell id="8DQ1GMw1Qk0WIiFYgqin-2475" value="" style="shape=partialRectangle;overflow=hidden;connectable=0;fillColor=none;top=0;left=0;bottom=0;right=0;fontFamily=Fira Code;strokeColor=#000000;" parent="8DQ1GMw1Qk0WIiFYgqin-2474" vertex="1">
          <mxGeometry width="30" height="30" as="geometry" />
        </mxCell>
        <mxCell id="8DQ1GMw1Qk0WIiFYgqin-2476" value="cultivar_id bigint" style="shape=partialRectangle;overflow=hidden;connectable=0;fillColor=none;top=0;left=0;bottom=0;right=0;align=left;spacingLeft=6;fontFamily=Fira Code;strokeColor=#000000;" parent="8DQ1GMw1Qk0WIiFYgqin-2474" vertex="1">
          <mxGeometry x="30" width="270.14" height="30" as="geometry" />
        </mxCell>
        <mxCell id="8DQ1GMw1Qk0WIiFYgqin-2477" value="" style="shape=partialRectangle;collapsible=0;dropTarget=0;pointerEvents=0;fillColor=none;points=[[0,0.5],[1,0.5]];portConstraint=eastwest;top=0;left=0;right=0;bottom=0;fontFamily=Fira Code;strokeColor=#000000;" parent="8DQ1GMw1Qk0WIiFYgqin-2461" vertex="1">
          <mxGeometry y="180" width="300.14" height="30" as="geometry" />
        </mxCell>
        <mxCell id="8DQ1GMw1Qk0WIiFYgqin-2478" value="" style="shape=partialRectangle;overflow=hidden;connectable=0;fillColor=none;top=0;left=0;bottom=0;right=0;fontFamily=Fira Code;strokeColor=#000000;" parent="8DQ1GMw1Qk0WIiFYgqin-2477" vertex="1">
          <mxGeometry width="30" height="30" as="geometry" />
        </mxCell>
        <mxCell id="8DQ1GMw1Qk0WIiFYgqin-2479" value="treatment_id bigint" style="shape=partialRectangle;overflow=hidden;connectable=0;fillColor=none;top=0;left=0;bottom=0;right=0;align=left;spacingLeft=6;fontFamily=Fira Code;strokeColor=#000000;" parent="8DQ1GMw1Qk0WIiFYgqin-2477" vertex="1">
          <mxGeometry x="30" width="270.14" height="30" as="geometry" />
        </mxCell>
        <mxCell id="8DQ1GMw1Qk0WIiFYgqin-2480" value="" style="shape=partialRectangle;collapsible=0;dropTarget=0;pointerEvents=0;fillColor=none;points=[[0,0.5],[1,0.5]];portConstraint=eastwest;top=0;left=0;right=0;bottom=0;fontFamily=Fira Code;strokeColor=#000000;" parent="8DQ1GMw1Qk0WIiFYgqin-2461" vertex="1">
          <mxGeometry y="210" width="300.14" height="30" as="geometry" />
        </mxCell>
        <mxCell id="8DQ1GMw1Qk0WIiFYgqin-2481" value="" style="shape=partialRectangle;overflow=hidden;connectable=0;fillColor=none;top=0;left=0;bottom=0;right=0;fontFamily=Fira Code;strokeColor=#000000;" parent="8DQ1GMw1Qk0WIiFYgqin-2480" vertex="1">
          <mxGeometry width="30" height="30" as="geometry" />
        </mxCell>
        <mxCell id="8DQ1GMw1Qk0WIiFYgqin-2482" value="date timestamp(6) without time zone" style="shape=partialRectangle;overflow=hidden;connectable=0;fillColor=none;top=0;left=0;bottom=0;right=0;align=left;spacingLeft=6;fontFamily=Fira Code;strokeColor=#000000;" parent="8DQ1GMw1Qk0WIiFYgqin-2480" vertex="1">
          <mxGeometry x="30" width="270.14" height="30" as="geometry" />
        </mxCell>
        <mxCell id="8DQ1GMw1Qk0WIiFYgqin-2483" value="" style="shape=partialRectangle;collapsible=0;dropTarget=0;pointerEvents=0;fillColor=none;points=[[0,0.5],[1,0.5]];portConstraint=eastwest;top=0;left=0;right=0;bottom=0;fontFamily=Fira Code;strokeColor=#000000;" parent="8DQ1GMw1Qk0WIiFYgqin-2461" vertex="1">
          <mxGeometry y="240" width="300.14" height="30" as="geometry" />
        </mxCell>
        <mxCell id="8DQ1GMw1Qk0WIiFYgqin-2484" value="" style="shape=partialRectangle;overflow=hidden;connectable=0;fillColor=none;top=0;left=0;bottom=0;right=0;fontFamily=Fira Code;strokeColor=#000000;" parent="8DQ1GMw1Qk0WIiFYgqin-2483" vertex="1">
          <mxGeometry width="30" height="30" as="geometry" />
        </mxCell>
        <mxCell id="8DQ1GMw1Qk0WIiFYgqin-2485" value="dateloc numeric(4, 2)" style="shape=partialRectangle;overflow=hidden;connectable=0;fillColor=none;top=0;left=0;bottom=0;right=0;align=left;spacingLeft=6;fontFamily=Fira Code;strokeColor=#000000;" parent="8DQ1GMw1Qk0WIiFYgqin-2483" vertex="1">
          <mxGeometry x="30" width="270.14" height="30" as="geometry" />
        </mxCell>
        <mxCell id="8DQ1GMw1Qk0WIiFYgqin-2486" value="" style="shape=partialRectangle;collapsible=0;dropTarget=0;pointerEvents=0;fillColor=none;points=[[0,0.5],[1,0.5]];portConstraint=eastwest;top=0;left=0;right=0;bottom=0;fontFamily=Fira Code;strokeColor=#000000;" parent="8DQ1GMw1Qk0WIiFYgqin-2461" vertex="1">
          <mxGeometry y="270" width="300.14" height="30" as="geometry" />
        </mxCell>
        <mxCell id="8DQ1GMw1Qk0WIiFYgqin-2487" value="" style="shape=partialRectangle;overflow=hidden;connectable=0;fillColor=none;top=0;left=0;bottom=0;right=0;fontFamily=Fira Code;strokeColor=#000000;" parent="8DQ1GMw1Qk0WIiFYgqin-2486" vertex="1">
          <mxGeometry width="30" height="30" as="geometry" />
        </mxCell>
        <mxCell id="8DQ1GMw1Qk0WIiFYgqin-2488" value="&quot;time&quot; time(6) without time zone" style="shape=partialRectangle;overflow=hidden;connectable=0;fillColor=none;top=0;left=0;bottom=0;right=0;align=left;spacingLeft=6;fontFamily=Fira Code;strokeColor=#000000;" parent="8DQ1GMw1Qk0WIiFYgqin-2486" vertex="1">
          <mxGeometry x="30" width="270.14" height="30" as="geometry" />
        </mxCell>
        <mxCell id="8DQ1GMw1Qk0WIiFYgqin-2489" value="" style="shape=partialRectangle;collapsible=0;dropTarget=0;pointerEvents=0;fillColor=none;points=[[0,0.5],[1,0.5]];portConstraint=eastwest;top=0;left=0;right=0;bottom=0;fontFamily=Fira Code;strokeColor=#000000;" parent="8DQ1GMw1Qk0WIiFYgqin-2461" vertex="1">
          <mxGeometry y="300" width="300.14" height="30" as="geometry" />
        </mxCell>
        <mxCell id="8DQ1GMw1Qk0WIiFYgqin-2490" value="" style="shape=partialRectangle;overflow=hidden;connectable=0;fillColor=none;top=0;left=0;bottom=0;right=0;fontFamily=Fira Code;strokeColor=#000000;" parent="8DQ1GMw1Qk0WIiFYgqin-2489" vertex="1">
          <mxGeometry width="30" height="30" as="geometry" />
        </mxCell>
        <mxCell id="8DQ1GMw1Qk0WIiFYgqin-2491" value="timeloc numeric(4, 2)" style="shape=partialRectangle;overflow=hidden;connectable=0;fillColor=none;top=0;left=0;bottom=0;right=0;align=left;spacingLeft=6;fontFamily=Fira Code;strokeColor=#000000;" parent="8DQ1GMw1Qk0WIiFYgqin-2489" vertex="1">
          <mxGeometry x="30" width="270.14" height="30" as="geometry" />
        </mxCell>
        <mxCell id="8DQ1GMw1Qk0WIiFYgqin-2492" value="" style="shape=partialRectangle;collapsible=0;dropTarget=0;pointerEvents=0;fillColor=none;points=[[0,0.5],[1,0.5]];portConstraint=eastwest;top=0;left=0;right=0;bottom=0;fontFamily=Fira Code;strokeColor=#000000;" parent="8DQ1GMw1Qk0WIiFYgqin-2461" vertex="1">
          <mxGeometry y="330" width="300.14" height="30" as="geometry" />
        </mxCell>
        <mxCell id="8DQ1GMw1Qk0WIiFYgqin-2493" value="" style="shape=partialRectangle;overflow=hidden;connectable=0;fillColor=none;top=0;left=0;bottom=0;right=0;fontFamily=Fira Code;strokeColor=#000000;" parent="8DQ1GMw1Qk0WIiFYgqin-2492" vertex="1">
          <mxGeometry width="30" height="30" as="geometry" />
        </mxCell>
        <mxCell id="8DQ1GMw1Qk0WIiFYgqin-2494" value="mean double precision" style="shape=partialRectangle;overflow=hidden;connectable=0;fillColor=none;top=0;left=0;bottom=0;right=0;align=left;spacingLeft=6;fontFamily=Fira Code;strokeColor=#000000;" parent="8DQ1GMw1Qk0WIiFYgqin-2492" vertex="1">
          <mxGeometry x="30" width="270.14" height="30" as="geometry" />
        </mxCell>
        <mxCell id="8DQ1GMw1Qk0WIiFYgqin-2495" value="" style="shape=partialRectangle;collapsible=0;dropTarget=0;pointerEvents=0;fillColor=none;points=[[0,0.5],[1,0.5]];portConstraint=eastwest;top=0;left=0;right=0;bottom=0;fontFamily=Fira Code;strokeColor=#000000;" parent="8DQ1GMw1Qk0WIiFYgqin-2461" vertex="1">
          <mxGeometry y="360" width="300.14" height="30" as="geometry" />
        </mxCell>
        <mxCell id="8DQ1GMw1Qk0WIiFYgqin-2496" value="" style="shape=partialRectangle;overflow=hidden;connectable=0;fillColor=none;top=0;left=0;bottom=0;right=0;fontFamily=Fira Code;strokeColor=#000000;" parent="8DQ1GMw1Qk0WIiFYgqin-2495" vertex="1">
          <mxGeometry width="30" height="30" as="geometry" />
        </mxCell>
        <mxCell id="8DQ1GMw1Qk0WIiFYgqin-2497" value="n integer" style="shape=partialRectangle;overflow=hidden;connectable=0;fillColor=none;top=0;left=0;bottom=0;right=0;align=left;spacingLeft=6;fontFamily=Fira Code;strokeColor=#000000;" parent="8DQ1GMw1Qk0WIiFYgqin-2495" vertex="1">
          <mxGeometry x="30" width="270.14" height="30" as="geometry" />
        </mxCell>
        <mxCell id="8DQ1GMw1Qk0WIiFYgqin-2498" value="" style="shape=partialRectangle;collapsible=0;dropTarget=0;pointerEvents=0;fillColor=none;points=[[0,0.5],[1,0.5]];portConstraint=eastwest;top=0;left=0;right=0;bottom=0;fontFamily=Fira Code;strokeColor=#000000;" parent="8DQ1GMw1Qk0WIiFYgqin-2461" vertex="1">
          <mxGeometry y="390" width="300.14" height="30" as="geometry" />
        </mxCell>
        <mxCell id="8DQ1GMw1Qk0WIiFYgqin-2499" value="" style="shape=partialRectangle;overflow=hidden;connectable=0;fillColor=none;top=0;left=0;bottom=0;right=0;fontFamily=Fira Code;strokeColor=#000000;" parent="8DQ1GMw1Qk0WIiFYgqin-2498" vertex="1">
          <mxGeometry width="30" height="30" as="geometry" />
        </mxCell>
        <mxCell id="8DQ1GMw1Qk0WIiFYgqin-2500" value="statname statnames" style="shape=partialRectangle;overflow=hidden;connectable=0;fillColor=none;top=0;left=0;bottom=0;right=0;align=left;spacingLeft=6;fontFamily=Fira Code;strokeColor=#000000;" parent="8DQ1GMw1Qk0WIiFYgqin-2498" vertex="1">
          <mxGeometry x="30" width="270.14" height="30" as="geometry" />
        </mxCell>
        <mxCell id="8DQ1GMw1Qk0WIiFYgqin-2501" value="" style="shape=partialRectangle;collapsible=0;dropTarget=0;pointerEvents=0;fillColor=none;points=[[0,0.5],[1,0.5]];portConstraint=eastwest;top=0;left=0;right=0;bottom=0;fontFamily=Fira Code;strokeColor=#000000;" parent="8DQ1GMw1Qk0WIiFYgqin-2461" vertex="1">
          <mxGeometry y="420" width="300.14" height="30" as="geometry" />
        </mxCell>
        <mxCell id="8DQ1GMw1Qk0WIiFYgqin-2502" value="" style="shape=partialRectangle;overflow=hidden;connectable=0;fillColor=none;top=0;left=0;bottom=0;right=0;fontFamily=Fira Code;strokeColor=#000000;" parent="8DQ1GMw1Qk0WIiFYgqin-2501" vertex="1">
          <mxGeometry width="30" height="30" as="geometry" />
        </mxCell>
        <mxCell id="8DQ1GMw1Qk0WIiFYgqin-2503" value="stat double precision" style="shape=partialRectangle;overflow=hidden;connectable=0;fillColor=none;top=0;left=0;bottom=0;right=0;align=left;spacingLeft=6;fontFamily=Fira Code;strokeColor=#000000;" parent="8DQ1GMw1Qk0WIiFYgqin-2501" vertex="1">
          <mxGeometry x="30" width="270.14" height="30" as="geometry" />
        </mxCell>
        <mxCell id="8DQ1GMw1Qk0WIiFYgqin-2504" value="" style="shape=partialRectangle;collapsible=0;dropTarget=0;pointerEvents=0;fillColor=none;points=[[0,0.5],[1,0.5]];portConstraint=eastwest;top=0;left=0;right=0;bottom=0;fontFamily=Fira Code;strokeColor=#000000;" parent="8DQ1GMw1Qk0WIiFYgqin-2461" vertex="1">
          <mxGeometry y="450" width="300.14" height="30" as="geometry" />
        </mxCell>
        <mxCell id="8DQ1GMw1Qk0WIiFYgqin-2505" value="" style="shape=partialRectangle;overflow=hidden;connectable=0;fillColor=none;top=0;left=0;bottom=0;right=0;fontFamily=Fira Code;strokeColor=#000000;" parent="8DQ1GMw1Qk0WIiFYgqin-2504" vertex="1">
          <mxGeometry width="30" height="30" as="geometry" />
        </mxCell>
        <mxCell id="8DQ1GMw1Qk0WIiFYgqin-2506" value="notes text " style="shape=partialRectangle;overflow=hidden;connectable=0;fillColor=none;top=0;left=0;bottom=0;right=0;align=left;spacingLeft=6;fontFamily=Fira Code;strokeColor=#000000;" parent="8DQ1GMw1Qk0WIiFYgqin-2504" vertex="1">
          <mxGeometry x="30" width="270.14" height="30" as="geometry" />
        </mxCell>
        <mxCell id="8DQ1GMw1Qk0WIiFYgqin-2507" value="" style="shape=partialRectangle;collapsible=0;dropTarget=0;pointerEvents=0;fillColor=none;points=[[0,0.5],[1,0.5]];portConstraint=eastwest;top=0;left=0;right=0;bottom=0;fontFamily=Fira Code;strokeColor=#000000;" parent="8DQ1GMw1Qk0WIiFYgqin-2461" vertex="1">
          <mxGeometry y="480" width="300.14" height="30" as="geometry" />
        </mxCell>
        <mxCell id="8DQ1GMw1Qk0WIiFYgqin-2508" value="" style="shape=partialRectangle;overflow=hidden;connectable=0;fillColor=none;top=0;left=0;bottom=0;right=0;fontFamily=Fira Code;strokeColor=#000000;" parent="8DQ1GMw1Qk0WIiFYgqin-2507" vertex="1">
          <mxGeometry width="30" height="30" as="geometry" />
        </mxCell>
        <mxCell id="8DQ1GMw1Qk0WIiFYgqin-2509" value="variable_id bigint" style="shape=partialRectangle;overflow=hidden;connectable=0;fillColor=none;top=0;left=0;bottom=0;right=0;align=left;spacingLeft=6;fontFamily=Fira Code;strokeColor=#000000;" parent="8DQ1GMw1Qk0WIiFYgqin-2507" vertex="1">
          <mxGeometry x="30" width="270.14" height="30" as="geometry" />
        </mxCell>
        <mxCell id="8DQ1GMw1Qk0WIiFYgqin-2510" value="" style="shape=partialRectangle;collapsible=0;dropTarget=0;pointerEvents=0;fillColor=none;points=[[0,0.5],[1,0.5]];portConstraint=eastwest;top=0;left=0;right=0;bottom=0;fontFamily=Fira Code;strokeColor=#000000;" parent="8DQ1GMw1Qk0WIiFYgqin-2461" vertex="1">
          <mxGeometry y="510" width="300.14" height="30" as="geometry" />
        </mxCell>
        <mxCell id="8DQ1GMw1Qk0WIiFYgqin-2511" value="" style="shape=partialRectangle;overflow=hidden;connectable=0;fillColor=none;top=0;left=0;bottom=0;right=0;fontFamily=Fira Code;strokeColor=#000000;" parent="8DQ1GMw1Qk0WIiFYgqin-2510" vertex="1">
          <mxGeometry width="30" height="30" as="geometry" />
        </mxCell>
        <mxCell id="8DQ1GMw1Qk0WIiFYgqin-2512" value="checked integer" style="shape=partialRectangle;overflow=hidden;connectable=0;fillColor=none;top=0;left=0;bottom=0;right=0;align=left;spacingLeft=6;fontFamily=Fira Code;strokeColor=#000000;" parent="8DQ1GMw1Qk0WIiFYgqin-2510" vertex="1">
          <mxGeometry x="30" width="270.14" height="30" as="geometry" />
        </mxCell>
        <mxCell id="8DQ1GMw1Qk0WIiFYgqin-2513" value="" style="shape=partialRectangle;collapsible=0;dropTarget=0;pointerEvents=0;fillColor=none;points=[[0,0.5],[1,0.5]];portConstraint=eastwest;top=0;left=0;right=0;bottom=0;fontFamily=Fira Code;strokeColor=#000000;" parent="8DQ1GMw1Qk0WIiFYgqin-2461" vertex="1">
          <mxGeometry y="540" width="300.14" height="30" as="geometry" />
        </mxCell>
        <mxCell id="8DQ1GMw1Qk0WIiFYgqin-2514" value="" style="shape=partialRectangle;overflow=hidden;connectable=0;fillColor=none;top=0;left=0;bottom=0;right=0;fontFamily=Fira Code;strokeColor=#000000;" parent="8DQ1GMw1Qk0WIiFYgqin-2513" vertex="1">
          <mxGeometry width="30" height="30" as="geometry" />
        </mxCell>
        <mxCell id="8DQ1GMw1Qk0WIiFYgqin-2515" value="access_level integer" style="shape=partialRectangle;overflow=hidden;connectable=0;fillColor=none;top=0;left=0;bottom=0;right=0;align=left;spacingLeft=6;fontFamily=Fira Code;strokeColor=#000000;" parent="8DQ1GMw1Qk0WIiFYgqin-2513" vertex="1">
          <mxGeometry x="30" width="270.14" height="30" as="geometry" />
        </mxCell>
        <mxCell id="8DQ1GMw1Qk0WIiFYgqin-2516" value="" style="shape=partialRectangle;collapsible=0;dropTarget=0;pointerEvents=0;fillColor=none;points=[[0,0.5],[1,0.5]];portConstraint=eastwest;top=0;left=0;right=0;bottom=0;fontFamily=Fira Code;strokeColor=#000000;" parent="8DQ1GMw1Qk0WIiFYgqin-2461" vertex="1">
          <mxGeometry y="570" width="300.14" height="30" as="geometry" />
        </mxCell>
        <mxCell id="8DQ1GMw1Qk0WIiFYgqin-2517" value="" style="shape=partialRectangle;overflow=hidden;connectable=0;fillColor=none;top=0;left=0;bottom=0;right=0;fontFamily=Fira Code;strokeColor=#000000;" parent="8DQ1GMw1Qk0WIiFYgqin-2516" vertex="1">
          <mxGeometry width="30" height="30" as="geometry" />
        </mxCell>
        <mxCell id="8DQ1GMw1Qk0WIiFYgqin-2518" value="entity_id bigint" style="shape=partialRectangle;overflow=hidden;connectable=0;fillColor=none;top=0;left=0;bottom=0;right=0;align=left;spacingLeft=6;fontFamily=Fira Code;strokeColor=#000000;" parent="8DQ1GMw1Qk0WIiFYgqin-2516" vertex="1">
          <mxGeometry x="30" width="270.14" height="30" as="geometry" />
        </mxCell>
        <mxCell id="8DQ1GMw1Qk0WIiFYgqin-2519" value="" style="shape=partialRectangle;collapsible=0;dropTarget=0;pointerEvents=0;fillColor=none;points=[[0,0.5],[1,0.5]];portConstraint=eastwest;top=0;left=0;right=0;bottom=0;fontFamily=Fira Code;strokeColor=#000000;" parent="8DQ1GMw1Qk0WIiFYgqin-2461" vertex="1">
          <mxGeometry y="600" width="300.14" height="30" as="geometry" />
        </mxCell>
        <mxCell id="8DQ1GMw1Qk0WIiFYgqin-2520" value="" style="shape=partialRectangle;overflow=hidden;connectable=0;fillColor=none;top=0;left=0;bottom=0;right=0;fontFamily=Fira Code;strokeColor=#000000;" parent="8DQ1GMw1Qk0WIiFYgqin-2519" vertex="1">
          <mxGeometry width="30" height="30" as="geometry" />
        </mxCell>
        <mxCell id="8DQ1GMw1Qk0WIiFYgqin-2521" value="method_id bigint" style="shape=partialRectangle;overflow=hidden;connectable=0;fillColor=none;top=0;left=0;bottom=0;right=0;align=left;spacingLeft=6;fontFamily=Fira Code;strokeColor=#000000;" parent="8DQ1GMw1Qk0WIiFYgqin-2519" vertex="1">
          <mxGeometry x="30" width="270.14" height="30" as="geometry" />
        </mxCell>
        <mxCell id="8DQ1GMw1Qk0WIiFYgqin-2522" value="" style="shape=partialRectangle;collapsible=0;dropTarget=0;pointerEvents=0;fillColor=none;points=[[0,0.5],[1,0.5]];portConstraint=eastwest;top=0;left=0;right=0;bottom=0;fontFamily=Fira Code;strokeColor=#000000;" parent="8DQ1GMw1Qk0WIiFYgqin-2461" vertex="1">
          <mxGeometry y="630" width="300.14" height="30" as="geometry" />
        </mxCell>
        <mxCell id="8DQ1GMw1Qk0WIiFYgqin-2523" value="" style="shape=partialRectangle;overflow=hidden;connectable=0;fillColor=none;top=0;left=0;bottom=0;right=0;fontFamily=Fira Code;strokeColor=#000000;" parent="8DQ1GMw1Qk0WIiFYgqin-2522" vertex="1">
          <mxGeometry width="30" height="30" as="geometry" />
        </mxCell>
        <mxCell id="8DQ1GMw1Qk0WIiFYgqin-2524" value="date_year integer" style="shape=partialRectangle;overflow=hidden;connectable=0;fillColor=none;top=0;left=0;bottom=0;right=0;align=left;spacingLeft=6;fontFamily=Fira Code;strokeColor=#000000;" parent="8DQ1GMw1Qk0WIiFYgqin-2522" vertex="1">
          <mxGeometry x="30" width="270.14" height="30" as="geometry" />
        </mxCell>
        <mxCell id="8DQ1GMw1Qk0WIiFYgqin-2525" value="" style="shape=partialRectangle;collapsible=0;dropTarget=0;pointerEvents=0;fillColor=none;points=[[0,0.5],[1,0.5]];portConstraint=eastwest;top=0;left=0;right=0;bottom=0;fontFamily=Fira Code;strokeColor=#000000;" parent="8DQ1GMw1Qk0WIiFYgqin-2461" vertex="1">
          <mxGeometry y="660" width="300.14" height="30" as="geometry" />
        </mxCell>
        <mxCell id="8DQ1GMw1Qk0WIiFYgqin-2526" value="" style="shape=partialRectangle;overflow=hidden;connectable=0;fillColor=none;top=0;left=0;bottom=0;right=0;fontFamily=Fira Code;strokeColor=#000000;" parent="8DQ1GMw1Qk0WIiFYgqin-2525" vertex="1">
          <mxGeometry width="30" height="30" as="geometry" />
        </mxCell>
        <mxCell id="8DQ1GMw1Qk0WIiFYgqin-2527" value="date_month integer" style="shape=partialRectangle;overflow=hidden;connectable=0;fillColor=none;top=0;left=0;bottom=0;right=0;align=left;spacingLeft=6;fontFamily=Fira Code;strokeColor=#000000;" parent="8DQ1GMw1Qk0WIiFYgqin-2525" vertex="1">
          <mxGeometry x="30" width="270.14" height="30" as="geometry" />
        </mxCell>
        <mxCell id="8DQ1GMw1Qk0WIiFYgqin-2528" value="" style="shape=partialRectangle;collapsible=0;dropTarget=0;pointerEvents=0;fillColor=none;points=[[0,0.5],[1,0.5]];portConstraint=eastwest;top=0;left=0;right=0;bottom=0;fontFamily=Fira Code;strokeColor=#000000;" parent="8DQ1GMw1Qk0WIiFYgqin-2461" vertex="1">
          <mxGeometry y="690" width="300.14" height="30" as="geometry" />
        </mxCell>
        <mxCell id="8DQ1GMw1Qk0WIiFYgqin-2529" value="" style="shape=partialRectangle;overflow=hidden;connectable=0;fillColor=none;top=0;left=0;bottom=0;right=0;fontFamily=Fira Code;strokeColor=#000000;" parent="8DQ1GMw1Qk0WIiFYgqin-2528" vertex="1">
          <mxGeometry width="30" height="30" as="geometry" />
        </mxCell>
        <mxCell id="8DQ1GMw1Qk0WIiFYgqin-2530" value="date_day integer" style="shape=partialRectangle;overflow=hidden;connectable=0;fillColor=none;top=0;left=0;bottom=0;right=0;align=left;spacingLeft=6;fontFamily=Fira Code;strokeColor=#000000;" parent="8DQ1GMw1Qk0WIiFYgqin-2528" vertex="1">
          <mxGeometry x="30" width="270.14" height="30" as="geometry" />
        </mxCell>
        <mxCell id="8DQ1GMw1Qk0WIiFYgqin-2531" value="" style="shape=partialRectangle;collapsible=0;dropTarget=0;pointerEvents=0;fillColor=none;points=[[0,0.5],[1,0.5]];portConstraint=eastwest;top=0;left=0;right=0;bottom=0;fontFamily=Fira Code;strokeColor=#000000;" parent="8DQ1GMw1Qk0WIiFYgqin-2461" vertex="1">
          <mxGeometry y="720" width="300.14" height="30" as="geometry" />
        </mxCell>
        <mxCell id="8DQ1GMw1Qk0WIiFYgqin-2532" value="" style="shape=partialRectangle;overflow=hidden;connectable=0;fillColor=none;top=0;left=0;bottom=0;right=0;fontFamily=Fira Code;strokeColor=#000000;" parent="8DQ1GMw1Qk0WIiFYgqin-2531" vertex="1">
          <mxGeometry width="30" height="30" as="geometry" />
        </mxCell>
        <mxCell id="8DQ1GMw1Qk0WIiFYgqin-2533" value="time_hour integer" style="shape=partialRectangle;overflow=hidden;connectable=0;fillColor=none;top=0;left=0;bottom=0;right=0;align=left;spacingLeft=6;fontFamily=Fira Code;strokeColor=#000000;" parent="8DQ1GMw1Qk0WIiFYgqin-2531" vertex="1">
          <mxGeometry x="30" width="270.14" height="30" as="geometry" />
        </mxCell>
        <mxCell id="8DQ1GMw1Qk0WIiFYgqin-2534" value="" style="shape=partialRectangle;collapsible=0;dropTarget=0;pointerEvents=0;fillColor=none;points=[[0,0.5],[1,0.5]];portConstraint=eastwest;top=0;left=0;right=0;bottom=0;fontFamily=Fira Code;strokeColor=#000000;" parent="8DQ1GMw1Qk0WIiFYgqin-2461" vertex="1">
          <mxGeometry y="750" width="300.14" height="30" as="geometry" />
        </mxCell>
        <mxCell id="8DQ1GMw1Qk0WIiFYgqin-2535" value="" style="shape=partialRectangle;overflow=hidden;connectable=0;fillColor=none;top=0;left=0;bottom=0;right=0;fontFamily=Fira Code;strokeColor=#000000;" parent="8DQ1GMw1Qk0WIiFYgqin-2534" vertex="1">
          <mxGeometry width="30" height="30" as="geometry" />
        </mxCell>
        <mxCell id="8DQ1GMw1Qk0WIiFYgqin-2536" value="time_minute integer" style="shape=partialRectangle;overflow=hidden;connectable=0;fillColor=none;top=0;left=0;bottom=0;right=0;align=left;spacingLeft=6;fontFamily=Fira Code;strokeColor=#000000;" parent="8DQ1GMw1Qk0WIiFYgqin-2534" vertex="1">
          <mxGeometry x="30" width="270.14" height="30" as="geometry" />
        </mxCell>
        <mxCell id="8DQ1GMw1Qk0WIiFYgqin-2537" value="treatments" style="shape=table;startSize=30;container=1;collapsible=1;childLayout=tableLayout;fixedRows=1;rowLines=0;fontStyle=1;align=center;resizeLast=1;fontFamily=Fira Code;fillColor=#D5E8D4;strokeColor=#000000;" parent="1" vertex="1">
          <mxGeometry x="-3075.14" y="-1270" width="285.1399999999999" height="160" as="geometry" />
        </mxCell>
        <mxCell id="8DQ1GMw1Qk0WIiFYgqin-2538" value="" style="shape=partialRectangle;collapsible=0;dropTarget=0;pointerEvents=0;fillColor=none;points=[[0,0.5],[1,0.5]];portConstraint=eastwest;top=0;left=0;right=0;bottom=0;fontFamily=Fira Code;strokeColor=#000000;" parent="8DQ1GMw1Qk0WIiFYgqin-2537" vertex="1">
          <mxGeometry y="30" width="285.1399999999999" height="30" as="geometry" />
        </mxCell>
        <mxCell id="8DQ1GMw1Qk0WIiFYgqin-2539" value="" style="shape=partialRectangle;overflow=hidden;connectable=0;fillColor=none;top=0;left=0;bottom=0;right=0;fontFamily=Fira Code;strokeColor=#000000;" parent="8DQ1GMw1Qk0WIiFYgqin-2538" vertex="1">
          <mxGeometry width="30" height="30" as="geometry" />
        </mxCell>
        <mxCell id="8DQ1GMw1Qk0WIiFYgqin-2540" value="id bigint " style="shape=partialRectangle;overflow=hidden;connectable=0;fillColor=none;top=0;left=0;bottom=0;right=0;align=left;spacingLeft=6;fontFamily=Fira Code;strokeColor=#000000;" parent="8DQ1GMw1Qk0WIiFYgqin-2538" vertex="1">
          <mxGeometry x="30" width="255.13999999999987" height="30" as="geometry" />
        </mxCell>
        <mxCell id="8DQ1GMw1Qk0WIiFYgqin-2541" value="" style="shape=partialRectangle;collapsible=0;dropTarget=0;pointerEvents=0;fillColor=none;points=[[0,0.5],[1,0.5]];portConstraint=eastwest;top=0;left=0;right=0;bottom=0;fontFamily=Fira Code;strokeColor=#000000;" parent="8DQ1GMw1Qk0WIiFYgqin-2537" vertex="1">
          <mxGeometry y="60" width="285.1399999999999" height="30" as="geometry" />
        </mxCell>
        <mxCell id="8DQ1GMw1Qk0WIiFYgqin-2542" value="" style="shape=partialRectangle;overflow=hidden;connectable=0;fillColor=none;top=0;left=0;bottom=0;right=0;fontFamily=Fira Code;strokeColor=#000000;" parent="8DQ1GMw1Qk0WIiFYgqin-2541" vertex="1">
          <mxGeometry width="30" height="30" as="geometry" />
        </mxCell>
        <mxCell id="8DQ1GMw1Qk0WIiFYgqin-2543" value="name character varying(255) " style="shape=partialRectangle;overflow=hidden;connectable=0;fillColor=none;top=0;left=0;bottom=0;right=0;align=left;spacingLeft=6;fontFamily=Fira Code;strokeColor=#000000;" parent="8DQ1GMw1Qk0WIiFYgqin-2541" vertex="1">
          <mxGeometry x="30" width="255.13999999999987" height="30" as="geometry" />
        </mxCell>
        <mxCell id="8DQ1GMw1Qk0WIiFYgqin-2544" value="" style="shape=partialRectangle;collapsible=0;dropTarget=0;pointerEvents=0;fillColor=none;points=[[0,0.5],[1,0.5]];portConstraint=eastwest;top=0;left=0;right=0;bottom=0;fontFamily=Fira Code;strokeColor=#000000;" parent="8DQ1GMw1Qk0WIiFYgqin-2537" vertex="1">
          <mxGeometry y="90" width="285.1399999999999" height="30" as="geometry" />
        </mxCell>
        <mxCell id="8DQ1GMw1Qk0WIiFYgqin-2545" value="" style="shape=partialRectangle;overflow=hidden;connectable=0;fillColor=none;top=0;left=0;bottom=0;right=0;fontFamily=Fira Code;strokeColor=#000000;" parent="8DQ1GMw1Qk0WIiFYgqin-2544" vertex="1">
          <mxGeometry width="30" height="30" as="geometry" />
        </mxCell>
        <mxCell id="8DQ1GMw1Qk0WIiFYgqin-2546" value="definition character varying(255) " style="shape=partialRectangle;overflow=hidden;connectable=0;fillColor=none;top=0;left=0;bottom=0;right=0;align=left;spacingLeft=6;fontFamily=Fira Code;strokeColor=#000000;" parent="8DQ1GMw1Qk0WIiFYgqin-2544" vertex="1">
          <mxGeometry x="30" width="255.13999999999987" height="30" as="geometry" />
        </mxCell>
        <mxCell id="8DQ1GMw1Qk0WIiFYgqin-2547" value="" style="shape=partialRectangle;collapsible=0;dropTarget=0;pointerEvents=0;fillColor=none;points=[[0,0.5],[1,0.5]];portConstraint=eastwest;top=0;left=0;right=0;bottom=0;fontFamily=Fira Code;strokeColor=#000000;" parent="8DQ1GMw1Qk0WIiFYgqin-2537" vertex="1">
          <mxGeometry y="120" width="285.1399999999999" height="30" as="geometry" />
        </mxCell>
        <mxCell id="8DQ1GMw1Qk0WIiFYgqin-2548" value="" style="shape=partialRectangle;overflow=hidden;connectable=0;fillColor=none;top=0;left=0;bottom=0;right=0;fontFamily=Fira Code;strokeColor=#000000;" parent="8DQ1GMw1Qk0WIiFYgqin-2547" vertex="1">
          <mxGeometry width="30" height="30" as="geometry" />
        </mxCell>
        <mxCell id="8DQ1GMw1Qk0WIiFYgqin-2549" value="control boolean" style="shape=partialRectangle;overflow=hidden;connectable=0;fillColor=none;top=0;left=0;bottom=0;right=0;align=left;spacingLeft=6;fontFamily=Fira Code;strokeColor=#000000;" parent="8DQ1GMw1Qk0WIiFYgqin-2547" vertex="1">
          <mxGeometry x="30" width="255.13999999999987" height="30" as="geometry" />
        </mxCell>
        <mxCell id="8DQ1GMw1Qk0WIiFYgqin-2550" value="variables" style="shape=table;startSize=30;container=1;collapsible=1;childLayout=tableLayout;fixedRows=1;rowLines=0;fontStyle=1;align=center;resizeLast=1;fontFamily=Fira Code;fillColor=#dae8fc;strokeColor=#000000;" parent="1" vertex="1">
          <mxGeometry x="-3775.14" y="-2990" width="310" height="370" as="geometry" />
        </mxCell>
        <mxCell id="8DQ1GMw1Qk0WIiFYgqin-2551" value="" style="shape=partialRectangle;collapsible=0;dropTarget=0;pointerEvents=0;fillColor=none;points=[[0,0.5],[1,0.5]];portConstraint=eastwest;top=0;left=0;right=0;bottom=0;fontFamily=Fira Code;strokeColor=#000000;" parent="8DQ1GMw1Qk0WIiFYgqin-2550" vertex="1">
          <mxGeometry y="30" width="310" height="30" as="geometry" />
        </mxCell>
        <mxCell id="8DQ1GMw1Qk0WIiFYgqin-2552" value="" style="shape=partialRectangle;overflow=hidden;connectable=0;fillColor=none;top=0;left=0;bottom=0;right=0;fontFamily=Fira Code;strokeColor=#000000;" parent="8DQ1GMw1Qk0WIiFYgqin-2551" vertex="1">
          <mxGeometry width="30" height="30" as="geometry" />
        </mxCell>
        <mxCell id="8DQ1GMw1Qk0WIiFYgqin-2553" value="id bigint " style="shape=partialRectangle;overflow=hidden;connectable=0;fillColor=none;top=0;left=0;bottom=0;right=0;align=left;spacingLeft=6;fontFamily=Fira Code;strokeColor=#000000;" parent="8DQ1GMw1Qk0WIiFYgqin-2551" vertex="1">
          <mxGeometry x="30" width="280" height="30" as="geometry" />
        </mxCell>
        <mxCell id="8DQ1GMw1Qk0WIiFYgqin-2554" value="" style="shape=partialRectangle;collapsible=0;dropTarget=0;pointerEvents=0;fillColor=none;points=[[0,0.5],[1,0.5]];portConstraint=eastwest;top=0;left=0;right=0;bottom=0;fontFamily=Fira Code;strokeColor=#000000;" parent="8DQ1GMw1Qk0WIiFYgqin-2550" vertex="1">
          <mxGeometry y="60" width="310" height="30" as="geometry" />
        </mxCell>
        <mxCell id="8DQ1GMw1Qk0WIiFYgqin-2555" value="" style="shape=partialRectangle;overflow=hidden;connectable=0;fillColor=none;top=0;left=0;bottom=0;right=0;fontFamily=Fira Code;strokeColor=#000000;" parent="8DQ1GMw1Qk0WIiFYgqin-2554" vertex="1">
          <mxGeometry width="30" height="30" as="geometry" />
        </mxCell>
        <mxCell id="8DQ1GMw1Qk0WIiFYgqin-2556" value="description character varying(255) " style="shape=partialRectangle;overflow=hidden;connectable=0;fillColor=none;top=0;left=0;bottom=0;right=0;align=left;spacingLeft=6;fontFamily=Fira Code;strokeColor=#000000;" parent="8DQ1GMw1Qk0WIiFYgqin-2554" vertex="1">
          <mxGeometry x="30" width="280" height="30" as="geometry" />
        </mxCell>
        <mxCell id="8DQ1GMw1Qk0WIiFYgqin-2557" value="" style="shape=partialRectangle;collapsible=0;dropTarget=0;pointerEvents=0;fillColor=none;points=[[0,0.5],[1,0.5]];portConstraint=eastwest;top=0;left=0;right=0;bottom=0;fontFamily=Fira Code;strokeColor=#000000;" parent="8DQ1GMw1Qk0WIiFYgqin-2550" vertex="1">
          <mxGeometry y="90" width="310" height="30" as="geometry" />
        </mxCell>
        <mxCell id="8DQ1GMw1Qk0WIiFYgqin-2558" value="" style="shape=partialRectangle;overflow=hidden;connectable=0;fillColor=none;top=0;left=0;bottom=0;right=0;fontFamily=Fira Code;strokeColor=#000000;" parent="8DQ1GMw1Qk0WIiFYgqin-2557" vertex="1">
          <mxGeometry width="30" height="30" as="geometry" />
        </mxCell>
        <mxCell id="8DQ1GMw1Qk0WIiFYgqin-2559" value="units character varying(255) " style="shape=partialRectangle;overflow=hidden;connectable=0;fillColor=none;top=0;left=0;bottom=0;right=0;align=left;spacingLeft=6;fontFamily=Fira Code;strokeColor=#000000;" parent="8DQ1GMw1Qk0WIiFYgqin-2557" vertex="1">
          <mxGeometry x="30" width="280" height="30" as="geometry" />
        </mxCell>
        <mxCell id="8DQ1GMw1Qk0WIiFYgqin-2560" value="" style="shape=partialRectangle;collapsible=0;dropTarget=0;pointerEvents=0;fillColor=none;points=[[0,0.5],[1,0.5]];portConstraint=eastwest;top=0;left=0;right=0;bottom=0;fontFamily=Fira Code;strokeColor=#000000;" parent="8DQ1GMw1Qk0WIiFYgqin-2550" vertex="1">
          <mxGeometry y="120" width="310" height="30" as="geometry" />
        </mxCell>
        <mxCell id="8DQ1GMw1Qk0WIiFYgqin-2561" value="" style="shape=partialRectangle;overflow=hidden;connectable=0;fillColor=none;top=0;left=0;bottom=0;right=0;fontFamily=Fira Code;strokeColor=#000000;" parent="8DQ1GMw1Qk0WIiFYgqin-2560" vertex="1">
          <mxGeometry width="30" height="30" as="geometry" />
        </mxCell>
        <mxCell id="8DQ1GMw1Qk0WIiFYgqin-2562" value="notes text " style="shape=partialRectangle;overflow=hidden;connectable=0;fillColor=none;top=0;left=0;bottom=0;right=0;align=left;spacingLeft=6;fontFamily=Fira Code;strokeColor=#000000;" parent="8DQ1GMw1Qk0WIiFYgqin-2560" vertex="1">
          <mxGeometry x="30" width="280" height="30" as="geometry" />
        </mxCell>
        <mxCell id="8DQ1GMw1Qk0WIiFYgqin-2563" value="" style="shape=partialRectangle;collapsible=0;dropTarget=0;pointerEvents=0;fillColor=none;points=[[0,0.5],[1,0.5]];portConstraint=eastwest;top=0;left=0;right=0;bottom=0;fontFamily=Fira Code;strokeColor=#000000;" parent="8DQ1GMw1Qk0WIiFYgqin-2550" vertex="1">
          <mxGeometry y="150" width="310" height="30" as="geometry" />
        </mxCell>
        <mxCell id="8DQ1GMw1Qk0WIiFYgqin-2564" value="" style="shape=partialRectangle;overflow=hidden;connectable=0;fillColor=none;top=0;left=0;bottom=0;right=0;fontFamily=Fira Code;strokeColor=#000000;" parent="8DQ1GMw1Qk0WIiFYgqin-2563" vertex="1">
          <mxGeometry width="30" height="30" as="geometry" />
        </mxCell>
        <mxCell id="8DQ1GMw1Qk0WIiFYgqin-2565" value="name character varying(255) " style="shape=partialRectangle;overflow=hidden;connectable=0;fillColor=none;top=0;left=0;bottom=0;right=0;align=left;spacingLeft=6;fontFamily=Fira Code;strokeColor=#000000;" parent="8DQ1GMw1Qk0WIiFYgqin-2563" vertex="1">
          <mxGeometry x="30" width="280" height="30" as="geometry" />
        </mxCell>
        <mxCell id="8DQ1GMw1Qk0WIiFYgqin-2566" value="" style="shape=partialRectangle;collapsible=0;dropTarget=0;pointerEvents=0;fillColor=none;points=[[0,0.5],[1,0.5]];portConstraint=eastwest;top=0;left=0;right=0;bottom=0;fontFamily=Fira Code;strokeColor=#000000;" parent="8DQ1GMw1Qk0WIiFYgqin-2550" vertex="1">
          <mxGeometry y="180" width="310" height="30" as="geometry" />
        </mxCell>
        <mxCell id="8DQ1GMw1Qk0WIiFYgqin-2567" value="" style="shape=partialRectangle;overflow=hidden;connectable=0;fillColor=none;top=0;left=0;bottom=0;right=0;fontFamily=Fira Code;strokeColor=#000000;" parent="8DQ1GMw1Qk0WIiFYgqin-2566" vertex="1">
          <mxGeometry width="30" height="30" as="geometry" />
        </mxCell>
        <mxCell id="8DQ1GMw1Qk0WIiFYgqin-2568" value="max character varying(255) " style="shape=partialRectangle;overflow=hidden;connectable=0;fillColor=none;top=0;left=0;bottom=0;right=0;align=left;spacingLeft=6;fontFamily=Fira Code;strokeColor=#000000;" parent="8DQ1GMw1Qk0WIiFYgqin-2566" vertex="1">
          <mxGeometry x="30" width="280" height="30" as="geometry" />
        </mxCell>
        <mxCell id="8DQ1GMw1Qk0WIiFYgqin-2569" value="" style="shape=partialRectangle;collapsible=0;dropTarget=0;pointerEvents=0;fillColor=none;points=[[0,0.5],[1,0.5]];portConstraint=eastwest;top=0;left=0;right=0;bottom=0;fontFamily=Fira Code;strokeColor=#000000;" parent="8DQ1GMw1Qk0WIiFYgqin-2550" vertex="1">
          <mxGeometry y="210" width="310" height="30" as="geometry" />
        </mxCell>
        <mxCell id="8DQ1GMw1Qk0WIiFYgqin-2570" value="" style="shape=partialRectangle;overflow=hidden;connectable=0;fillColor=none;top=0;left=0;bottom=0;right=0;fontFamily=Fira Code;strokeColor=#000000;" parent="8DQ1GMw1Qk0WIiFYgqin-2569" vertex="1">
          <mxGeometry width="30" height="30" as="geometry" />
        </mxCell>
        <mxCell id="8DQ1GMw1Qk0WIiFYgqin-2571" value="min character varying(255) " style="shape=partialRectangle;overflow=hidden;connectable=0;fillColor=none;top=0;left=0;bottom=0;right=0;align=left;spacingLeft=6;fontFamily=Fira Code;strokeColor=#000000;" parent="8DQ1GMw1Qk0WIiFYgqin-2569" vertex="1">
          <mxGeometry x="30" width="280" height="30" as="geometry" />
        </mxCell>
        <mxCell id="8DQ1GMw1Qk0WIiFYgqin-2572" value="" style="shape=partialRectangle;collapsible=0;dropTarget=0;pointerEvents=0;fillColor=none;points=[[0,0.5],[1,0.5]];portConstraint=eastwest;top=0;left=0;right=0;bottom=0;fontFamily=Fira Code;strokeColor=#000000;" parent="8DQ1GMw1Qk0WIiFYgqin-2550" vertex="1">
          <mxGeometry y="240" width="310" height="30" as="geometry" />
        </mxCell>
        <mxCell id="8DQ1GMw1Qk0WIiFYgqin-2573" value="" style="shape=partialRectangle;overflow=hidden;connectable=0;fillColor=none;top=0;left=0;bottom=0;right=0;fontFamily=Fira Code;strokeColor=#000000;" parent="8DQ1GMw1Qk0WIiFYgqin-2572" vertex="1">
          <mxGeometry width="30" height="30" as="geometry" />
        </mxCell>
        <mxCell id="8DQ1GMw1Qk0WIiFYgqin-2574" value="standard_name character varying(255)" style="shape=partialRectangle;overflow=hidden;connectable=0;fillColor=none;top=0;left=0;bottom=0;right=0;align=left;spacingLeft=6;fontFamily=Fira Code;strokeColor=#000000;" parent="8DQ1GMw1Qk0WIiFYgqin-2572" vertex="1">
          <mxGeometry x="30" width="280" height="30" as="geometry" />
        </mxCell>
        <mxCell id="8DQ1GMw1Qk0WIiFYgqin-2575" value="" style="shape=partialRectangle;collapsible=0;dropTarget=0;pointerEvents=0;fillColor=none;points=[[0,0.5],[1,0.5]];portConstraint=eastwest;top=0;left=0;right=0;bottom=0;fontFamily=Fira Code;strokeColor=#000000;" parent="8DQ1GMw1Qk0WIiFYgqin-2550" vertex="1">
          <mxGeometry y="270" width="310" height="30" as="geometry" />
        </mxCell>
        <mxCell id="8DQ1GMw1Qk0WIiFYgqin-2576" value="" style="shape=partialRectangle;overflow=hidden;connectable=0;fillColor=none;top=0;left=0;bottom=0;right=0;fontFamily=Fira Code;strokeColor=#000000;" parent="8DQ1GMw1Qk0WIiFYgqin-2575" vertex="1">
          <mxGeometry width="30" height="30" as="geometry" />
        </mxCell>
        <mxCell id="8DQ1GMw1Qk0WIiFYgqin-2577" value="standard_units character varying(255)" style="shape=partialRectangle;overflow=hidden;connectable=0;fillColor=none;top=0;left=0;bottom=0;right=0;align=left;spacingLeft=6;fontFamily=Fira Code;strokeColor=#000000;" parent="8DQ1GMw1Qk0WIiFYgqin-2575" vertex="1">
          <mxGeometry x="30" width="280" height="30" as="geometry" />
        </mxCell>
        <mxCell id="8DQ1GMw1Qk0WIiFYgqin-2578" value="" style="shape=partialRectangle;collapsible=0;dropTarget=0;pointerEvents=0;fillColor=none;points=[[0,0.5],[1,0.5]];portConstraint=eastwest;top=0;left=0;right=0;bottom=0;fontFamily=Fira Code;strokeColor=#000000;" parent="8DQ1GMw1Qk0WIiFYgqin-2550" vertex="1">
          <mxGeometry y="300" width="310" height="30" as="geometry" />
        </mxCell>
        <mxCell id="8DQ1GMw1Qk0WIiFYgqin-2579" value="" style="shape=partialRectangle;overflow=hidden;connectable=0;fillColor=none;top=0;left=0;bottom=0;right=0;fontFamily=Fira Code;strokeColor=#000000;" parent="8DQ1GMw1Qk0WIiFYgqin-2578" vertex="1">
          <mxGeometry width="30" height="30" as="geometry" />
        </mxCell>
        <mxCell id="8DQ1GMw1Qk0WIiFYgqin-2580" value="label character varying(255)" style="shape=partialRectangle;overflow=hidden;connectable=0;fillColor=none;top=0;left=0;bottom=0;right=0;align=left;spacingLeft=6;fontFamily=Fira Code;strokeColor=#000000;" parent="8DQ1GMw1Qk0WIiFYgqin-2578" vertex="1">
          <mxGeometry x="30" width="280" height="30" as="geometry" />
        </mxCell>
        <mxCell id="8DQ1GMw1Qk0WIiFYgqin-2581" value="" style="shape=partialRectangle;collapsible=0;dropTarget=0;pointerEvents=0;fillColor=none;points=[[0,0.5],[1,0.5]];portConstraint=eastwest;top=0;left=0;right=0;bottom=0;fontFamily=Fira Code;strokeColor=#000000;" parent="8DQ1GMw1Qk0WIiFYgqin-2550" vertex="1">
          <mxGeometry y="330" width="310" height="30" as="geometry" />
        </mxCell>
        <mxCell id="8DQ1GMw1Qk0WIiFYgqin-2582" value="" style="shape=partialRectangle;overflow=hidden;connectable=0;fillColor=none;top=0;left=0;bottom=0;right=0;fontFamily=Fira Code;strokeColor=#000000;" parent="8DQ1GMw1Qk0WIiFYgqin-2581" vertex="1">
          <mxGeometry width="30" height="30" as="geometry" />
        </mxCell>
        <mxCell id="8DQ1GMw1Qk0WIiFYgqin-2583" value="type character varying(255)" style="shape=partialRectangle;overflow=hidden;connectable=0;fillColor=none;top=0;left=0;bottom=0;right=0;align=left;spacingLeft=6;fontFamily=Fira Code;strokeColor=#000000;" parent="8DQ1GMw1Qk0WIiFYgqin-2581" vertex="1">
          <mxGeometry x="30" width="280" height="30" as="geometry" />
        </mxCell>
        <mxCell id="8DQ1GMw1Qk0WIiFYgqin-2621" value="yields" style="shape=table;startSize=30;container=1;collapsible=1;childLayout=tableLayout;fixedRows=1;rowLines=0;fontStyle=1;align=center;resizeLast=1;fontFamily=Fira Code;fillColor=#FFCCCC;strokeColor=#000000;" parent="1" vertex="1">
          <mxGeometry x="-3745.2799999999997" y="-1950" width="280.14" height="630" as="geometry" />
        </mxCell>
        <mxCell id="8DQ1GMw1Qk0WIiFYgqin-2622" value="" style="shape=partialRectangle;collapsible=0;dropTarget=0;pointerEvents=0;fillColor=none;points=[[0,0.5],[1,0.5]];portConstraint=eastwest;top=0;left=0;right=0;bottom=0;fontFamily=Fira Code;strokeColor=#000000;" parent="8DQ1GMw1Qk0WIiFYgqin-2621" vertex="1">
          <mxGeometry y="30" width="280.14" height="30" as="geometry" />
        </mxCell>
        <mxCell id="8DQ1GMw1Qk0WIiFYgqin-2623" value="" style="shape=partialRectangle;overflow=hidden;connectable=0;fillColor=none;top=0;left=0;bottom=0;right=0;fontFamily=Fira Code;strokeColor=#000000;" parent="8DQ1GMw1Qk0WIiFYgqin-2622" vertex="1">
          <mxGeometry width="30" height="30" as="geometry" />
        </mxCell>
        <mxCell id="8DQ1GMw1Qk0WIiFYgqin-2624" value="id bigint " style="shape=partialRectangle;overflow=hidden;connectable=0;fillColor=none;top=0;left=0;bottom=0;right=0;align=left;spacingLeft=6;fontFamily=Fira Code;strokeColor=#000000;" parent="8DQ1GMw1Qk0WIiFYgqin-2622" vertex="1">
          <mxGeometry x="30" width="250.14" height="30" as="geometry" />
        </mxCell>
        <mxCell id="8DQ1GMw1Qk0WIiFYgqin-2631" value="" style="shape=partialRectangle;collapsible=0;dropTarget=0;pointerEvents=0;fillColor=none;points=[[0,0.5],[1,0.5]];portConstraint=eastwest;top=0;left=0;right=0;bottom=0;fontFamily=Fira Code;strokeColor=#000000;" parent="8DQ1GMw1Qk0WIiFYgqin-2621" vertex="1">
          <mxGeometry y="60" width="280.14" height="30" as="geometry" />
        </mxCell>
        <mxCell id="8DQ1GMw1Qk0WIiFYgqin-2632" value="" style="shape=partialRectangle;overflow=hidden;connectable=0;fillColor=none;top=0;left=0;bottom=0;right=0;fontFamily=Fira Code;strokeColor=#000000;" parent="8DQ1GMw1Qk0WIiFYgqin-2631" vertex="1">
          <mxGeometry width="30" height="30" as="geometry" />
        </mxCell>
        <mxCell id="8DQ1GMw1Qk0WIiFYgqin-2633" value="specie_id bigint" style="shape=partialRectangle;overflow=hidden;connectable=0;fillColor=none;top=0;left=0;bottom=0;right=0;align=left;spacingLeft=6;fontFamily=Fira Code;strokeColor=#000000;" parent="8DQ1GMw1Qk0WIiFYgqin-2631" vertex="1">
          <mxGeometry x="30" width="250.14" height="30" as="geometry" />
        </mxCell>
        <mxCell id="8DQ1GMw1Qk0WIiFYgqin-2628" value="" style="shape=partialRectangle;collapsible=0;dropTarget=0;pointerEvents=0;fillColor=none;points=[[0,0.5],[1,0.5]];portConstraint=eastwest;top=0;left=0;right=0;bottom=0;fontFamily=Fira Code;strokeColor=#000000;" parent="8DQ1GMw1Qk0WIiFYgqin-2621" vertex="1">
          <mxGeometry y="90" width="280.14" height="30" as="geometry" />
        </mxCell>
        <mxCell id="8DQ1GMw1Qk0WIiFYgqin-2629" value="" style="shape=partialRectangle;overflow=hidden;connectable=0;fillColor=none;top=0;left=0;bottom=0;right=0;fontFamily=Fira Code;strokeColor=#000000;" parent="8DQ1GMw1Qk0WIiFYgqin-2628" vertex="1">
          <mxGeometry width="30" height="30" as="geometry" />
        </mxCell>
        <mxCell id="8DQ1GMw1Qk0WIiFYgqin-2630" value="site_id bigint" style="shape=partialRectangle;overflow=hidden;connectable=0;fillColor=none;top=0;left=0;bottom=0;right=0;align=left;spacingLeft=6;fontFamily=Fira Code;strokeColor=#000000;" parent="8DQ1GMw1Qk0WIiFYgqin-2628" vertex="1">
          <mxGeometry x="30" width="250.14" height="30" as="geometry" />
        </mxCell>
        <mxCell id="8DQ1GMw1Qk0WIiFYgqin-2637" value="" style="shape=partialRectangle;collapsible=0;dropTarget=0;pointerEvents=0;fillColor=none;points=[[0,0.5],[1,0.5]];portConstraint=eastwest;top=0;left=0;right=0;bottom=0;fontFamily=Fira Code;strokeColor=#000000;" parent="8DQ1GMw1Qk0WIiFYgqin-2621" vertex="1">
          <mxGeometry y="120" width="280.14" height="30" as="geometry" />
        </mxCell>
        <mxCell id="8DQ1GMw1Qk0WIiFYgqin-2638" value="" style="shape=partialRectangle;overflow=hidden;connectable=0;fillColor=none;top=0;left=0;bottom=0;right=0;fontFamily=Fira Code;strokeColor=#000000;" parent="8DQ1GMw1Qk0WIiFYgqin-2637" vertex="1">
          <mxGeometry width="30" height="30" as="geometry" />
        </mxCell>
        <mxCell id="8DQ1GMw1Qk0WIiFYgqin-2639" value="cultivar_id bigint" style="shape=partialRectangle;overflow=hidden;connectable=0;fillColor=none;top=0;left=0;bottom=0;right=0;align=left;spacingLeft=6;fontFamily=Fira Code;strokeColor=#000000;" parent="8DQ1GMw1Qk0WIiFYgqin-2637" vertex="1">
          <mxGeometry x="30" width="250.14" height="30" as="geometry" />
        </mxCell>
        <mxCell id="8DQ1GMw1Qk0WIiFYgqin-2625" value="" style="shape=partialRectangle;collapsible=0;dropTarget=0;pointerEvents=0;fillColor=none;points=[[0,0.5],[1,0.5]];portConstraint=eastwest;top=0;left=0;right=0;bottom=0;fontFamily=Fira Code;strokeColor=#000000;" parent="8DQ1GMw1Qk0WIiFYgqin-2621" vertex="1">
          <mxGeometry y="150" width="280.14" height="30" as="geometry" />
        </mxCell>
        <mxCell id="8DQ1GMw1Qk0WIiFYgqin-2626" value="" style="shape=partialRectangle;overflow=hidden;connectable=0;fillColor=none;top=0;left=0;bottom=0;right=0;fontFamily=Fira Code;strokeColor=#000000;" parent="8DQ1GMw1Qk0WIiFYgqin-2625" vertex="1">
          <mxGeometry width="30" height="30" as="geometry" />
        </mxCell>
        <mxCell id="8DQ1GMw1Qk0WIiFYgqin-2627" value="citation_id bigint" style="shape=partialRectangle;overflow=hidden;connectable=0;fillColor=none;top=0;left=0;bottom=0;right=0;align=left;spacingLeft=6;fontFamily=Fira Code;strokeColor=#000000;" parent="8DQ1GMw1Qk0WIiFYgqin-2625" vertex="1">
          <mxGeometry x="30" width="250.14" height="30" as="geometry" />
        </mxCell>
        <mxCell id="8DQ1GMw1Qk0WIiFYgqin-2634" value="" style="shape=partialRectangle;collapsible=0;dropTarget=0;pointerEvents=0;fillColor=none;points=[[0,0.5],[1,0.5]];portConstraint=eastwest;top=0;left=0;right=0;bottom=0;fontFamily=Fira Code;strokeColor=#000000;" parent="8DQ1GMw1Qk0WIiFYgqin-2621" vertex="1">
          <mxGeometry y="180" width="280.14" height="30" as="geometry" />
        </mxCell>
        <mxCell id="8DQ1GMw1Qk0WIiFYgqin-2635" value="" style="shape=partialRectangle;overflow=hidden;connectable=0;fillColor=none;top=0;left=0;bottom=0;right=0;fontFamily=Fira Code;strokeColor=#000000;" parent="8DQ1GMw1Qk0WIiFYgqin-2634" vertex="1">
          <mxGeometry width="30" height="30" as="geometry" />
        </mxCell>
        <mxCell id="8DQ1GMw1Qk0WIiFYgqin-2636" value="treatment_id bigint" style="shape=partialRectangle;overflow=hidden;connectable=0;fillColor=none;top=0;left=0;bottom=0;right=0;align=left;spacingLeft=6;fontFamily=Fira Code;strokeColor=#000000;" parent="8DQ1GMw1Qk0WIiFYgqin-2634" vertex="1">
          <mxGeometry x="30" width="250.14" height="30" as="geometry" />
        </mxCell>
        <mxCell id="8DQ1GMw1Qk0WIiFYgqin-2640" value="" style="shape=partialRectangle;collapsible=0;dropTarget=0;pointerEvents=0;fillColor=none;points=[[0,0.5],[1,0.5]];portConstraint=eastwest;top=0;left=0;right=0;bottom=0;fontFamily=Fira Code;strokeColor=#000000;" parent="8DQ1GMw1Qk0WIiFYgqin-2621" vertex="1">
          <mxGeometry y="210" width="280.14" height="30" as="geometry" />
        </mxCell>
        <mxCell id="8DQ1GMw1Qk0WIiFYgqin-2641" value="" style="shape=partialRectangle;overflow=hidden;connectable=0;fillColor=none;top=0;left=0;bottom=0;right=0;fontFamily=Fira Code;strokeColor=#000000;" parent="8DQ1GMw1Qk0WIiFYgqin-2640" vertex="1">
          <mxGeometry width="30" height="30" as="geometry" />
        </mxCell>
        <mxCell id="8DQ1GMw1Qk0WIiFYgqin-2642" value="date date" style="shape=partialRectangle;overflow=hidden;connectable=0;fillColor=none;top=0;left=0;bottom=0;right=0;align=left;spacingLeft=6;fontFamily=Fira Code;strokeColor=#000000;" parent="8DQ1GMw1Qk0WIiFYgqin-2640" vertex="1">
          <mxGeometry x="30" width="250.14" height="30" as="geometry" />
        </mxCell>
        <mxCell id="8DQ1GMw1Qk0WIiFYgqin-2643" value="" style="shape=partialRectangle;collapsible=0;dropTarget=0;pointerEvents=0;fillColor=none;points=[[0,0.5],[1,0.5]];portConstraint=eastwest;top=0;left=0;right=0;bottom=0;fontFamily=Fira Code;strokeColor=#000000;" parent="8DQ1GMw1Qk0WIiFYgqin-2621" vertex="1">
          <mxGeometry y="240" width="280.14" height="30" as="geometry" />
        </mxCell>
        <mxCell id="8DQ1GMw1Qk0WIiFYgqin-2644" value="" style="shape=partialRectangle;overflow=hidden;connectable=0;fillColor=none;top=0;left=0;bottom=0;right=0;fontFamily=Fira Code;strokeColor=#000000;" parent="8DQ1GMw1Qk0WIiFYgqin-2643" vertex="1">
          <mxGeometry width="30" height="30" as="geometry" />
        </mxCell>
        <mxCell id="8DQ1GMw1Qk0WIiFYgqin-2645" value="dateloc numeric(4, 2)" style="shape=partialRectangle;overflow=hidden;connectable=0;fillColor=none;top=0;left=0;bottom=0;right=0;align=left;spacingLeft=6;fontFamily=Fira Code;strokeColor=#000000;" parent="8DQ1GMw1Qk0WIiFYgqin-2643" vertex="1">
          <mxGeometry x="30" width="250.14" height="30" as="geometry" />
        </mxCell>
        <mxCell id="8DQ1GMw1Qk0WIiFYgqin-2646" value="" style="shape=partialRectangle;collapsible=0;dropTarget=0;pointerEvents=0;fillColor=none;points=[[0,0.5],[1,0.5]];portConstraint=eastwest;top=0;left=0;right=0;bottom=0;fontFamily=Fira Code;strokeColor=#000000;" parent="8DQ1GMw1Qk0WIiFYgqin-2621" vertex="1">
          <mxGeometry y="270" width="280.14" height="30" as="geometry" />
        </mxCell>
        <mxCell id="8DQ1GMw1Qk0WIiFYgqin-2647" value="" style="shape=partialRectangle;overflow=hidden;connectable=0;fillColor=none;top=0;left=0;bottom=0;right=0;fontFamily=Fira Code;strokeColor=#000000;" parent="8DQ1GMw1Qk0WIiFYgqin-2646" vertex="1">
          <mxGeometry width="30" height="30" as="geometry" />
        </mxCell>
        <mxCell id="8DQ1GMw1Qk0WIiFYgqin-2648" value="statname statnames" style="shape=partialRectangle;overflow=hidden;connectable=0;fillColor=none;top=0;left=0;bottom=0;right=0;align=left;spacingLeft=6;fontFamily=Fira Code;strokeColor=#000000;" parent="8DQ1GMw1Qk0WIiFYgqin-2646" vertex="1">
          <mxGeometry x="30" width="250.14" height="30" as="geometry" />
        </mxCell>
        <mxCell id="8DQ1GMw1Qk0WIiFYgqin-2649" value="" style="shape=partialRectangle;collapsible=0;dropTarget=0;pointerEvents=0;fillColor=none;points=[[0,0.5],[1,0.5]];portConstraint=eastwest;top=0;left=0;right=0;bottom=0;fontFamily=Fira Code;strokeColor=#000000;" parent="8DQ1GMw1Qk0WIiFYgqin-2621" vertex="1">
          <mxGeometry y="300" width="280.14" height="30" as="geometry" />
        </mxCell>
        <mxCell id="8DQ1GMw1Qk0WIiFYgqin-2650" value="" style="shape=partialRectangle;overflow=hidden;connectable=0;fillColor=none;top=0;left=0;bottom=0;right=0;fontFamily=Fira Code;strokeColor=#000000;" parent="8DQ1GMw1Qk0WIiFYgqin-2649" vertex="1">
          <mxGeometry width="30" height="30" as="geometry" />
        </mxCell>
        <mxCell id="8DQ1GMw1Qk0WIiFYgqin-2651" value="stat double precision" style="shape=partialRectangle;overflow=hidden;connectable=0;fillColor=none;top=0;left=0;bottom=0;right=0;align=left;spacingLeft=6;fontFamily=Fira Code;strokeColor=#000000;" parent="8DQ1GMw1Qk0WIiFYgqin-2649" vertex="1">
          <mxGeometry x="30" width="250.14" height="30" as="geometry" />
        </mxCell>
        <mxCell id="8DQ1GMw1Qk0WIiFYgqin-2652" value="" style="shape=partialRectangle;collapsible=0;dropTarget=0;pointerEvents=0;fillColor=none;points=[[0,0.5],[1,0.5]];portConstraint=eastwest;top=0;left=0;right=0;bottom=0;fontFamily=Fira Code;strokeColor=#000000;" parent="8DQ1GMw1Qk0WIiFYgqin-2621" vertex="1">
          <mxGeometry y="330" width="280.14" height="30" as="geometry" />
        </mxCell>
        <mxCell id="8DQ1GMw1Qk0WIiFYgqin-2653" value="" style="shape=partialRectangle;overflow=hidden;connectable=0;fillColor=none;top=0;left=0;bottom=0;right=0;fontFamily=Fira Code;strokeColor=#000000;" parent="8DQ1GMw1Qk0WIiFYgqin-2652" vertex="1">
          <mxGeometry width="30" height="30" as="geometry" />
        </mxCell>
        <mxCell id="8DQ1GMw1Qk0WIiFYgqin-2654" value="mean double precision " style="shape=partialRectangle;overflow=hidden;connectable=0;fillColor=none;top=0;left=0;bottom=0;right=0;align=left;spacingLeft=6;fontFamily=Fira Code;strokeColor=#000000;" parent="8DQ1GMw1Qk0WIiFYgqin-2652" vertex="1">
          <mxGeometry x="30" width="250.14" height="30" as="geometry" />
        </mxCell>
        <mxCell id="8DQ1GMw1Qk0WIiFYgqin-2655" value="" style="shape=partialRectangle;collapsible=0;dropTarget=0;pointerEvents=0;fillColor=none;points=[[0,0.5],[1,0.5]];portConstraint=eastwest;top=0;left=0;right=0;bottom=0;fontFamily=Fira Code;strokeColor=#000000;" parent="8DQ1GMw1Qk0WIiFYgqin-2621" vertex="1">
          <mxGeometry y="360" width="280.14" height="30" as="geometry" />
        </mxCell>
        <mxCell id="8DQ1GMw1Qk0WIiFYgqin-2656" value="" style="shape=partialRectangle;overflow=hidden;connectable=0;fillColor=none;top=0;left=0;bottom=0;right=0;fontFamily=Fira Code;strokeColor=#000000;" parent="8DQ1GMw1Qk0WIiFYgqin-2655" vertex="1">
          <mxGeometry width="30" height="30" as="geometry" />
        </mxCell>
        <mxCell id="8DQ1GMw1Qk0WIiFYgqin-2657" value="n integer" style="shape=partialRectangle;overflow=hidden;connectable=0;fillColor=none;top=0;left=0;bottom=0;right=0;align=left;spacingLeft=6;fontFamily=Fira Code;strokeColor=#000000;" parent="8DQ1GMw1Qk0WIiFYgqin-2655" vertex="1">
          <mxGeometry x="30" width="250.14" height="30" as="geometry" />
        </mxCell>
        <mxCell id="8DQ1GMw1Qk0WIiFYgqin-2658" value="" style="shape=partialRectangle;collapsible=0;dropTarget=0;pointerEvents=0;fillColor=none;points=[[0,0.5],[1,0.5]];portConstraint=eastwest;top=0;left=0;right=0;bottom=0;fontFamily=Fira Code;strokeColor=#000000;" parent="8DQ1GMw1Qk0WIiFYgqin-2621" vertex="1">
          <mxGeometry y="390" width="280.14" height="30" as="geometry" />
        </mxCell>
        <mxCell id="8DQ1GMw1Qk0WIiFYgqin-2659" value="" style="shape=partialRectangle;overflow=hidden;connectable=0;fillColor=none;top=0;left=0;bottom=0;right=0;fontFamily=Fira Code;strokeColor=#000000;" parent="8DQ1GMw1Qk0WIiFYgqin-2658" vertex="1">
          <mxGeometry width="30" height="30" as="geometry" />
        </mxCell>
        <mxCell id="8DQ1GMw1Qk0WIiFYgqin-2660" value="notes text " style="shape=partialRectangle;overflow=hidden;connectable=0;fillColor=none;top=0;left=0;bottom=0;right=0;align=left;spacingLeft=6;fontFamily=Fira Code;strokeColor=#000000;" parent="8DQ1GMw1Qk0WIiFYgqin-2658" vertex="1">
          <mxGeometry x="30" width="250.14" height="30" as="geometry" />
        </mxCell>
        <mxCell id="8DQ1GMw1Qk0WIiFYgqin-2661" value="" style="shape=partialRectangle;collapsible=0;dropTarget=0;pointerEvents=0;fillColor=none;points=[[0,0.5],[1,0.5]];portConstraint=eastwest;top=0;left=0;right=0;bottom=0;fontFamily=Fira Code;strokeColor=#000000;" parent="8DQ1GMw1Qk0WIiFYgqin-2621" vertex="1">
          <mxGeometry y="420" width="280.14" height="30" as="geometry" />
        </mxCell>
        <mxCell id="8DQ1GMw1Qk0WIiFYgqin-2662" value="" style="shape=partialRectangle;overflow=hidden;connectable=0;fillColor=none;top=0;left=0;bottom=0;right=0;fontFamily=Fira Code;strokeColor=#000000;" parent="8DQ1GMw1Qk0WIiFYgqin-2661" vertex="1">
          <mxGeometry width="30" height="30" as="geometry" />
        </mxCell>
        <mxCell id="8DQ1GMw1Qk0WIiFYgqin-2663" value="checked integer " style="shape=partialRectangle;overflow=hidden;connectable=0;fillColor=none;top=0;left=0;bottom=0;right=0;align=left;spacingLeft=6;fontFamily=Fira Code;strokeColor=#000000;" parent="8DQ1GMw1Qk0WIiFYgqin-2661" vertex="1">
          <mxGeometry x="30" width="250.14" height="30" as="geometry" />
        </mxCell>
        <mxCell id="8DQ1GMw1Qk0WIiFYgqin-2664" value="" style="shape=partialRectangle;collapsible=0;dropTarget=0;pointerEvents=0;fillColor=none;points=[[0,0.5],[1,0.5]];portConstraint=eastwest;top=0;left=0;right=0;bottom=0;fontFamily=Fira Code;strokeColor=#000000;" parent="8DQ1GMw1Qk0WIiFYgqin-2621" vertex="1">
          <mxGeometry y="450" width="280.14" height="30" as="geometry" />
        </mxCell>
        <mxCell id="8DQ1GMw1Qk0WIiFYgqin-2665" value="" style="shape=partialRectangle;overflow=hidden;connectable=0;fillColor=none;top=0;left=0;bottom=0;right=0;fontFamily=Fira Code;strokeColor=#000000;" parent="8DQ1GMw1Qk0WIiFYgqin-2664" vertex="1">
          <mxGeometry width="30" height="30" as="geometry" />
        </mxCell>
        <mxCell id="8DQ1GMw1Qk0WIiFYgqin-2666" value="access_level level_of_access" style="shape=partialRectangle;overflow=hidden;connectable=0;fillColor=none;top=0;left=0;bottom=0;right=0;align=left;spacingLeft=6;fontFamily=Fira Code;strokeColor=#000000;" parent="8DQ1GMw1Qk0WIiFYgqin-2664" vertex="1">
          <mxGeometry x="30" width="250.14" height="30" as="geometry" />
        </mxCell>
        <mxCell id="8DQ1GMw1Qk0WIiFYgqin-2667" value="" style="shape=partialRectangle;collapsible=0;dropTarget=0;pointerEvents=0;fillColor=none;points=[[0,0.5],[1,0.5]];portConstraint=eastwest;top=0;left=0;right=0;bottom=0;fontFamily=Fira Code;strokeColor=#000000;" parent="8DQ1GMw1Qk0WIiFYgqin-2621" vertex="1">
          <mxGeometry y="480" width="280.14" height="30" as="geometry" />
        </mxCell>
        <mxCell id="8DQ1GMw1Qk0WIiFYgqin-2668" value="" style="shape=partialRectangle;overflow=hidden;connectable=0;fillColor=none;top=0;left=0;bottom=0;right=0;fontFamily=Fira Code;strokeColor=#000000;" parent="8DQ1GMw1Qk0WIiFYgqin-2667" vertex="1">
          <mxGeometry width="30" height="30" as="geometry" />
        </mxCell>
        <mxCell id="8DQ1GMw1Qk0WIiFYgqin-2669" value="method_id bigint" style="shape=partialRectangle;overflow=hidden;connectable=0;fillColor=none;top=0;left=0;bottom=0;right=0;align=left;spacingLeft=6;fontFamily=Fira Code;strokeColor=#000000;" parent="8DQ1GMw1Qk0WIiFYgqin-2667" vertex="1">
          <mxGeometry x="30" width="250.14" height="30" as="geometry" />
        </mxCell>
        <mxCell id="8DQ1GMw1Qk0WIiFYgqin-2670" value="" style="shape=partialRectangle;collapsible=0;dropTarget=0;pointerEvents=0;fillColor=none;points=[[0,0.5],[1,0.5]];portConstraint=eastwest;top=0;left=0;right=0;bottom=0;fontFamily=Fira Code;strokeColor=#000000;" parent="8DQ1GMw1Qk0WIiFYgqin-2621" vertex="1">
          <mxGeometry y="510" width="280.14" height="30" as="geometry" />
        </mxCell>
        <mxCell id="8DQ1GMw1Qk0WIiFYgqin-2671" value="" style="shape=partialRectangle;overflow=hidden;connectable=0;fillColor=none;top=0;left=0;bottom=0;right=0;fontFamily=Fira Code;strokeColor=#000000;" parent="8DQ1GMw1Qk0WIiFYgqin-2670" vertex="1">
          <mxGeometry width="30" height="30" as="geometry" />
        </mxCell>
        <mxCell id="8DQ1GMw1Qk0WIiFYgqin-2672" value="entity_id bigint" style="shape=partialRectangle;overflow=hidden;connectable=0;fillColor=none;top=0;left=0;bottom=0;right=0;align=left;spacingLeft=6;fontFamily=Fira Code;strokeColor=#000000;" parent="8DQ1GMw1Qk0WIiFYgqin-2670" vertex="1">
          <mxGeometry x="30" width="250.14" height="30" as="geometry" />
        </mxCell>
        <mxCell id="8DQ1GMw1Qk0WIiFYgqin-2673" value="" style="shape=partialRectangle;collapsible=0;dropTarget=0;pointerEvents=0;fillColor=none;points=[[0,0.5],[1,0.5]];portConstraint=eastwest;top=0;left=0;right=0;bottom=0;fontFamily=Fira Code;strokeColor=#000000;" parent="8DQ1GMw1Qk0WIiFYgqin-2621" vertex="1">
          <mxGeometry y="540" width="280.14" height="30" as="geometry" />
        </mxCell>
        <mxCell id="8DQ1GMw1Qk0WIiFYgqin-2674" value="" style="shape=partialRectangle;overflow=hidden;connectable=0;fillColor=none;top=0;left=0;bottom=0;right=0;fontFamily=Fira Code;strokeColor=#000000;" parent="8DQ1GMw1Qk0WIiFYgqin-2673" vertex="1">
          <mxGeometry width="30" height="30" as="geometry" />
        </mxCell>
        <mxCell id="8DQ1GMw1Qk0WIiFYgqin-2675" value="date_year integer" style="shape=partialRectangle;overflow=hidden;connectable=0;fillColor=none;top=0;left=0;bottom=0;right=0;align=left;spacingLeft=6;fontFamily=Fira Code;strokeColor=#000000;" parent="8DQ1GMw1Qk0WIiFYgqin-2673" vertex="1">
          <mxGeometry x="30" width="250.14" height="30" as="geometry" />
        </mxCell>
        <mxCell id="8DQ1GMw1Qk0WIiFYgqin-2676" value="" style="shape=partialRectangle;collapsible=0;dropTarget=0;pointerEvents=0;fillColor=none;points=[[0,0.5],[1,0.5]];portConstraint=eastwest;top=0;left=0;right=0;bottom=0;fontFamily=Fira Code;strokeColor=#000000;" parent="8DQ1GMw1Qk0WIiFYgqin-2621" vertex="1">
          <mxGeometry y="570" width="280.14" height="30" as="geometry" />
        </mxCell>
        <mxCell id="8DQ1GMw1Qk0WIiFYgqin-2677" value="" style="shape=partialRectangle;overflow=hidden;connectable=0;fillColor=none;top=0;left=0;bottom=0;right=0;fontFamily=Fira Code;strokeColor=#000000;" parent="8DQ1GMw1Qk0WIiFYgqin-2676" vertex="1">
          <mxGeometry width="30" height="30" as="geometry" />
        </mxCell>
        <mxCell id="8DQ1GMw1Qk0WIiFYgqin-2678" value="date_month integer" style="shape=partialRectangle;overflow=hidden;connectable=0;fillColor=none;top=0;left=0;bottom=0;right=0;align=left;spacingLeft=6;fontFamily=Fira Code;strokeColor=#000000;" parent="8DQ1GMw1Qk0WIiFYgqin-2676" vertex="1">
          <mxGeometry x="30" width="250.14" height="30" as="geometry" />
        </mxCell>
        <mxCell id="8DQ1GMw1Qk0WIiFYgqin-2679" value="" style="shape=partialRectangle;collapsible=0;dropTarget=0;pointerEvents=0;fillColor=none;points=[[0,0.5],[1,0.5]];portConstraint=eastwest;top=0;left=0;right=0;bottom=0;fontFamily=Fira Code;strokeColor=#000000;" parent="8DQ1GMw1Qk0WIiFYgqin-2621" vertex="1">
          <mxGeometry y="600" width="280.14" height="30" as="geometry" />
        </mxCell>
        <mxCell id="8DQ1GMw1Qk0WIiFYgqin-2680" value="" style="shape=partialRectangle;overflow=hidden;connectable=0;fillColor=none;top=0;left=0;bottom=0;right=0;fontFamily=Fira Code;strokeColor=#000000;" parent="8DQ1GMw1Qk0WIiFYgqin-2679" vertex="1">
          <mxGeometry width="30" height="30" as="geometry" />
        </mxCell>
        <mxCell id="8DQ1GMw1Qk0WIiFYgqin-2681" value="date_day integer" style="shape=partialRectangle;overflow=hidden;connectable=0;fillColor=none;top=0;left=0;bottom=0;right=0;align=left;spacingLeft=6;fontFamily=Fira Code;strokeColor=#000000;" parent="8DQ1GMw1Qk0WIiFYgqin-2679" vertex="1">
          <mxGeometry x="30" width="250.14" height="30" as="geometry" />
        </mxCell>
        <mxCell id="8DQ1GMw1Qk0WIiFYgqin-2724" style="edgeStyle=orthogonalEdgeStyle;rounded=0;orthogonalLoop=1;jettySize=auto;html=1;exitX=0;exitY=0.5;exitDx=0;exitDy=0;entryX=0;entryY=0.5;entryDx=0;entryDy=0;fontFamily=Fira Code;fontSize=12;strokeColor=#000000;endArrow=none;endFill=0;" parent="1" source="8DQ1GMw1Qk0WIiFYgqin-2141" target="8DQ1GMw1Qk0WIiFYgqin-1924" edge="1">
          <mxGeometry relative="1" as="geometry">
            <Array as="points">
              <mxPoint x="-3135.14" y="-2105" />
              <mxPoint x="-3135.14" y="-2295" />
            </Array>
          </mxGeometry>
        </mxCell>
        <mxCell id="8DQ1GMw1Qk0WIiFYgqin-2726" style="edgeStyle=orthogonalEdgeStyle;rounded=0;orthogonalLoop=1;jettySize=auto;html=1;exitX=1;exitY=0.5;exitDx=0;exitDy=0;fontFamily=Fira Code;fontSize=12;strokeColor=#000000;endArrow=none;endFill=0;" parent="1" source="8DQ1GMw1Qk0WIiFYgqin-1921" target="8DQ1GMw1Qk0WIiFYgqin-1824" edge="1">
          <mxGeometry relative="1" as="geometry" />
        </mxCell>
        <mxCell id="8DQ1GMw1Qk0WIiFYgqin-2730" style="edgeStyle=orthogonalEdgeStyle;rounded=0;orthogonalLoop=1;jettySize=auto;html=1;exitX=1;exitY=0.5;exitDx=0;exitDy=0;fontFamily=Fira Code;fontSize=12;entryX=0;entryY=0.5;entryDx=0;entryDy=0;strokeColor=#000000;endArrow=none;endFill=0;" parent="1" source="8DQ1GMw1Qk0WIiFYgqin-1880" target="8DQ1GMw1Qk0WIiFYgqin-1948" edge="1">
          <mxGeometry relative="1" as="geometry" />
        </mxCell>
        <mxCell id="8DQ1GMw1Qk0WIiFYgqin-2732" style="edgeStyle=orthogonalEdgeStyle;rounded=0;orthogonalLoop=1;jettySize=auto;html=1;exitX=1;exitY=0.5;exitDx=0;exitDy=0;fontFamily=Fira Code;fontSize=12;strokeColor=#000000;endArrow=none;endFill=0;" parent="1" source="8DQ1GMw1Qk0WIiFYgqin-1902" target="8DQ1GMw1Qk0WIiFYgqin-1880" edge="1">
          <mxGeometry relative="1" as="geometry" />
        </mxCell>
        <mxCell id="8DQ1GMw1Qk0WIiFYgqin-2733" style="edgeStyle=orthogonalEdgeStyle;rounded=0;orthogonalLoop=1;jettySize=auto;html=1;exitX=-0.005;exitY=-0.233;exitDx=0;exitDy=0;fontFamily=Fira Code;fontSize=12;exitPerimeter=0;entryX=0;entryY=0.5;entryDx=0;entryDy=0;strokeColor=#000000;endArrow=none;endFill=0;" parent="1" source="8DQ1GMw1Qk0WIiFYgqin-2554" target="8DQ1GMw1Qk0WIiFYgqin-1905" edge="1">
          <mxGeometry relative="1" as="geometry">
            <mxPoint x="-3785.14" y="-2450" as="targetPoint" />
          </mxGeometry>
        </mxCell>
        <mxCell id="8DQ1GMw1Qk0WIiFYgqin-2734" value="species" style="shape=table;startSize=30;container=1;collapsible=1;childLayout=tableLayout;fixedRows=1;rowLines=0;fontStyle=1;align=center;resizeLast=1;fontFamily=Fira Code;fillColor=#dae8fc;strokeColor=#000000;" parent="1" vertex="1">
          <mxGeometry x="-3775.14" y="-3240" width="200" height="130" as="geometry" />
        </mxCell>
        <mxCell id="8DQ1GMw1Qk0WIiFYgqin-2735" value="" style="shape=partialRectangle;collapsible=0;dropTarget=0;pointerEvents=0;fillColor=none;points=[[0,0.5],[1,0.5]];portConstraint=eastwest;top=0;left=0;right=0;bottom=0;fontFamily=Fira Code;strokeColor=#000000;" parent="8DQ1GMw1Qk0WIiFYgqin-2734" vertex="1">
          <mxGeometry y="30" width="200" height="30" as="geometry" />
        </mxCell>
        <mxCell id="8DQ1GMw1Qk0WIiFYgqin-2736" value="" style="shape=partialRectangle;overflow=hidden;connectable=0;fillColor=none;top=0;left=0;bottom=0;right=0;fontFamily=Fira Code;strokeColor=#000000;" parent="8DQ1GMw1Qk0WIiFYgqin-2735" vertex="1">
          <mxGeometry width="30" height="30" as="geometry" />
        </mxCell>
        <mxCell id="8DQ1GMw1Qk0WIiFYgqin-2737" value="id bigint " style="shape=partialRectangle;overflow=hidden;connectable=0;fillColor=none;top=0;left=0;bottom=0;right=0;align=left;spacingLeft=6;fontFamily=Fira Code;strokeColor=#000000;" parent="8DQ1GMw1Qk0WIiFYgqin-2735" vertex="1">
          <mxGeometry x="30" width="170" height="30" as="geometry" />
        </mxCell>
        <mxCell id="8DQ1GMw1Qk0WIiFYgqin-2741" value="" style="shape=partialRectangle;collapsible=0;dropTarget=0;pointerEvents=0;fillColor=none;points=[[0,0.5],[1,0.5]];portConstraint=eastwest;top=0;left=0;right=0;bottom=0;fontFamily=Fira Code;strokeColor=#000000;" parent="8DQ1GMw1Qk0WIiFYgqin-2734" vertex="1">
          <mxGeometry y="60" width="200" height="30" as="geometry" />
        </mxCell>
        <mxCell id="8DQ1GMw1Qk0WIiFYgqin-2742" value="" style="shape=partialRectangle;overflow=hidden;connectable=0;fillColor=none;top=0;left=0;bottom=0;right=0;fontFamily=Fira Code;strokeColor=#000000;" parent="8DQ1GMw1Qk0WIiFYgqin-2741" vertex="1">
          <mxGeometry width="30" height="30" as="geometry" />
        </mxCell>
        <mxCell id="8DQ1GMw1Qk0WIiFYgqin-2743" value="genus character" style="shape=partialRectangle;overflow=hidden;connectable=0;fillColor=none;top=0;left=0;bottom=0;right=0;align=left;spacingLeft=6;fontFamily=Fira Code;strokeColor=#000000;" parent="8DQ1GMw1Qk0WIiFYgqin-2741" vertex="1">
          <mxGeometry x="30" width="170" height="30" as="geometry" />
        </mxCell>
        <mxCell id="8DQ1GMw1Qk0WIiFYgqin-2744" value="" style="shape=partialRectangle;collapsible=0;dropTarget=0;pointerEvents=0;fillColor=none;points=[[0,0.5],[1,0.5]];portConstraint=eastwest;top=0;left=0;right=0;bottom=0;fontFamily=Fira Code;strokeColor=#000000;" parent="8DQ1GMw1Qk0WIiFYgqin-2734" vertex="1">
          <mxGeometry y="90" width="200" height="30" as="geometry" />
        </mxCell>
        <mxCell id="8DQ1GMw1Qk0WIiFYgqin-2745" value="" style="shape=partialRectangle;overflow=hidden;connectable=0;fillColor=none;top=0;left=0;bottom=0;right=0;fontFamily=Fira Code;strokeColor=#000000;" parent="8DQ1GMw1Qk0WIiFYgqin-2744" vertex="1">
          <mxGeometry width="30" height="30" as="geometry" />
        </mxCell>
        <mxCell id="8DQ1GMw1Qk0WIiFYgqin-2746" value="species character" style="shape=partialRectangle;overflow=hidden;connectable=0;fillColor=none;top=0;left=0;bottom=0;right=0;align=left;spacingLeft=6;fontFamily=Fira Code;strokeColor=#000000;" parent="8DQ1GMw1Qk0WIiFYgqin-2744" vertex="1">
          <mxGeometry x="30" width="170" height="30" as="geometry" />
        </mxCell>
        <mxCell id="8DQ1GMw1Qk0WIiFYgqin-2757" style="edgeStyle=orthogonalEdgeStyle;rounded=0;orthogonalLoop=1;jettySize=auto;html=1;exitX=0.5;exitY=1;exitDx=0;exitDy=0;entryX=1;entryY=0.5;entryDx=0;entryDy=0;fontFamily=Fira Code;fontSize=12;strokeColor=#000000;endArrow=none;endFill=0;" parent="1" source="8DQ1GMw1Qk0WIiFYgqin-2755" target="8DQ1GMw1Qk0WIiFYgqin-1880" edge="1">
          <mxGeometry relative="1" as="geometry" />
        </mxCell>
        <mxCell id="8DQ1GMw1Qk0WIiFYgqin-2755" value="&lt;b&gt;modeltypes&lt;/b&gt;" style="shape=Entity;whiteSpace=wrap;html=1;align=center;fontFamily=Fira Code;fontSize=12;strokeColor=#000000;" parent="1" vertex="1">
          <mxGeometry x="-3275.14" y="-2715" width="120" height="40" as="geometry" />
        </mxCell>
        <mxCell id="8DQ1GMw1Qk0WIiFYgqin-2756" style="edgeStyle=orthogonalEdgeStyle;rounded=0;orthogonalLoop=1;jettySize=auto;html=1;exitX=0;exitY=0.5;exitDx=0;exitDy=0;fontFamily=Fira Code;fontSize=12;entryX=1;entryY=0.5;entryDx=0;entryDy=0;strokeColor=#000000;endArrow=none;endFill=0;" parent="1" source="8DQ1GMw1Qk0WIiFYgqin-2042" target="8DQ1GMw1Qk0WIiFYgqin-2755" edge="1">
          <mxGeometry relative="1" as="geometry">
            <mxPoint x="-3075.14" y="-2630" as="targetPoint" />
          </mxGeometry>
        </mxCell>
        <mxCell id="8DQ1GMw1Qk0WIiFYgqin-2761" style="edgeStyle=orthogonalEdgeStyle;rounded=0;orthogonalLoop=1;jettySize=auto;html=1;exitX=1;exitY=0.5;exitDx=0;exitDy=0;fontFamily=Fira Code;fontSize=12;strokeColor=#000000;endArrow=none;endFill=0;" parent="1" source="8DQ1GMw1Qk0WIiFYgqin-2042" target="8DQ1GMw1Qk0WIiFYgqin-2061" edge="1">
          <mxGeometry relative="1" as="geometry" />
        </mxCell>
        <mxCell id="8DQ1GMw1Qk0WIiFYgqin-2766" style="edgeStyle=orthogonalEdgeStyle;rounded=0;orthogonalLoop=1;jettySize=auto;html=1;exitX=1;exitY=0.5;exitDx=0;exitDy=0;entryX=0;entryY=0.5;entryDx=0;entryDy=0;fontFamily=Fira Code;fontSize=12;strokeColor=#000000;endArrow=none;endFill=0;" parent="1" source="8DQ1GMw1Qk0WIiFYgqin-2762" target="8DQ1GMw1Qk0WIiFYgqin-2046" edge="1">
          <mxGeometry relative="1" as="geometry">
            <Array as="points">
              <mxPoint x="-2510" y="-3110" />
              <mxPoint x="-2510" y="-3035" />
            </Array>
          </mxGeometry>
        </mxCell>
        <mxCell id="8DQ1GMw1Qk0WIiFYgqin-2762" value="&lt;span style=&quot;font-weight: 700&quot;&gt;pfts_species&lt;/span&gt;" style="shape=associativeEntity;whiteSpace=wrap;html=1;align=center;fontFamily=Fira Code;fontSize=12;strokeColor=#000000;" parent="1" vertex="1">
          <mxGeometry x="-2705.14" y="-3130" width="140" height="40" as="geometry" />
        </mxCell>
        <mxCell id="8DQ1GMw1Qk0WIiFYgqin-2765" style="edgeStyle=orthogonalEdgeStyle;rounded=0;orthogonalLoop=1;jettySize=auto;html=1;exitX=1;exitY=0.5;exitDx=0;exitDy=0;entryX=-0.065;entryY=0.517;entryDx=0;entryDy=0;entryPerimeter=0;fontFamily=Fira Code;fontSize=12;strokeColor=#000000;endArrow=none;endFill=0;" parent="1" source="8DQ1GMw1Qk0WIiFYgqin-2735" target="8DQ1GMw1Qk0WIiFYgqin-2762" edge="1">
          <mxGeometry relative="1" as="geometry" />
        </mxCell>
        <mxCell id="8DQ1GMw1Qk0WIiFYgqin-2815" style="edgeStyle=orthogonalEdgeStyle;rounded=0;orthogonalLoop=1;jettySize=auto;html=1;exitX=1;exitY=0.5;exitDx=0;exitDy=0;entryX=0;entryY=0.5;entryDx=0;entryDy=0;fontFamily=Fira Code;fontSize=12;strokeColor=#000000;endArrow=none;endFill=0;" parent="1" source="8DQ1GMw1Qk0WIiFYgqin-2779" target="8DQ1GMw1Qk0WIiFYgqin-2046" edge="1">
          <mxGeometry relative="1" as="geometry" />
        </mxCell>
        <mxCell id="8DQ1GMw1Qk0WIiFYgqin-2779" value="&lt;span style=&quot;font-weight: 700&quot;&gt;pfts_priors&lt;/span&gt;" style="shape=associativeEntity;whiteSpace=wrap;html=1;align=center;fontFamily=Fira Code;fontSize=12;strokeColor=#000000;" parent="1" vertex="1">
          <mxGeometry x="-2695.14" y="-3010" width="140" height="40" as="geometry" />
        </mxCell>
        <mxCell id="8DQ1GMw1Qk0WIiFYgqin-2780" style="edgeStyle=orthogonalEdgeStyle;rounded=0;orthogonalLoop=1;jettySize=auto;html=1;exitX=1;exitY=0.5;exitDx=0;exitDy=0;entryX=0;entryY=0.5;entryDx=0;entryDy=0;fontFamily=Fira Code;fontSize=12;strokeColor=#000000;endArrow=none;endFill=0;" parent="1" source="8DQ1GMw1Qk0WIiFYgqin-2782" target="8DQ1GMw1Qk0WIiFYgqin-2779" edge="1">
          <mxGeometry relative="1" as="geometry">
            <mxPoint x="-2965.14" y="-3415" as="sourcePoint" />
          </mxGeometry>
        </mxCell>
        <mxCell id="8DQ1GMw1Qk0WIiFYgqin-2781" value="priors" style="shape=table;startSize=30;container=1;collapsible=1;childLayout=tableLayout;fixedRows=1;rowLines=0;fontStyle=1;align=center;resizeLast=1;fontFamily=Fira Code;fillColor=#e1d5e7;strokeColor=#000000;" parent="1" vertex="1">
          <mxGeometry x="-3075.14" y="-3130" width="310" height="310" as="geometry" />
        </mxCell>
        <mxCell id="8DQ1GMw1Qk0WIiFYgqin-2782" value="" style="shape=partialRectangle;collapsible=0;dropTarget=0;pointerEvents=0;fillColor=none;points=[[0,0.5],[1,0.5]];portConstraint=eastwest;top=0;left=0;right=0;bottom=0;fontFamily=Fira Code;strokeColor=#000000;" parent="8DQ1GMw1Qk0WIiFYgqin-2781" vertex="1">
          <mxGeometry y="30" width="310" height="30" as="geometry" />
        </mxCell>
        <mxCell id="8DQ1GMw1Qk0WIiFYgqin-2783" value="" style="shape=partialRectangle;overflow=hidden;connectable=0;fillColor=none;top=0;left=0;bottom=0;right=0;fontFamily=Fira Code;strokeColor=#000000;" parent="8DQ1GMw1Qk0WIiFYgqin-2782" vertex="1">
          <mxGeometry width="30" height="30" as="geometry" />
        </mxCell>
        <mxCell id="8DQ1GMw1Qk0WIiFYgqin-2784" value="id bigint " style="shape=partialRectangle;overflow=hidden;connectable=0;fillColor=none;top=0;left=0;bottom=0;right=0;align=left;spacingLeft=6;fontFamily=Fira Code;strokeColor=#000000;" parent="8DQ1GMw1Qk0WIiFYgqin-2782" vertex="1">
          <mxGeometry x="30" width="280" height="30" as="geometry" />
        </mxCell>
        <mxCell id="8DQ1GMw1Qk0WIiFYgqin-2785" value="" style="shape=partialRectangle;collapsible=0;dropTarget=0;pointerEvents=0;fillColor=none;points=[[0,0.5],[1,0.5]];portConstraint=eastwest;top=0;left=0;right=0;bottom=0;fontFamily=Fira Code;strokeColor=#000000;" parent="8DQ1GMw1Qk0WIiFYgqin-2781" vertex="1">
          <mxGeometry y="60" width="310" height="30" as="geometry" />
        </mxCell>
        <mxCell id="8DQ1GMw1Qk0WIiFYgqin-2786" value="" style="shape=partialRectangle;overflow=hidden;connectable=0;fillColor=none;top=0;left=0;bottom=0;right=0;fontFamily=Fira Code;strokeColor=#000000;" parent="8DQ1GMw1Qk0WIiFYgqin-2785" vertex="1">
          <mxGeometry width="30" height="30" as="geometry" />
        </mxCell>
        <mxCell id="8DQ1GMw1Qk0WIiFYgqin-2787" value="citation_id bigint" style="shape=partialRectangle;overflow=hidden;connectable=0;fillColor=none;top=0;left=0;bottom=0;right=0;align=left;spacingLeft=6;fontFamily=Fira Code;strokeColor=#000000;" parent="8DQ1GMw1Qk0WIiFYgqin-2785" vertex="1">
          <mxGeometry x="30" width="280" height="30" as="geometry" />
        </mxCell>
        <mxCell id="8DQ1GMw1Qk0WIiFYgqin-2788" value="" style="shape=partialRectangle;collapsible=0;dropTarget=0;pointerEvents=0;fillColor=none;points=[[0,0.5],[1,0.5]];portConstraint=eastwest;top=0;left=0;right=0;bottom=0;fontFamily=Fira Code;strokeColor=#000000;" parent="8DQ1GMw1Qk0WIiFYgqin-2781" vertex="1">
          <mxGeometry y="90" width="310" height="30" as="geometry" />
        </mxCell>
        <mxCell id="8DQ1GMw1Qk0WIiFYgqin-2789" value="" style="shape=partialRectangle;overflow=hidden;connectable=0;fillColor=none;top=0;left=0;bottom=0;right=0;fontFamily=Fira Code;strokeColor=#000000;" parent="8DQ1GMw1Qk0WIiFYgqin-2788" vertex="1">
          <mxGeometry width="30" height="30" as="geometry" />
        </mxCell>
        <mxCell id="8DQ1GMw1Qk0WIiFYgqin-2790" value="variable_id bigint" style="shape=partialRectangle;overflow=hidden;connectable=0;fillColor=none;top=0;left=0;bottom=0;right=0;align=left;spacingLeft=6;fontFamily=Fira Code;strokeColor=#000000;" parent="8DQ1GMw1Qk0WIiFYgqin-2788" vertex="1">
          <mxGeometry x="30" width="280" height="30" as="geometry" />
        </mxCell>
        <mxCell id="8DQ1GMw1Qk0WIiFYgqin-2791" value="" style="shape=partialRectangle;collapsible=0;dropTarget=0;pointerEvents=0;fillColor=none;points=[[0,0.5],[1,0.5]];portConstraint=eastwest;top=0;left=0;right=0;bottom=0;fontFamily=Fira Code;strokeColor=#000000;" parent="8DQ1GMw1Qk0WIiFYgqin-2781" vertex="1">
          <mxGeometry y="120" width="310" height="30" as="geometry" />
        </mxCell>
        <mxCell id="8DQ1GMw1Qk0WIiFYgqin-2792" value="" style="shape=partialRectangle;overflow=hidden;connectable=0;fillColor=none;top=0;left=0;bottom=0;right=0;fontFamily=Fira Code;strokeColor=#000000;" parent="8DQ1GMw1Qk0WIiFYgqin-2791" vertex="1">
          <mxGeometry width="30" height="30" as="geometry" />
        </mxCell>
        <mxCell id="8DQ1GMw1Qk0WIiFYgqin-2793" value="phylogeny character" style="shape=partialRectangle;overflow=hidden;connectable=0;fillColor=none;top=0;left=0;bottom=0;right=0;align=left;spacingLeft=6;fontFamily=Fira Code;strokeColor=#000000;" parent="8DQ1GMw1Qk0WIiFYgqin-2791" vertex="1">
          <mxGeometry x="30" width="280" height="30" as="geometry" />
        </mxCell>
        <mxCell id="8DQ1GMw1Qk0WIiFYgqin-2794" value="" style="shape=partialRectangle;collapsible=0;dropTarget=0;pointerEvents=0;fillColor=none;points=[[0,0.5],[1,0.5]];portConstraint=eastwest;top=0;left=0;right=0;bottom=0;fontFamily=Fira Code;strokeColor=#000000;" parent="8DQ1GMw1Qk0WIiFYgqin-2781" vertex="1">
          <mxGeometry y="150" width="310" height="30" as="geometry" />
        </mxCell>
        <mxCell id="8DQ1GMw1Qk0WIiFYgqin-2795" value="" style="shape=partialRectangle;overflow=hidden;connectable=0;fillColor=none;top=0;left=0;bottom=0;right=0;fontFamily=Fira Code;strokeColor=#000000;" parent="8DQ1GMw1Qk0WIiFYgqin-2794" vertex="1">
          <mxGeometry width="30" height="30" as="geometry" />
        </mxCell>
        <mxCell id="8DQ1GMw1Qk0WIiFYgqin-2796" value="distn character" style="shape=partialRectangle;overflow=hidden;connectable=0;fillColor=none;top=0;left=0;bottom=0;right=0;align=left;spacingLeft=6;fontFamily=Fira Code;strokeColor=#000000;" parent="8DQ1GMw1Qk0WIiFYgqin-2794" vertex="1">
          <mxGeometry x="30" width="280" height="30" as="geometry" />
        </mxCell>
        <mxCell id="8DQ1GMw1Qk0WIiFYgqin-2797" value="" style="shape=partialRectangle;collapsible=0;dropTarget=0;pointerEvents=0;fillColor=none;points=[[0,0.5],[1,0.5]];portConstraint=eastwest;top=0;left=0;right=0;bottom=0;fontFamily=Fira Code;strokeColor=#000000;" parent="8DQ1GMw1Qk0WIiFYgqin-2781" vertex="1">
          <mxGeometry y="180" width="310" height="30" as="geometry" />
        </mxCell>
        <mxCell id="8DQ1GMw1Qk0WIiFYgqin-2798" value="" style="shape=partialRectangle;overflow=hidden;connectable=0;fillColor=none;top=0;left=0;bottom=0;right=0;fontFamily=Fira Code;strokeColor=#000000;" parent="8DQ1GMw1Qk0WIiFYgqin-2797" vertex="1">
          <mxGeometry width="30" height="30" as="geometry" />
        </mxCell>
        <mxCell id="8DQ1GMw1Qk0WIiFYgqin-2799" value="parama double precision" style="shape=partialRectangle;overflow=hidden;connectable=0;fillColor=none;top=0;left=0;bottom=0;right=0;align=left;spacingLeft=6;fontFamily=Fira Code;strokeColor=#000000;" parent="8DQ1GMw1Qk0WIiFYgqin-2797" vertex="1">
          <mxGeometry x="30" width="280" height="30" as="geometry" />
        </mxCell>
        <mxCell id="8DQ1GMw1Qk0WIiFYgqin-2800" value="" style="shape=partialRectangle;collapsible=0;dropTarget=0;pointerEvents=0;fillColor=none;points=[[0,0.5],[1,0.5]];portConstraint=eastwest;top=0;left=0;right=0;bottom=0;fontFamily=Fira Code;strokeColor=#000000;" parent="8DQ1GMw1Qk0WIiFYgqin-2781" vertex="1">
          <mxGeometry y="210" width="310" height="30" as="geometry" />
        </mxCell>
        <mxCell id="8DQ1GMw1Qk0WIiFYgqin-2801" value="" style="shape=partialRectangle;overflow=hidden;connectable=0;fillColor=none;top=0;left=0;bottom=0;right=0;fontFamily=Fira Code;strokeColor=#000000;" parent="8DQ1GMw1Qk0WIiFYgqin-2800" vertex="1">
          <mxGeometry width="30" height="30" as="geometry" />
        </mxCell>
        <mxCell id="8DQ1GMw1Qk0WIiFYgqin-2802" value="paramb double precision" style="shape=partialRectangle;overflow=hidden;connectable=0;fillColor=none;top=0;left=0;bottom=0;right=0;align=left;spacingLeft=6;fontFamily=Fira Code;strokeColor=#000000;" parent="8DQ1GMw1Qk0WIiFYgqin-2800" vertex="1">
          <mxGeometry x="30" width="280" height="30" as="geometry" />
        </mxCell>
        <mxCell id="8DQ1GMw1Qk0WIiFYgqin-2803" value="" style="shape=partialRectangle;collapsible=0;dropTarget=0;pointerEvents=0;fillColor=none;points=[[0,0.5],[1,0.5]];portConstraint=eastwest;top=0;left=0;right=0;bottom=0;fontFamily=Fira Code;strokeColor=#000000;" parent="8DQ1GMw1Qk0WIiFYgqin-2781" vertex="1">
          <mxGeometry y="240" width="310" height="30" as="geometry" />
        </mxCell>
        <mxCell id="8DQ1GMw1Qk0WIiFYgqin-2804" value="" style="shape=partialRectangle;overflow=hidden;connectable=0;fillColor=none;top=0;left=0;bottom=0;right=0;fontFamily=Fira Code;strokeColor=#000000;" parent="8DQ1GMw1Qk0WIiFYgqin-2803" vertex="1">
          <mxGeometry width="30" height="30" as="geometry" />
        </mxCell>
        <mxCell id="8DQ1GMw1Qk0WIiFYgqin-2805" value="paramc double precision" style="shape=partialRectangle;overflow=hidden;connectable=0;fillColor=none;top=0;left=0;bottom=0;right=0;align=left;spacingLeft=6;fontFamily=Fira Code;strokeColor=#000000;" parent="8DQ1GMw1Qk0WIiFYgqin-2803" vertex="1">
          <mxGeometry x="30" width="280" height="30" as="geometry" />
        </mxCell>
        <mxCell id="8DQ1GMw1Qk0WIiFYgqin-2806" value="" style="shape=partialRectangle;collapsible=0;dropTarget=0;pointerEvents=0;fillColor=none;points=[[0,0.5],[1,0.5]];portConstraint=eastwest;top=0;left=0;right=0;bottom=0;fontFamily=Fira Code;strokeColor=#000000;" parent="8DQ1GMw1Qk0WIiFYgqin-2781" vertex="1">
          <mxGeometry y="270" width="310" height="30" as="geometry" />
        </mxCell>
        <mxCell id="8DQ1GMw1Qk0WIiFYgqin-2807" value="" style="shape=partialRectangle;overflow=hidden;connectable=0;fillColor=none;top=0;left=0;bottom=0;right=0;fontFamily=Fira Code;strokeColor=#000000;" parent="8DQ1GMw1Qk0WIiFYgqin-2806" vertex="1">
          <mxGeometry width="30" height="30" as="geometry" />
        </mxCell>
        <mxCell id="8DQ1GMw1Qk0WIiFYgqin-2808" value="n integer" style="shape=partialRectangle;overflow=hidden;connectable=0;fillColor=none;top=0;left=0;bottom=0;right=0;align=left;spacingLeft=6;fontFamily=Fira Code;strokeColor=#000000;" parent="8DQ1GMw1Qk0WIiFYgqin-2806" vertex="1">
          <mxGeometry x="30" width="280" height="30" as="geometry" />
        </mxCell>
        <mxCell id="8DQ1GMw1Qk0WIiFYgqin-2816" style="edgeStyle=orthogonalEdgeStyle;rounded=0;orthogonalLoop=1;jettySize=auto;html=1;exitX=1;exitY=0.5;exitDx=0;exitDy=0;fontFamily=Fira Code;fontSize=12;strokeColor=#000000;endArrow=none;endFill=0;" parent="1" source="8DQ1GMw1Qk0WIiFYgqin-2551" target="8DQ1GMw1Qk0WIiFYgqin-2788" edge="1">
          <mxGeometry relative="1" as="geometry" />
        </mxCell>
        <mxCell id="8DQ1GMw1Qk0WIiFYgqin-2817" value="An input record is purely metadata. At minimum, a record should contain information associating the data with a site id, a collection date and a dbfile id which will point to the physical location of the data." style="rounded=1;arcSize=10;whiteSpace=wrap;html=1;align=center;fontFamily=Fira Code;fontSize=12;strokeColor=#000000;" parent="1" vertex="1">
          <mxGeometry x="-3075.14" y="-2270" width="270" height="100" as="geometry" />
        </mxCell>
        <mxCell id="8DQ1GMw1Qk0WIiFYgqin-2818" value="A dbfile record points to the location of data referenced in an associated input record (saved as container_id). An input record can be linked to multiple dbfile records as data can be saved on multiple servers with different machine ids. Every individual file does not need a dbfile record. Sometime it makes sense (e.g. in the case of climate files) to specify the base directory for the data under file_path and then a common prefix for the files.&amp;nbsp;&amp;nbsp;" style="rounded=1;arcSize=10;whiteSpace=wrap;html=1;align=center;fontFamily=Fira Code;fontSize=12;strokeColor=#000000;" parent="1" vertex="1">
          <mxGeometry x="-2715.14" y="-2300" width="340" height="170" as="geometry" />
        </mxCell>
        <mxCell id="8DQ1GMw1Qk0WIiFYgqin-2819" value="It is optional to organize sites in to sitegroups." style="rounded=1;arcSize=10;whiteSpace=wrap;html=1;align=center;fontFamily=Fira Code;fontSize=12;strokeColor=#000000;" parent="1" vertex="1">
          <mxGeometry x="-3315.14" y="-1890" width="200" height="60" as="geometry" />
        </mxCell>
        <mxCell id="sPPeMGRFni09OI7wC_4--4" style="edgeStyle=orthogonalEdgeStyle;rounded=0;orthogonalLoop=1;jettySize=auto;html=1;exitX=0;exitY=0.5;exitDx=0;exitDy=0;entryX=0;entryY=0.5;entryDx=0;entryDy=0;strokeColor=#000000;endArrow=none;endFill=0;" parent="1" source="8DQ1GMw1Qk0WIiFYgqin-2468" target="8DQ1GMw1Qk0WIiFYgqin-2735" edge="1">
          <mxGeometry relative="1" as="geometry">
            <Array as="points">
              <mxPoint x="-4200.14" y="-1885" />
              <mxPoint x="-4200.14" y="-3195" />
            </Array>
          </mxGeometry>
        </mxCell>
        <mxCell id="sPPeMGRFni09OI7wC_4--5" style="edgeStyle=orthogonalEdgeStyle;rounded=0;orthogonalLoop=1;jettySize=auto;html=1;exitX=0;exitY=0.5;exitDx=0;exitDy=0;strokeColor=#000000;endArrow=none;endFill=0;" parent="1" source="8DQ1GMw1Qk0WIiFYgqin-2631" target="8DQ1GMw1Qk0WIiFYgqin-2735" edge="1">
          <mxGeometry relative="1" as="geometry">
            <Array as="points">
              <mxPoint x="-3745" y="-1885" />
              <mxPoint x="-3830" y="-1885" />
              <mxPoint x="-3830" y="-3195" />
            </Array>
          </mxGeometry>
        </mxCell>
        <mxCell id="sPPeMGRFni09OI7wC_4--7" style="edgeStyle=orthogonalEdgeStyle;rounded=0;orthogonalLoop=1;jettySize=auto;html=1;exitX=0;exitY=0.5;exitDx=0;exitDy=0;entryX=0;entryY=0.5;entryDx=0;entryDy=0;strokeColor=#000000;endArrow=none;endFill=0;" parent="1" source="8DQ1GMw1Qk0WIiFYgqin-2465" target="8DQ1GMw1Qk0WIiFYgqin-2141" edge="1">
          <mxGeometry relative="1" as="geometry" />
        </mxCell>
        <mxCell id="sPPeMGRFni09OI7wC_4--19" style="edgeStyle=orthogonalEdgeStyle;rounded=0;orthogonalLoop=1;jettySize=auto;html=1;exitX=1;exitY=0.5;exitDx=0;exitDy=0;entryX=0;entryY=0.5;entryDx=0;entryDy=0;strokeColor=#000000;endArrow=none;endFill=0;" parent="1" source="sPPeMGRFni09OI7wC_4--11" target="8DQ1GMw1Qk0WIiFYgqin-1841" edge="1">
          <mxGeometry relative="1" as="geometry" />
        </mxCell>
        <mxCell id="sPPeMGRFni09OI7wC_4--11" value="&lt;span&gt;experiments_sites&lt;/span&gt;" style="shape=associativeEntity;whiteSpace=wrap;html=1;align=center;fontFamily=Fira Code;fontSize=12;fontStyle=1;strokeColor=#000000;" parent="1" vertex="1">
          <mxGeometry x="-2732.64" y="-2045" width="195" height="40" as="geometry" />
        </mxCell>
        <mxCell id="sPPeMGRFni09OI7wC_4--15" style="edgeStyle=orthogonalEdgeStyle;rounded=0;orthogonalLoop=1;jettySize=auto;html=1;exitX=1;exitY=0.5;exitDx=0;exitDy=0;strokeColor=#000000;endArrow=none;endFill=0;" parent="1" source="sPPeMGRFni09OI7wC_4--12" target="8DQ1GMw1Qk0WIiFYgqin-1841" edge="1">
          <mxGeometry relative="1" as="geometry" />
        </mxCell>
        <mxCell id="sPPeMGRFni09OI7wC_4--12" value="&lt;span&gt;experiments_treatments&lt;/span&gt;" style="shape=associativeEntity;whiteSpace=wrap;html=1;align=center;fontFamily=Fira Code;fontSize=12;fontStyle=1;strokeColor=#000000;" parent="1" vertex="1">
          <mxGeometry x="-2732.64" y="-1960" width="195" height="40" as="geometry" />
        </mxCell>
        <mxCell id="sPPeMGRFni09OI7wC_4--21" style="edgeStyle=orthogonalEdgeStyle;rounded=0;orthogonalLoop=1;jettySize=auto;html=1;exitX=1;exitY=0.5;exitDx=0;exitDy=0;strokeColor=#000000;endArrow=none;endFill=0;" parent="1" source="sPPeMGRFni09OI7wC_4--13" target="8DQ1GMw1Qk0WIiFYgqin-1962" edge="1">
          <mxGeometry relative="1" as="geometry" />
        </mxCell>
        <mxCell id="sPPeMGRFni09OI7wC_4--13" value="&lt;span&gt;managements_treatments&lt;/span&gt;" style="shape=associativeEntity;whiteSpace=wrap;html=1;align=center;fontFamily=Fira Code;fontSize=12;fontStyle=1;strokeColor=#000000;" parent="1" vertex="1">
          <mxGeometry x="-2680.14" y="-1245" width="195" height="40" as="geometry" />
        </mxCell>
        <mxCell id="sPPeMGRFni09OI7wC_4--14" style="edgeStyle=orthogonalEdgeStyle;rounded=0;orthogonalLoop=1;jettySize=auto;html=1;exitX=1;exitY=0.5;exitDx=0;exitDy=0;strokeColor=#000000;endArrow=none;endFill=0;" parent="1" source="8DQ1GMw1Qk0WIiFYgqin-2538" target="sPPeMGRFni09OI7wC_4--12" edge="1">
          <mxGeometry relative="1" as="geometry">
            <Array as="points">
              <mxPoint x="-2770.14" y="-1225" />
              <mxPoint x="-2770.14" y="-1940" />
            </Array>
          </mxGeometry>
        </mxCell>
        <mxCell id="sPPeMGRFni09OI7wC_4--18" style="edgeStyle=orthogonalEdgeStyle;rounded=0;orthogonalLoop=1;jettySize=auto;html=1;exitX=1;exitY=0.5;exitDx=0;exitDy=0;entryX=0;entryY=0.5;entryDx=0;entryDy=0;strokeColor=#000000;endArrow=none;endFill=0;" parent="1" source="8DQ1GMw1Qk0WIiFYgqin-2141" target="sPPeMGRFni09OI7wC_4--11" edge="1">
          <mxGeometry relative="1" as="geometry" />
        </mxCell>
        <mxCell id="sPPeMGRFni09OI7wC_4--20" style="edgeStyle=orthogonalEdgeStyle;rounded=0;orthogonalLoop=1;jettySize=auto;html=1;exitX=1;exitY=0.5;exitDx=0;exitDy=0;entryX=0;entryY=0.5;entryDx=0;entryDy=0;strokeColor=#000000;endArrow=none;endFill=0;" parent="1" source="8DQ1GMw1Qk0WIiFYgqin-2538" target="sPPeMGRFni09OI7wC_4--13" edge="1">
          <mxGeometry relative="1" as="geometry" />
        </mxCell>
        <mxCell id="sPPeMGRFni09OI7wC_4--22" style="edgeStyle=orthogonalEdgeStyle;rounded=0;orthogonalLoop=1;jettySize=auto;html=1;exitX=0;exitY=0.5;exitDx=0;exitDy=0;entryX=0;entryY=0.5;entryDx=0;entryDy=0;strokeColor=#000000;endArrow=none;endFill=0;" parent="1" source="8DQ1GMw1Qk0WIiFYgqin-2477" target="8DQ1GMw1Qk0WIiFYgqin-2538" edge="1">
          <mxGeometry relative="1" as="geometry">
            <Array as="points">
              <mxPoint x="-4180.14" y="-1765" />
              <mxPoint x="-4180.14" y="-1120" />
              <mxPoint x="-3110.14" y="-1120" />
              <mxPoint x="-3110.14" y="-1225" />
            </Array>
          </mxGeometry>
        </mxCell>
        <mxCell id="sPPeMGRFni09OI7wC_4--24" style="edgeStyle=orthogonalEdgeStyle;rounded=0;orthogonalLoop=1;jettySize=auto;html=1;exitX=0;exitY=0.5;exitDx=0;exitDy=0;entryX=0;entryY=0.5;entryDx=0;entryDy=0;strokeColor=#000000;endArrow=none;endFill=0;" parent="1" source="8DQ1GMw1Qk0WIiFYgqin-2634" target="8DQ1GMw1Qk0WIiFYgqin-2538" edge="1">
          <mxGeometry relative="1" as="geometry">
            <Array as="points">
              <mxPoint x="-3745" y="-1765" />
              <mxPoint x="-3830" y="-1765" />
              <mxPoint x="-3830" y="-1120" />
              <mxPoint x="-3110" y="-1120" />
              <mxPoint x="-3110" y="-1225" />
            </Array>
          </mxGeometry>
        </mxCell>
        <mxCell id="-PD9OtXOHauCd2NRxNuL-5" style="edgeStyle=orthogonalEdgeStyle;rounded=0;orthogonalLoop=1;jettySize=auto;html=1;exitX=0;exitY=0.5;exitDx=0;exitDy=0;fontFamily=Fira Code;endArrow=none;endFill=0;startSize=30;strokeColor=#000000;" edge="1" parent="1" source="8DQ1GMw1Qk0WIiFYgqin-2628" target="8DQ1GMw1Qk0WIiFYgqin-2141">
          <mxGeometry relative="1" as="geometry" />
        </mxCell>
        <mxCell id="-PD9OtXOHauCd2NRxNuL-8" value="" style="verticalLabelPosition=bottom;verticalAlign=top;html=1;shape=mxgraph.basic.star;fontFamily=Fira Code;startSize=30;fillColor=#d80073;strokeColor=#A50040;fontColor=#ffffff;" vertex="1" parent="1">
          <mxGeometry x="-2980" y="-2540" width="10.53" height="10" as="geometry" />
        </mxCell>
        <mxCell id="-PD9OtXOHauCd2NRxNuL-9" value="" style="verticalLabelPosition=bottom;verticalAlign=top;html=1;shape=mxgraph.basic.star;fontFamily=Fira Code;startSize=30;fillColor=#d80073;strokeColor=#A50040;fontColor=#ffffff;" vertex="1" parent="1">
          <mxGeometry x="-4050" y="-1940" width="10.53" height="10" as="geometry" />
        </mxCell>
        <mxCell id="-PD9OtXOHauCd2NRxNuL-13" value="" style="verticalLabelPosition=bottom;verticalAlign=top;html=1;shape=mxgraph.basic.star;fontFamily=Fira Code;startSize=30;fillColor=#d80073;strokeColor=#A50040;fontColor=#ffffff;" vertex="1" parent="1">
          <mxGeometry x="-3650" y="-1940" width="10.53" height="10" as="geometry" />
        </mxCell>
        <mxCell id="-PD9OtXOHauCd2NRxNuL-16" value="" style="verticalLabelPosition=bottom;verticalAlign=top;html=1;shape=mxgraph.basic.star;fontFamily=Fira Code;startSize=30;fillColor=#d80073;strokeColor=#A50040;fontColor=#ffffff;" vertex="1" parent="1">
          <mxGeometry x="-2270" y="-1380" width="10.53" height="10" as="geometry" />
        </mxCell>
      </root>
    </mxGraphModel>
  </diagram>
</mxfile>
